<svg width="34" height="36" viewBox="0 0 34 36" fill="none" xmlns="http://www.w3.org/2000/svg">
<path d="M5.74479 35.3185C5.07928 35.1845 4.40037 35.0907 3.74826 34.9076C2.76562 34.6217 1.88125 34.1259 1.16661 33.3755C0.291169 32.4599 0.0589097 31.2048 0.599359 30.2356C1.07728 29.378 1.86338 28.9403 2.79242 28.7572C3.85992 28.5428 4.95422 28.4222 6.01278 28.1631C8.78649 27.4887 11.2922 26.1978 13.6818 24.6792C14.5662 24.1164 15.4282 23.5224 16.2992 22.9462C16.6118 22.7408 16.9066 22.7854 17.0764 23.049C17.2371 23.3035 17.1746 23.5805 16.8798 23.7815C14.4545 25.4653 11.9801 27.0554 9.23314 28.181C7.31701 28.9671 5.3294 29.4718 3.27034 29.7219C2.89515 29.7666 2.51103 29.9006 2.17604 30.0793C1.314 30.5348 1.09068 31.4192 1.59093 32.2589C1.89018 32.7636 2.3413 33.1076 2.84155 33.3979C4.11898 34.1438 5.50807 34.3403 6.95522 34.2599C8.89816 34.1572 10.7696 33.6525 12.659 33.2282C14.593 32.7949 16.5404 32.4286 18.5324 32.3974C20.6317 32.3661 22.6461 32.7949 24.5935 33.5631C25.5047 33.9205 26.4337 34.251 27.4253 34.2822C30.4357 34.3805 32.9459 31.9105 32.9772 28.8331C32.9861 27.913 32.861 27.0152 32.5752 26.1442C31.932 24.2058 31.6729 22.2003 31.5211 20.177C31.2531 16.568 31.3246 12.9591 31.5345 9.3546C31.6997 6.53622 31.9633 3.72232 32.1866 0.908408C32.2179 0.506421 32.4367 0.296495 32.7494 0.32776C33.0754 0.363492 33.2407 0.631484 33.2005 1.0424C32.6734 6.54516 32.267 12.0524 32.4099 17.5819C32.4814 20.2484 32.6511 22.9105 33.4417 25.4787C33.8169 26.6892 34.0491 27.9041 33.9911 29.1726C33.8794 31.5219 32.736 33.2282 30.7528 34.4252C30.0159 34.8718 29.2074 35.1398 28.3722 35.3185C27.9836 35.3185 27.5995 35.3185 27.2109 35.3185C26.6704 35.1979 26.1166 35.113 25.5895 34.9567C24.4818 34.6217 23.3965 34.2019 22.2799 33.8937C19.7652 33.1924 17.2327 33.3487 14.7091 33.8579C12.9046 34.2197 11.1091 34.6396 9.30461 35.0058C8.58103 35.1532 7.84406 35.2202 7.11601 35.3229C6.66043 35.3185 6.20484 35.3185 5.74479 35.3185Z" fill="black"/>
<path d="M17.1032 16.7019C16.9692 15.9828 16.871 15.3083 16.7146 14.6517C16.5896 14.1381 16.6655 13.7182 16.9558 13.2671C17.6526 12.1818 17.9295 10.9758 17.8581 9.68497C17.8268 9.14453 17.9921 8.87653 18.3494 8.87207C18.6888 8.8676 18.8541 9.10879 18.8809 9.63584C18.9613 11.1589 18.595 12.5659 17.8089 13.8701C17.7196 14.0175 17.6973 14.2364 17.7241 14.4061C17.8491 15.1699 17.9965 15.9292 18.1528 16.6885C18.2288 17.0547 18.1618 17.3674 17.8759 17.6175C17.5722 17.881 17.2372 17.8676 16.8844 17.7202C16.1518 17.4121 15.4193 17.1039 14.6734 16.8135C14.5305 16.7599 14.3384 16.7555 14.1955 16.8046C9.95232 18.3098 5.52153 15.822 4.61929 11.418C3.79745 7.40258 6.64262 3.43631 10.734 2.90926C13.7757 2.51621 16.6878 4.02589 18.0769 6.7058C18.2064 6.9604 18.269 7.19712 18.0546 7.42938C17.8 7.70184 17.398 7.61251 17.1925 7.22839C16.7727 6.43335 16.2322 5.7321 15.5087 5.19165C13.5077 3.7043 11.328 3.40951 9.07688 4.46361C6.82129 5.52218 5.61532 7.38472 5.54386 9.8815C5.41433 14.3212 9.77366 17.3897 13.9186 15.813C14.2848 15.6746 14.6109 15.6701 14.9682 15.8264C15.6561 16.1257 16.3573 16.3982 17.1032 16.7019Z" fill="black"/>
<path d="M21.7885 16.0766C21.7751 17.5327 21.6992 18.5645 21.3285 19.5516C20.855 20.8022 19.9215 21.6553 18.854 22.3878C18.6128 22.5531 18.3717 22.4905 18.193 22.2538C18.0277 22.0394 18.0679 21.7402 18.2913 21.5526C18.586 21.3024 18.8987 21.0702 19.1935 20.82C20.2119 19.9669 20.6183 18.828 20.721 17.5416C20.8506 15.8443 20.6228 14.1739 20.3369 12.5123C19.6848 8.73364 19.0059 4.95943 18.3359 1.18522C18.3225 1.10482 18.3091 1.02889 18.3002 0.948495C18.2645 0.626905 18.4208 0.385713 18.6977 0.332115C18.9702 0.278516 19.2292 0.443778 19.2918 0.760901C19.5017 1.84627 19.7071 2.92716 19.8947 4.01699C20.4352 7.13463 20.989 10.2478 21.4982 13.3699C21.6679 14.3972 21.726 15.4468 21.7885 16.0766Z" fill="black"/>
<path d="M11.9932 10.9088C11.56 10.8418 11.1714 10.7793 10.7783 10.7168C10.1262 10.614 9.88949 10.078 10.2736 9.54206C10.9883 8.54602 11.7163 7.55446 12.4399 6.56289C12.6721 6.24576 12.9714 6.1743 13.226 6.36636C13.4716 6.55396 13.4895 6.85768 13.2572 7.17927C12.7123 7.93411 12.163 8.68895 11.6136 9.44379C11.5466 9.53312 11.484 9.62692 11.3902 9.76538C11.8146 9.83238 12.2031 9.89491 12.5873 9.95298C13.2572 10.0512 13.494 10.5917 13.0965 11.1455C12.3863 12.1326 11.6672 13.1153 10.9481 14.0979C10.7113 14.4195 10.421 14.4999 10.1664 14.3212C9.90289 14.1381 9.88949 13.821 10.1352 13.4815C10.6801 12.7267 11.2294 11.9718 11.7788 11.217C11.8458 11.1321 11.9084 11.0383 11.9932 10.9088Z" fill="black"/>
<path d="M29.0016 22.6022C28.9525 24.1923 28.6398 25.3134 27.617 26.1307C26.286 27.1982 24.4056 26.9749 23.3604 25.626C23.1639 25.3714 23.1683 25.0811 23.3783 24.889C23.6016 24.6836 23.8919 24.7014 24.1331 24.9605C24.4904 25.3446 24.888 25.6573 25.4195 25.7511C26.3485 25.9208 27.2909 25.358 27.6974 24.3888C28.077 23.4866 28.0145 22.562 27.7912 21.6374C27.7421 21.4409 27.6751 21.2444 27.617 21.0478C27.5098 20.6905 27.6259 20.427 27.9252 20.3287C28.211 20.2349 28.488 20.3689 28.5728 20.7084C28.7604 21.4498 28.9078 22.1913 29.0016 22.6022Z" fill="black"/>
<path d="M15.719 19.4488C15.6297 19.6408 15.594 19.7614 15.527 19.8641C15.25 20.2795 14.9686 20.6905 14.6783 21.0969C14.4639 21.3962 14.1691 21.4632 13.919 21.289C13.6733 21.1148 13.6421 20.8111 13.8475 20.5073C14.1379 20.0741 14.4193 19.6274 14.7498 19.2299C14.857 19.1004 15.1384 19.0155 15.3036 19.0557C15.4689 19.0914 15.585 19.3148 15.719 19.4488Z" fill="black"/>
<path d="M14.276 17.7382C14.611 17.7516 14.7986 17.8766 14.8432 18.1535C14.8879 18.4215 14.7852 18.6538 14.5172 18.7163C13.9633 18.8459 13.405 18.9531 12.8422 19.029C12.5787 19.0647 12.3866 18.8816 12.333 18.6181C12.2794 18.3456 12.4045 18.1178 12.6591 18.0553C13.2129 17.9168 13.7757 17.832 14.276 17.7382Z" fill="black"/>
<path d="M16.7104 19.3281C16.7908 19.413 17.0097 19.547 17.0633 19.7256C17.2017 20.217 17.2777 20.7217 17.3536 21.2264C17.3938 21.5078 17.2553 21.7132 16.9739 21.7892C16.6836 21.8606 16.4156 21.6998 16.3531 21.4051C16.2504 20.9182 16.1566 20.4269 16.0806 19.9356C16.027 19.6006 16.2682 19.3326 16.7104 19.3281Z" fill="black"/>
</svg>
