<svg width="30" height="49" viewBox="0 0 30 49" fill="none" xmlns="http://www.w3.org/2000/svg">
<path d="M12.8837 42.8838C12.8837 41.3068 12.864 39.7297 12.8936 38.1527C12.9034 37.3839 12.5781 36.9009 11.8981 36.5658C9.75919 35.5111 8.58627 33.3624 8.83268 31.0363C9.06924 28.8383 10.666 26.9853 12.8738 26.384C14.0369 26.0686 15.1901 26.1179 16.294 26.6009C17.2206 27.005 18.0978 26.9951 19.044 26.6107C21.8137 25.4772 24.9481 26.7487 26.1407 29.4494C27.3432 32.1698 26.19 35.2746 23.4499 36.5954C22.7402 36.9403 22.4346 37.4529 22.4346 38.2315C22.4445 41.3659 22.4346 44.5101 22.4346 47.6445C22.4346 48.5809 22.2967 48.709 21.3504 48.709C18.837 48.709 16.3236 48.709 13.8102 48.709C13.1005 48.709 12.8738 48.4823 12.8738 47.7628C12.8738 46.1364 12.8837 44.5101 12.8837 42.8838ZM14.2538 47.2995C16.5503 47.2995 18.7877 47.2995 21.0547 47.2995C21.0547 47.0827 21.0547 46.9052 21.0547 46.7278C21.0547 43.9187 21.0744 41.1096 21.0449 38.3005C21.035 36.891 21.6067 35.9054 22.8979 35.2943C24.9185 34.3382 25.7464 31.9727 24.8396 29.9521C23.9427 27.9611 21.6363 26.9951 19.596 27.8526C18.3245 28.3849 17.1023 28.4342 15.8407 27.8625C15.1014 27.5274 14.303 27.4879 13.5244 27.6555C11.8093 28.0202 10.4984 29.4001 10.2914 31.0166C10.045 32.8795 10.873 34.5058 12.5289 35.3436C13.7116 35.935 14.2538 36.8615 14.2439 38.1822C14.2143 41.0406 14.234 43.899 14.234 46.7574C14.2538 46.925 14.2538 47.1024 14.2538 47.2995Z" fill="black"/>
<path d="M3.49017 19.7998C3.51974 18.4101 3.86472 17.2766 4.66309 16.3205C5.22491 15.6502 5.25448 15.0096 4.87994 14.2408C3.50003 11.4317 2.15954 8.60284 0.809203 5.77403C0.444513 5.02494 0.533221 4.77852 1.27246 4.42369C3.55917 3.32962 5.85573 2.23555 8.14244 1.14148C8.79296 0.835924 9.0788 0.934489 9.39421 1.58502C10.7643 4.47297 12.1343 7.36093 13.4847 10.2489C13.8099 10.9388 14.283 11.2542 15.0617 11.2641C18.0285 11.2937 20.3743 13.5311 20.5419 16.4388C20.7095 19.2873 18.5903 21.781 15.6728 22.1555C15.3771 22.195 15.0814 22.1654 14.7857 22.2048C14.076 22.3132 13.5142 22.6878 13.0411 23.22C12.1343 24.2648 10.991 24.8661 9.61105 25.0632C6.83152 25.4575 4.05199 23.427 3.59859 20.6573C3.54931 20.3321 3.51974 19.9871 3.49017 19.7998ZM2.19897 5.48819C2.30739 5.72475 2.38624 5.90216 2.47495 6.07958C3.6873 8.62256 4.87994 11.1754 6.112 13.7085C6.7231 14.9701 6.62454 16.1036 5.69803 17.1681C5.15592 17.7891 4.86022 18.5382 4.80108 19.3661C4.66309 21.2093 5.66846 22.8553 7.32435 23.5256C8.99009 24.2057 10.8234 23.7424 12.0358 22.3132C12.8637 21.3473 13.9085 20.8545 15.1701 20.8052C17.4864 20.7263 19.2014 18.9325 19.1817 16.626C19.162 14.428 17.3583 12.644 15.0814 12.6342C13.7508 12.6342 12.844 12.0329 12.292 10.8403C11.3359 8.82954 10.37 6.82867 9.41392 4.81795C9.05909 4.07871 8.70426 3.34933 8.33957 2.57067C6.27956 3.54646 4.25898 4.5124 2.19897 5.48819Z" fill="black"/>
<path d="M22.4739 19.2183L22.464 19.2084C22.2373 18.9127 22.2866 18.4889 22.5823 18.2524C24.0411 17.0991 25.4998 15.9459 26.9685 14.7829C27.2642 14.5463 27.688 14.5956 27.9245 14.8913L27.9344 14.9011C28.171 15.1968 28.1217 15.6207 27.826 15.8572C26.3672 17.0104 24.9183 18.1538 23.4398 19.3267C23.1441 19.5633 22.7105 19.514 22.4739 19.2183Z" fill="black"/>
<path d="M24.9186 25.1322V25.1125C24.9974 24.7478 25.3621 24.5112 25.7268 24.5901C26.9786 24.8562 28.2106 25.1223 29.4624 25.3884C29.8271 25.4673 30.0636 25.832 29.9848 26.1967V26.2065C29.9059 26.5712 29.5412 26.8078 29.1766 26.7289C27.9346 26.4628 26.7026 26.2065 25.4409 25.9305C25.0664 25.8616 24.8298 25.4969 24.9186 25.1322Z" fill="black"/>
<path d="M24.5241 21.8598V21.8499C24.4255 21.4951 24.6325 21.1107 24.9873 21.0121C26.1405 20.677 27.2839 20.3419 28.447 19.9969C28.8018 19.8885 29.1862 20.0955 29.2946 20.4601V20.47C29.403 20.8347 29.196 21.2092 28.8314 21.3177C27.6683 21.6528 26.5249 21.9879 25.3717 22.3329C25.007 22.4314 24.6325 22.2245 24.5241 21.8598Z" fill="black"/>
</svg>
