<svg width="32" height="33" viewBox="0 0 32 33" fill="none" xmlns="http://www.w3.org/2000/svg">
<path d="M6.39951 23.8578C5.13895 26.9156 2.83 29.1872 0.920436 31.7457C0.808108 31.908 0.37128 32.0078 0.209029 31.908C-0.152914 31.7083 0.0218169 31.3963 0.233991 31.1217C1.44463 29.5117 2.66775 27.9141 3.82846 26.2666C4.82693 24.8438 5.57578 23.2962 5.87532 21.5739C5.96268 21.0996 5.9502 20.5629 5.78795 20.1136C5.3012 18.7033 4.73956 17.3304 4.17793 15.945C4.05312 15.633 3.82846 15.3085 4.25281 15.0963C4.6522 14.8966 4.85189 15.1962 5.01414 15.5082C6.48688 18.2914 7.27317 21.2618 7.33557 24.3945C7.3855 26.666 7.34805 28.9251 7.34805 31.1966C7.34805 31.3588 7.3855 31.5585 7.29813 31.6833C7.19828 31.8331 6.99859 31.9953 6.83634 32.0078C6.71153 32.0203 6.51184 31.8331 6.44944 31.6958C6.37455 31.5211 6.38703 31.2964 6.38703 31.0842C6.39951 28.6754 6.39951 26.2666 6.39951 23.8578Z" fill="black"/>
<path d="M19.4421 0.0194702C19.5669 0.244125 19.7791 0.456299 19.7916 0.680953C19.8415 1.34244 19.829 2.0164 19.8041 2.67788C19.7916 3.47666 20.1535 4.00085 20.8774 4.33783C23.099 5.37374 25.3081 6.40965 27.5172 7.47052C29.252 8.30673 30.1881 9.71706 30.1881 11.6266C30.1881 14.8966 30.7123 18.0667 31.8356 21.137C31.9604 21.4615 32.0852 21.811 31.6234 21.9607C31.1866 22.098 31.0618 21.7486 30.937 21.4241C29.8137 18.4037 29.252 15.2585 29.252 12.0385C29.252 10.1539 28.4782 8.90581 26.7434 8.14448C24.5842 7.18346 22.4625 6.13507 20.3283 5.12412C19.3548 4.66233 18.868 3.87604 18.843 2.80269C18.8306 2.11625 18.8181 1.4298 18.8555 0.743357C18.868 0.506222 19.0552 0.281567 19.1551 0.0444318C19.2674 0.031951 19.3548 0.0194702 19.4421 0.0194702Z" fill="black"/>
<path d="M16.0096 30.2106C13.6008 30.2231 11.6787 28.326 11.6787 25.9172C11.6787 23.5458 13.5758 21.6363 15.9472 21.6113C18.306 21.5739 20.278 23.5334 20.278 25.9172C20.278 28.301 18.3934 30.1856 16.0096 30.2106ZM19.3544 25.9172C19.3544 24.07 17.8442 22.5598 15.9846 22.5598C14.125 22.5598 12.6148 24.07 12.6148 25.9172C12.6148 27.7519 14.1499 29.287 15.9846 29.287C17.8193 29.287 19.3544 27.7519 19.3544 25.9172Z" fill="black"/>
<path d="M25.5701 23.708C25.5701 24.5318 25.5701 25.368 25.5701 26.1917C25.5701 26.354 25.6201 26.5537 25.5452 26.6785C25.4453 26.8657 25.2456 27.0155 25.0959 27.1777C24.9336 27.003 24.6341 26.8407 24.6216 26.6535C24.4094 23.1589 24.9211 19.7766 26.3939 16.5815C26.5312 16.2695 26.7184 16.0074 27.0928 16.1821C27.4797 16.3693 27.3424 16.6689 27.2301 16.9809C26.8557 17.9918 26.5187 19.0153 26.1443 20.0262C25.8946 20.7002 25.9571 21.3492 26.1318 22.0356C26.656 24.045 27.6919 25.7799 28.9025 27.4273C29.8011 28.6505 30.7247 29.8486 31.6483 31.0592C31.8605 31.3338 32.1101 31.6084 31.7481 31.9079C31.3862 32.22 31.1366 31.9329 30.9244 31.6708C29.0024 29.1497 26.9555 26.691 25.5701 23.708Z" fill="black"/>
<path d="M7.95926 6.68422C7.84693 6.78407 7.68468 6.9588 7.47251 7.07112C6.6987 7.45803 5.91241 7.84493 5.11364 8.1944C3.47865 8.89332 2.70484 10.1164 2.70484 11.8887C2.70484 15.0464 2.19313 18.1291 1.11978 21.112C1.06985 21.2493 1.03241 21.3866 0.970006 21.5239C0.845197 21.8359 0.645504 22.1355 0.296042 21.9233C0.146272 21.8359 0.0589061 21.4365 0.108829 21.2244C0.42085 20.0012 0.907601 18.8156 1.11978 17.58C1.4318 15.7203 1.64397 13.8357 1.73134 11.9636C1.8187 9.7545 2.7298 8.20688 4.77665 7.33322C5.60039 6.98376 6.38668 6.57189 7.19793 6.19747C7.59732 5.99777 7.97174 6.19747 7.95926 6.68422Z" fill="black"/>
<path d="M12.2405 11.4769C12.2405 12.1384 12.253 12.8123 12.2405 13.4738C12.2156 14.6845 11.1672 15.9949 10.0065 16.257C9.85671 16.2945 9.58213 16.1697 9.50725 16.0449C9.43236 15.9076 9.48229 15.633 9.58213 15.5082C9.71942 15.3335 9.94408 15.2336 10.1438 15.1338C11.0049 14.7094 11.3419 13.9855 11.3294 13.0495C11.317 11.8388 11.3294 10.6407 11.3294 9.43003C11.3294 9.08057 11.3419 8.70614 11.8162 8.7311C12.2281 8.75606 12.253 9.09305 12.253 9.43003C12.2405 10.104 12.2405 10.7904 12.2405 11.4769Z" fill="black"/>
<path d="M19.7167 11.5143C19.7167 10.7904 19.6793 10.054 19.7417 9.33016C19.7542 9.11798 20.0287 8.91829 20.1785 8.70612C20.3283 8.91829 20.6029 9.11798 20.6153 9.33016C20.6528 10.5533 20.6528 11.7764 20.6278 13.012C20.6153 13.973 20.9523 14.7094 21.8385 15.1462C21.9633 15.2086 22.1505 15.2585 22.2004 15.3709C22.3252 15.5955 22.3751 15.8451 22.4625 16.0823C22.2254 16.1197 21.9383 16.2445 21.7636 16.1572C20.3907 15.5331 19.5794 14.5347 19.7167 12.9371C19.7542 12.4628 19.7167 11.9886 19.7167 11.5143Z" fill="black"/>
<path d="M13.1017 1.89161C13.1017 2.22859 13.1142 2.55309 13.1017 2.89007C13.0518 3.70133 12.7522 4.42521 12.0533 4.83708C11.292 5.28639 10.4682 5.66081 9.65697 6.01028C9.5072 6.07268 9.2451 5.86051 9.04541 5.77314C9.13278 5.57345 9.17022 5.27391 9.33247 5.18654C9.90659 4.86204 10.5181 4.58746 11.1172 4.31289C11.8162 4.00087 12.1656 3.47667 12.1531 2.69038C12.1407 2.04138 12.1531 1.40486 12.1531 0.755854C12.1531 0.431353 12.228 0.0444477 12.6274 0.119333C12.8146 0.156775 13.0393 0.518719 13.0892 0.768335C13.1641 1.13028 13.1017 1.51718 13.1017 1.89161Z" fill="black"/>
<path d="M16.4716 15.1337C16.4716 16.0448 16.4716 16.9559 16.4716 17.867C16.4716 18.2165 16.4466 18.5785 15.9848 18.5785C15.523 18.5785 15.498 18.2165 15.498 17.867C15.498 16.0573 15.498 14.2601 15.498 12.4504C15.498 12.1134 15.498 11.7265 15.9598 11.714C16.4591 11.689 16.4716 12.0884 16.4716 12.4629C16.4716 13.349 16.4716 14.2351 16.4716 15.1337Z" fill="black"/>
<path d="M24.6091 30.273C24.6091 29.8611 24.5592 29.4368 24.634 29.0374C24.6715 28.8252 24.9086 28.6505 25.0709 28.4633C25.2456 28.638 25.5451 28.8002 25.5576 28.9875C25.6075 29.8361 25.6075 30.6848 25.5576 31.5335C25.5451 31.7083 25.2706 31.8705 25.1208 32.0453C24.9585 31.8705 24.684 31.7207 24.6465 31.5211C24.5592 31.1092 24.6091 30.6848 24.6091 30.273Z" fill="black"/>
<path d="M9.43191 25.705C9.11989 25.68 8.79539 25.705 8.52081 25.6051C8.34608 25.5427 8.15887 25.2806 8.14639 25.0934C8.13391 24.9686 8.42097 24.719 8.58322 24.719C9.09493 24.7065 9.61913 24.7564 10.1184 24.8563C10.2681 24.8812 10.4803 25.1683 10.4678 25.3305C10.4553 25.4803 10.2182 25.68 10.0435 25.7424C9.86874 25.8048 9.64409 25.7299 9.43191 25.705C9.43191 25.6925 9.43191 25.6925 9.43191 25.705Z" fill="black"/>
<path d="M22.5498 25.68C22.3501 25.6925 22.1254 25.7798 21.9382 25.7174C21.7635 25.655 21.4889 25.4429 21.5014 25.3305C21.5263 25.1433 21.726 24.8687 21.8883 24.8313C22.3501 24.7315 22.8368 24.6815 23.2986 24.7065C23.4983 24.719 23.673 24.9811 23.8603 25.1308C23.7105 25.2931 23.5982 25.5427 23.411 25.6051C23.1489 25.705 22.8368 25.6675 22.5498 25.6925C22.5623 25.6925 22.5623 25.6925 22.5498 25.68Z" fill="black"/>
<path d="M9.7443 22.4974C9.89407 22.5847 10.0438 22.6222 10.1312 22.7095C10.4432 23.0465 10.7677 23.3835 11.0049 23.7704C11.0922 23.9202 10.9799 24.2072 10.9549 24.4194C10.7428 24.382 10.4557 24.4319 10.3184 24.3071C9.99392 24.02 9.71934 23.6706 9.46972 23.3211C9.36987 23.1838 9.36987 22.9342 9.40732 22.747C9.43228 22.6596 9.61949 22.5972 9.7443 22.4974Z" fill="black"/>
<path d="M22.7741 23.0716C22.2874 23.5833 21.8256 24.0576 21.3389 24.5194C21.2889 24.5568 21.0019 24.4445 20.9395 24.3322C20.8646 24.1949 20.8396 23.9328 20.927 23.8204C21.214 23.4211 21.5385 23.0341 21.888 22.6847C21.9879 22.5848 22.2375 22.5599 22.3997 22.6098C22.512 22.6348 22.5869 22.8345 22.7741 23.0716Z" fill="black"/>
<path d="M9.49503 28.0264C9.27038 27.8517 9.07069 27.7893 9.03324 27.6645C8.98332 27.5147 8.98332 27.2526 9.07069 27.1528C9.43263 26.7908 9.83202 26.4663 10.2564 26.1668C10.3562 26.1044 10.5933 26.1294 10.6932 26.2167C10.793 26.2916 10.9054 26.5787 10.8554 26.6286C10.4311 27.1029 9.9693 27.5397 9.49503 28.0264Z" fill="black"/>
<path d="M21.6137 25.9546C22.1005 26.4538 22.5622 26.9281 22.9991 27.4148C23.0365 27.4648 22.9117 27.7269 22.7994 27.8018C22.6871 27.8766 22.4499 27.8891 22.3626 27.8142C21.9632 27.5272 21.5763 27.2027 21.2268 26.8532C21.127 26.7534 21.102 26.5037 21.1519 26.354C21.1894 26.2292 21.3766 26.1543 21.6137 25.9546Z" fill="black"/>
<path d="M16.2094 25.4179C17.1704 25.7299 17.2453 25.9671 16.7086 26.7159C16.3966 27.1527 16.0971 27.6145 15.7351 28.0014C15.5978 28.1512 15.2858 28.1262 15.0612 28.1762C15.0487 27.939 14.9364 27.6645 15.0237 27.4772C15.1985 27.1153 15.4855 26.7908 15.6977 26.5037C15.4356 26.2916 15.0237 26.1168 14.9988 25.9047C14.9738 25.6176 15.1985 25.2681 15.3732 24.9811C15.6228 24.5817 15.8974 24.1698 16.2219 23.8328C16.3592 23.6831 16.6712 23.708 16.8958 23.6456C16.9208 23.8828 17.0331 24.1573 16.9458 24.3446C16.771 24.719 16.484 25.0435 16.2094 25.4179Z" fill="black"/>
</svg>
