<svg width="31" height="31" viewBox="0 0 31 31" fill="none" xmlns="http://www.w3.org/2000/svg">
<path d="M10.0635 17.3481C9.13105 16.5581 8.60006 15.5738 8.34104 14.4212C8.28924 14.2139 8.08202 13.9938 7.90071 13.8643C6.77398 13.139 6.24299 12.0641 6.13938 10.7819C6.07462 10.0696 6.48905 9.56455 7.14955 9.34438C7.00709 8.38601 6.74807 7.46649 6.73512 6.53402C6.68332 3.95678 8.32809 1.65151 10.7629 0.706088C13.2236 -0.252283 16.1246 0.369363 17.86 2.22135C18.8313 3.24448 19.1162 4.51367 19.0903 5.86057C19.0644 7.00026 18.9738 8.13994 18.909 9.27963C19.9969 9.74586 20.2948 10.3805 19.9581 11.5201C19.6472 12.5303 19.181 13.4369 18.1708 13.942C18.0154 14.0197 17.8989 14.2658 17.86 14.46C17.6398 15.4961 17.1866 16.4027 16.3965 17.1409C16.1246 17.3869 16.3059 18.5396 16.6556 18.6561C16.7851 18.695 17.0441 18.5396 17.1477 18.3971C18.391 16.843 19.984 15.9235 21.9266 15.5349C26.058 14.7061 30.3965 17.8143 30.9275 22.0104C31.4715 26.3231 28.9072 29.9494 24.6852 30.8171C24.1153 30.9336 23.5325 30.9595 22.9497 30.9595C16.1764 30.9725 9.39007 30.9725 2.61672 30.9595C1.47703 30.9595 0.842434 30.5192 0.79063 29.4054C0.699974 27.683 0.687023 25.9475 0.816532 24.225C0.933091 22.7227 1.89146 21.6867 3.13476 20.8966C4.74067 19.8735 6.56676 19.4202 8.35399 18.8892C9.54548 18.5266 9.54548 18.5396 10.0635 17.3481ZM8.72957 19.7311C8.52236 19.7829 8.35399 19.8217 8.19858 19.8735C6.50201 20.3657 4.79248 20.8189 3.32902 21.855C2.4095 22.5155 1.749 23.3703 1.6972 24.5229C1.61949 26.0511 1.65835 27.5923 1.68425 29.1205C1.6972 29.8328 1.95622 30.04 2.64262 30.04C8.04317 30.04 13.4308 30.04 18.8313 30.04C18.9997 30.04 19.181 30.0012 19.5048 29.9753C18.0672 29.1076 17.07 28.0585 16.3836 26.7246C15.6842 25.3777 15.477 23.9401 15.5288 22.4119C12.2911 23.9142 9.59729 22.3342 8.72957 19.7311ZM23.2994 30.0271C27.094 30.0012 30.1634 26.9188 30.1505 23.1372C30.1375 19.3555 27.0293 16.2991 23.2347 16.325C19.4141 16.3638 16.4095 19.4073 16.4354 23.2278C16.4354 26.9965 19.5307 30.053 23.2994 30.0271ZM10.1671 6.00303C9.33827 6.09369 8.96269 6.63763 8.82023 7.28518C8.63892 8.11404 8.58711 8.98176 8.50941 9.83652C8.44465 10.51 8.17268 10.7172 7.61579 10.4064C7.21431 10.1862 7.09775 10.3805 7.04595 10.7042C6.91644 11.4295 7.81005 12.9836 8.49645 13.1131C9.02744 13.2167 9.10515 13.5016 9.18286 13.9549C9.44188 15.522 10.1801 16.7782 11.8119 17.2186C14.0913 17.8402 16.6297 17.0243 17.0829 13.8125C17.1218 13.5793 17.342 13.2556 17.5492 13.1779C18.378 12.867 19.2458 11.6497 19.1551 10.756C19.1421 10.6006 19.0515 10.4323 18.9349 10.3287C18.8961 10.2898 18.6759 10.4064 18.5594 10.4841C18.0931 10.8078 17.7952 10.6913 17.7175 10.1473C17.6657 9.78472 17.6528 9.40914 17.5751 9.05946C17.3808 8.15289 17.1477 7.24633 16.9275 6.35271C16.8628 6.35271 16.811 6.35271 16.7462 6.33976C16.0728 7.38879 15.0626 7.67371 13.7934 7.58305C14.0265 7.84207 14.169 7.97158 14.2855 8.11404C14.6352 8.52847 14.5187 8.8911 13.9877 8.99471C12.589 9.25373 11.3068 8.60618 10.6981 7.29813C10.5039 6.89665 10.3614 6.46927 10.1671 6.00303ZM7.7971 7.34993C7.91366 7.07796 8.00432 6.79304 8.13383 6.53402C8.44465 5.88648 8.89793 5.39434 9.61024 5.18712C10.3873 4.96696 10.7888 5.13532 11.0996 5.87352C11.2809 6.28796 11.4104 6.71534 11.6176 7.12977C11.8637 7.6219 12.2652 7.95863 12.9127 8.02338C12.8091 7.81617 12.7185 7.67371 12.6537 7.53125C12.3688 6.89665 12.7314 6.46927 13.5214 6.61173C14.7906 6.8319 15.7749 6.54697 16.3188 5.26483C16.5131 4.81154 16.9146 4.81154 17.1995 5.25188C17.5233 5.75697 17.7952 6.28796 18.1449 6.9096C18.2744 5.14827 18.1708 3.5812 16.7333 2.41562C14.0006 0.162148 9.70089 1.06872 8.12088 4.2417C7.62874 5.22598 7.51218 6.26205 7.7971 7.34993ZM15.231 17.905C13.7804 18.4619 12.3299 18.423 10.9183 17.8791C10.5298 18.4878 10.1801 19.0447 9.7527 19.7311C10.0894 21.0262 11.4493 22.0752 13.0293 22.0881C14.8036 22.1011 15.8526 21.2981 16.2541 19.8088C15.8656 19.0835 15.5547 18.5266 15.231 17.905Z" fill="white"/>
<path d="M21.6675 21.8161C21.6675 21.1686 21.6675 20.6117 21.6675 20.0418C21.6675 19.485 21.8877 19.1871 22.4834 19.213C22.9626 19.2389 23.4289 19.2259 23.9081 19.213C24.439 19.2 24.6592 19.472 24.6592 19.9641C24.6592 20.5469 24.6592 21.1297 24.6592 21.8161C25.2679 21.8161 25.8377 21.842 26.4076 21.8161C26.9774 21.7902 27.2494 22.0363 27.2494 22.6061C27.2365 23.0853 27.2494 23.5516 27.2494 24.0307C27.2494 24.5617 27.0163 24.8208 26.4594 24.8078C25.8895 24.7819 25.3068 24.8078 24.6592 24.8078C24.6592 25.4554 24.6463 26.0252 24.6592 26.608C24.6851 27.2037 24.439 27.5016 23.8303 27.4757C23.403 27.4627 22.9626 27.4627 22.5352 27.4757C21.9395 27.5016 21.6546 27.2426 21.6675 26.6339C21.6805 26.0511 21.6675 25.4813 21.6675 24.8208C21.02 24.8208 20.4113 24.8078 19.8155 24.8208C19.2328 24.8337 18.9867 24.5747 19.0126 23.9919C19.0255 23.5386 19.0255 23.0853 19.0126 22.632C18.9996 22.0492 19.2716 21.8161 19.8414 21.8291C20.4113 21.8291 20.9941 21.8161 21.6675 21.8161ZM23.7397 26.5044C23.7397 25.8568 23.7526 25.2999 23.7397 24.743C23.7267 24.1603 23.9728 23.8624 24.5945 23.8883C25.1513 23.9142 25.7082 23.8883 26.291 23.8883C26.291 23.4739 26.291 23.1242 26.291 22.7227C25.6953 22.7227 25.1384 22.7097 24.5815 22.7227C23.9987 22.7486 23.7397 22.4766 23.7526 21.9197C23.7526 21.3499 23.7526 20.7671 23.7526 20.1843C23.3253 20.1843 22.9756 20.1843 22.5871 20.1843C22.5871 20.793 22.5741 21.3499 22.5871 21.9197C22.6 22.4766 22.3669 22.7616 21.7711 22.7356C21.1754 22.7097 20.5797 22.7356 19.971 22.7356C19.971 23.163 19.971 23.5127 19.971 23.9012C20.5926 23.9012 21.1754 23.9271 21.7452 23.9012C22.3669 23.8753 22.6 24.1732 22.5871 24.756C22.5741 25.3258 22.5871 25.9086 22.5871 26.5173C22.9885 26.5044 23.3253 26.5044 23.7397 26.5044Z" fill="white"/>
</svg>
