<svg width="21" height="21" viewBox="0 0 21 21" fill="none" xmlns="http://www.w3.org/2000/svg">
<g clip-path="url(#clip0_68_8)">
<path d="M19.0546 13.346C19.0372 13.3226 19.0183 13.3009 18.9982 13.28C18.4168 12.553 17.3658 12.407 16.6329 12.9571C15.5766 13.7356 13.7696 15.0456 13.1664 15.4828L10.5317 15.2762L12.1438 14.9234C13.0072 14.7977 13.6263 14.0358 13.5889 13.1365C13.5887 13.127 13.588 13.1175 13.5871 13.1082C13.5122 12.2095 12.7821 11.532 11.8889 11.532H7.01361C6.61748 11.532 6.24787 11.6334 5.91498 11.8331C5.90162 11.8413 5.88846 11.8497 5.87553 11.8587L0.682792 15.4869C0.374863 15.7021 0.299589 16.1263 0.514745 16.434C0.729706 16.7422 1.1542 16.8177 1.46189 16.602L6.63287 12.9891C6.74807 12.924 6.87279 12.892 7.01381 12.892H11.8891C12.07 12.892 12.2083 13.0208 12.2301 13.2067C12.2317 13.3705 12.1435 13.5523 11.9408 13.5777C11.9204 13.5802 11.9 13.5836 11.8798 13.5882L8.97728 14.2231C8.75076 14.2727 8.56506 14.4342 8.48455 14.6516C8.40404 14.8693 8.43986 15.1128 8.57979 15.2979L9.35076 16.3183C9.46799 16.4736 9.64623 16.5713 9.84033 16.5865L13.3097 16.8586C13.4703 16.8702 13.631 16.826 13.7616 16.7314C13.7854 16.7142 16.1598 14.9956 17.4444 14.0489C17.5911 13.9389 17.8244 13.9806 17.943 14.1393C17.9562 14.1568 17.9703 14.1738 17.985 14.1897C18.0763 14.3391 18.0414 14.5307 17.8965 14.6393L13.295 18.1077C13.1596 18.2091 13.0186 18.2476 12.8574 18.2263L6.14533 17.3873C5.96213 17.3644 5.77799 17.4168 5.63424 17.5324L3.07189 19.5961C2.77916 19.8319 2.7331 20.2603 2.96873 20.5528C3.10299 20.7197 3.30002 20.8063 3.49889 20.8063C3.64877 20.8063 3.79955 20.7571 3.92498 20.6562L6.26264 18.7734L12.6828 19.5759C13.1949 19.6442 13.6883 19.5129 14.1121 19.1954L18.7144 15.7272C19.4646 15.1644 19.6172 14.0964 19.0546 13.346Z" fill="white"/>
<path d="M12.9996 3.16479C12.6239 3.16479 12.3193 3.46933 12.3193 3.84507V7.92671C12.3193 8.30245 12.6239 8.60698 12.9996 8.60698C13.3754 8.60698 13.6799 8.30245 13.6799 7.92671V3.84507C13.6799 3.46933 13.3754 3.16479 12.9996 3.16479Z" fill="white"/>
<path d="M15.0405 5.20532H10.9588C10.5831 5.20532 10.2786 5.50985 10.2786 5.88559C10.2786 6.26134 10.5831 6.56587 10.9588 6.56587H15.0405C15.4162 6.56587 15.7208 6.26134 15.7208 5.88559C15.7208 5.50985 15.4162 5.20532 15.0405 5.20532Z" fill="white"/>
<path d="M12.9996 0.806396C10.1987 0.806396 7.92041 3.08487 7.92041 5.88577C7.92041 8.68667 10.1987 10.9651 12.9996 10.9651C15.8002 10.9651 18.0789 8.68671 18.0789 5.88577C18.0789 3.08483 15.8004 0.806396 12.9996 0.806396ZM12.9996 9.6046C10.949 9.6046 9.28096 7.93636 9.28096 5.88577C9.28096 3.83519 10.949 2.16694 12.9996 2.16694C15.0501 2.16694 16.7184 3.83519 16.7184 5.88577C16.7184 7.93636 15.0501 9.6046 12.9996 9.6046Z" fill="white"/>
</g>
<defs>
<clipPath id="clip0_68_8">
<rect width="20" height="20" fill="white" transform="translate(0.185059 0.828003)"/>
</clipPath>
</defs>
</svg>
