<svg width="84" height="79" viewBox="0 0 84 79" fill="none" xmlns="http://www.w3.org/2000/svg">
<path d="M36.1012 44.6442C33.8754 44.6442 31.7886 44.6094 29.7367 44.6442C28.3455 44.679 27.7195 44.0877 27.7543 42.6966C27.7891 40.2621 27.7891 37.8275 27.7543 35.393C27.7543 34.0714 28.3108 33.4802 29.6324 33.515C31.7191 33.5498 33.771 33.515 36.1012 33.515C36.1012 31.3587 36.136 29.3067 36.1012 27.22C36.0664 25.7593 36.6577 25.0985 38.1532 25.1333C40.5181 25.2028 42.9179 25.168 45.2828 25.1333C46.674 25.0985 47.3 25.7245 47.2652 27.1157C47.2305 29.1676 47.2652 31.2543 47.2652 33.515C49.4911 33.515 51.5778 33.5498 53.6298 33.515C55.0209 33.4802 55.6469 34.0714 55.6122 35.4626C55.5774 37.8971 55.5774 40.3316 55.6122 42.7661C55.6122 44.0877 55.0557 44.679 53.7341 44.6442C51.6474 44.6094 49.5954 44.6442 47.2652 44.6442C47.2652 46.8005 47.2305 48.8524 47.2652 50.9392C47.3 52.3999 46.7088 53.0607 45.2133 53.0259C42.8483 52.9564 40.4486 52.9911 38.0836 53.0259C36.6925 53.0607 36.0664 52.4347 36.1012 51.0435C36.136 48.922 36.1012 46.87 36.1012 44.6442ZM52.7603 36.2973C50.604 36.2973 48.5868 36.2277 46.5697 36.3321C44.9698 36.4016 44.3786 35.706 44.4482 34.141C44.5177 32.1238 44.4829 30.1066 44.4829 28.0895C42.5353 28.0895 40.7964 28.0895 38.9183 28.0895C38.9183 30.211 38.8835 32.2282 38.9183 34.2453C38.9531 35.706 38.3619 36.3668 36.8664 36.3321C34.8144 36.2625 32.7277 36.3321 30.6757 36.3321C30.6757 38.3145 30.6757 40.0534 30.6757 41.8967C32.7625 41.8967 34.7449 41.9662 36.6925 41.8619C38.3619 41.7923 38.9879 42.5227 38.9183 44.1225C38.8488 46.1397 38.8835 48.1221 38.8835 50.0697C40.9007 50.0697 42.6397 50.0697 44.4482 50.0697C44.4482 47.9482 44.5177 46.0006 44.4482 44.0182C44.3786 42.4531 45.0046 41.7923 46.6044 41.8619C48.6564 41.9315 50.7083 41.8967 52.7951 41.8967C52.7603 39.9143 52.7603 38.2101 52.7603 36.2973Z" fill="black" fill-opacity="0.9"/>
<path d="M43.9959 0.127267C44.4481 0.127267 44.935 0.162046 45.3871 0.127267C51.5777 -0.463973 57.2815 1.03152 62.707 4.05728C66.0805 5.93534 69.4888 7.91773 73.4536 8.26552C75.9925 8.47419 78.5313 8.43941 81.105 8.47419C82.1831 8.47419 83.4004 8.43941 83.3656 9.90013C83.3308 11.2565 82.2179 11.1869 81.1745 11.2565C74.3927 11.813 68.1672 10.3175 62.1505 7.04826C58.9856 5.30932 55.5425 3.88338 52.0646 3.11825C49.0041 2.45745 45.6653 3.22259 42.5352 2.84002C35.8229 2.00533 30.3626 5.41365 24.5546 7.67428C24.2068 7.8134 23.7894 8.75242 23.9633 8.99588C24.485 9.79579 25.111 10.8392 25.9109 11.1174C26.9195 11.4652 28.2063 11.2565 29.3193 11.0478C30.8495 10.7696 32.345 10.2827 33.8057 9.79579C34.8143 9.448 35.6838 9.6219 35.8577 10.6305C35.9272 11.1522 35.2664 12.1955 34.7448 12.3346C32.032 13.0302 29.2497 13.8301 26.5022 14.004C23.0938 14.1779 20.9376 11.5347 21.1462 8.16118C21.2158 6.77003 21.807 5.76144 23.1634 5.20498C27.0586 3.60515 30.9539 1.97055 34.8839 0.405498C35.4056 0.196825 35.9968 0.162046 36.5533 0.127267C39.0226 0.0924885 41.5266 0.127267 43.9959 0.127267Z" fill="black" fill-opacity="0.9"/>
<path d="M39.4051 78.0318C39.2312 78.0318 39.0573 78.0318 38.8834 78.0318C32.032 78.6926 25.7718 77.0232 19.755 73.6845C16.7293 72.0151 13.321 70.7978 9.94741 69.9631C7.58245 69.3719 5.00881 69.7197 2.50473 69.6849C1.42659 69.6501 0.0354342 69.9283 0.000655332 68.3285C-0.0341235 66.7287 1.32225 66.9721 2.43518 66.8678C9.18227 66.2766 15.4425 67.7025 21.2158 71.1804C26.6413 74.4844 32.4841 75.806 38.8139 75.2147C39.892 75.1104 41.0397 75.0756 42.1179 75.2147C48.4128 76.0494 53.3862 72.3629 58.8465 70.3805C59.1595 70.2761 59.5073 69.3023 59.3682 69.0241C58.916 68.2242 58.29 67.2504 57.5249 67.0069C56.4815 66.6939 55.2295 66.833 54.1166 67.0417C52.5863 67.3199 51.0908 67.8068 49.6301 68.2937C48.6563 68.6067 47.8564 68.6067 47.4738 67.5982C47.0564 66.52 47.752 65.9288 48.6911 65.7201C51.5081 65.1289 54.2905 64.2942 57.1423 64.1551C60.2724 63.9812 62.3244 66.5548 62.2548 69.7197C62.22 71.3543 61.5245 72.4672 59.9942 73.0584C56.2381 74.5887 52.5167 76.1538 48.7606 77.6492C48.1346 77.8927 47.4042 77.997 46.7434 77.997C44.2741 78.0318 41.8396 78.0318 39.4051 78.0318Z" fill="black" fill-opacity="0.9"/>
<path d="M41.8395 68.0504C42.2916 65.9637 41.5613 64.4334 40.1353 63.3205C39.0572 62.4858 37.8052 61.8598 36.5531 61.3033C34.2925 60.2947 31.9623 59.3905 29.7017 58.4167C29.1452 58.1732 28.4496 57.8254 28.241 57.3385C26.2238 52.6781 20.6244 51.1131 15.4424 52.1912C13.2513 52.6434 11.0254 52.852 8.7996 52.9911C6.50419 53.1303 4.17401 53.1303 1.84383 52.9564C1.18303 52.9216 0.139663 52.1912 0.0701053 51.6696C-0.138568 50.4871 0.870019 50.2436 1.91338 50.2436C7.06066 50.2784 12.1384 50.1045 17.2509 49.235C22.5372 48.296 26.9889 50.3827 30.119 54.9388C30.4668 55.4604 31.0581 55.9474 31.6493 56.1908C34.0838 57.269 36.5531 58.208 38.9876 59.3209C41.7004 60.5729 44.1001 62.3467 44.5523 65.5115C44.7957 67.0766 44.3784 68.8155 44.0306 70.4154C43.8219 71.3892 42.9524 71.7022 41.9438 71.25C36.8314 69.1285 31.7189 67.007 26.6064 64.8507C25.7021 64.4682 25.0761 63.9117 25.5978 62.8683C26.0847 61.8598 26.9194 61.9641 27.8236 62.3467C31.9275 64.0508 36.0314 65.755 40.1353 67.4592C40.6222 67.633 41.1439 67.8069 41.8395 68.0504Z" fill="black" fill-opacity="0.9"/>
<path d="M43.2656 10.7347C42.3613 10.3522 41.3875 11.1521 41.5266 12.0911C41.7701 13.6561 42.7091 14.8039 44.5524 15.7777C46.9174 16.9949 49.3867 17.9339 51.8559 18.9425C53.5601 19.6381 54.9165 20.5076 56.0642 22.2117C58.7769 26.3157 63.0895 26.9764 67.5064 25.9679C70.254 25.3418 72.9667 25.168 75.7142 25.168C77.7314 25.168 79.7834 25.0636 81.8005 25.2375C82.044 25.2723 82.2874 25.4462 82.4961 25.6549C83.0178 26.1765 82.9482 27.046 82.3918 27.5329C82.2179 27.672 82.0092 27.8111 81.8005 27.8807C81.2441 28.0894 80.5485 27.9503 79.9225 27.9155C75.2273 27.7764 70.6365 28.2285 65.9762 28.9588C60.7593 29.7935 56.3424 27.7416 53.2471 23.2551C52.8645 22.6987 52.2037 22.177 51.5429 21.8987C49.178 20.8206 46.7435 19.9163 44.3785 18.8382C41.5962 17.5514 39.3008 15.7429 38.6748 12.4389C38.5356 11.7433 38.5009 11.013 38.5704 10.3174C38.7791 6.80472 39.8225 6.28303 43.2308 7.67419C47.5086 9.44791 51.7516 11.1869 56.0294 12.9606C56.2381 13.0649 56.4468 13.1692 56.6554 13.2388C57.5249 13.6214 58.2205 14.1431 57.7336 15.2212C57.2814 16.2298 56.4468 16.195 55.5425 15.8124C51.5082 14.1431 47.4043 12.4389 43.2656 10.7347Z" fill="black" fill-opacity="0.9"/>
<path d="M12.4165 39.9143C12.5208 32.889 14.2598 27.2896 17.7724 22.2814C18.3289 21.4815 18.9549 20.5077 20.1374 21.3076C21.2851 22.1075 20.6591 23.0118 20.1026 23.8465C15.8596 29.9328 14.4337 36.6799 15.7205 43.9486C15.8944 44.992 15.8944 45.8962 14.7467 46.1745C13.5294 46.4527 13.1469 45.5137 13.0077 44.5399C12.7295 42.6966 12.5208 40.8881 12.4165 39.9143Z" fill="black" fill-opacity="0.9"/>
<path d="M71.0191 38.9752C71.0191 39.0447 71.0191 39.1491 71.0191 39.2186C70.7756 45.444 68.9671 51.113 65.3501 56.1559C64.7937 56.9211 64.1677 57.5471 63.1939 56.9211C62.1505 56.2255 62.4287 55.3908 63.0895 54.5561C63.1939 54.417 63.2634 54.2779 63.3677 54.1388C66.8109 49.1654 68.3411 43.6355 68.0281 37.584C67.9586 36.3668 67.576 35.1843 67.6455 33.967C67.6455 33.8627 67.6803 33.7236 67.7151 33.6192C68.0629 32.6454 69.3497 32.3324 70.0453 33.1323C70.1496 33.2367 70.1844 33.341 70.2192 33.4453C70.6365 35.2538 70.7756 37.0971 71.0191 38.9752Z" fill="black" fill-opacity="0.9"/>
<path d="M22.5723 17.6906C23.1287 16.8211 24.4503 16.8211 24.972 17.6906C25.0764 17.8297 25.1111 17.9688 25.0764 18.108C24.972 18.6644 24.2764 19.4296 23.72 19.5339C23.2679 19.6035 22.2593 18.8035 22.2593 18.3862C22.3288 18.1427 22.4332 17.9341 22.5723 17.6906Z" fill="black" fill-opacity="0.9"/>
<path d="M60.5857 58.9035C61.2813 59.4947 61.2118 60.6077 60.4119 61.0598C60.1684 61.1989 59.9597 61.2685 59.7511 61.2685C59.6119 61.2685 59.4728 61.1989 59.3685 61.0946C58.7425 60.6077 58.7425 59.6686 59.3337 59.1469C59.5772 58.9383 59.8206 58.7644 60.0641 58.6948C60.2032 58.6253 60.3771 58.7296 60.5857 58.9035Z" fill="black" fill-opacity="0.9"/>
</svg>
