<svg width="34" height="30" viewBox="0 0 34 30" fill="none" xmlns="http://www.w3.org/2000/svg">
<path d="M21.8145 16.7231C22.9333 17.0383 24.052 17.3376 25.155 17.6528C28.1331 18.5037 29.6773 20.5521 29.6773 23.6562C29.6773 25.3895 29.6773 27.1228 29.6773 28.8561C29.6773 29.833 29.5355 29.9748 28.6058 29.9748C21.0109 29.9748 13.4318 29.9748 5.83684 29.9748C4.93869 29.9748 4.79688 29.833 4.79688 28.9033C4.79688 27.1228 4.79688 25.3265 4.79688 23.5459C4.79688 20.6151 6.37258 18.5037 9.1931 17.6843C10.3276 17.3534 11.4621 17.0698 12.6912 16.7231C11.3833 14.8953 10.7531 12.9572 11.3518 10.7827C11.73 9.38031 12.5336 8.27731 13.6996 7.42643C16.0159 5.75618 19.1831 5.96102 21.3261 7.88339C23.7369 10.0579 23.9102 12.9572 21.8145 16.7231ZM10.7373 28.6355C15.1178 28.6355 19.3722 28.6355 23.7054 28.6355C23.7054 28.084 23.7054 27.5955 23.7054 27.107C23.7054 26.1301 23.6581 25.1689 23.7369 24.192C23.7527 23.9399 24.1623 23.735 24.3987 23.4987C24.6035 23.735 24.9029 23.9399 24.966 24.2077C25.0605 24.5701 24.9975 24.9956 24.9975 25.3738C24.9975 26.461 24.9975 27.564 24.9975 28.6197C26.195 28.6197 27.2507 28.6197 28.3695 28.6197C28.3695 26.8864 28.3695 25.2004 28.3695 23.5302C28.3695 21.1981 27.1877 19.6067 24.9502 18.9449C23.6739 18.5667 22.3818 18.22 21.0897 17.9049C20.8218 17.8419 20.4594 17.9049 20.2231 18.0467C18.2219 19.197 16.2523 19.2127 14.2511 18.0467C14.0305 17.9207 13.6996 17.8261 13.4475 17.8891C12.0451 18.2358 10.6585 18.5982 9.28765 19.0394C7.74345 19.5279 6.43561 20.5206 6.26228 22.1436C6.04168 24.2865 6.19926 26.461 6.19926 28.6512C7.22347 28.6512 8.29495 28.6512 9.42946 28.6512C9.42946 28.2888 9.42946 27.9894 9.42946 27.6743C9.42946 26.524 9.39794 25.358 9.46097 24.2077C9.47673 23.9556 9.82339 23.735 10.0282 23.4987C10.2646 23.735 10.5482 23.9241 10.7058 24.192C10.8161 24.3653 10.7373 24.6489 10.7373 24.8853C10.7531 26.1143 10.7373 27.3434 10.7373 28.6355ZM22.0194 12.5317C22.0824 9.91605 20.0182 7.6943 17.4183 7.59976C14.7238 7.50522 12.4863 9.61667 12.4391 12.3269C12.376 15.0686 14.5505 17.5267 17.1189 17.6213C19.6401 17.7001 21.9406 15.305 22.0194 12.5317Z" fill="black"/>
<path d="M5.52209 4.25916C4.48212 3.23494 3.55246 2.30528 2.62279 1.39136C2.26037 1.04471 1.91372 0.666539 2.38643 0.193826C2.82763 -0.231616 3.19004 0.130797 3.52094 0.445939C4.70272 1.62772 5.91602 2.8095 7.06629 4.0228C7.27113 4.2434 7.47597 4.65308 7.39719 4.88944C7.3184 5.11004 6.90872 5.28337 6.60933 5.37791C6.04208 5.53548 5.44331 5.59851 4.68697 5.74032C5.66391 6.71726 6.56206 7.5839 7.44446 8.4663C7.61778 8.63963 7.8699 8.78144 7.91717 8.98628C7.99596 9.26991 8.01171 9.66384 7.8699 9.86868C7.77536 9.99474 7.22386 10.0263 7.06629 9.88444C5.64815 8.52933 4.24577 7.1427 2.89066 5.72457C2.48097 5.29912 2.71733 4.76338 3.34761 4.63733C4.00941 4.49551 4.68697 4.40097 5.52209 4.25916Z" fill="black"/>
<path d="M29.7881 5.74024C28.953 5.59842 28.3227 5.50388 27.6767 5.37783C26.9203 5.23601 26.7313 4.70027 27.267 4.14877C28.5276 2.85669 29.8197 1.58037 31.096 0.304041C31.4111 -0.0111005 31.7735 -0.137157 32.1202 0.225256C32.4668 0.603426 32.2935 0.950082 31.9784 1.24947C31.0172 2.21065 30.0403 3.15608 28.953 4.24331C29.6936 4.36937 30.3081 4.44816 30.8754 4.60573C31.1748 4.68451 31.5372 4.8736 31.6475 5.10996C31.742 5.29904 31.5372 5.70872 31.3481 5.91357C30.1033 7.18989 28.8427 8.45046 27.5821 9.71103C27.267 10.0262 26.9046 10.294 26.5107 9.88435C26.1325 9.49043 26.3216 9.12801 26.6682 8.79711C27.6767 7.82017 28.6694 6.85899 29.7881 5.74024Z" fill="black"/>
<path d="M30.6543 11.476C31.4737 11.6178 32.1197 11.7124 32.75 11.8542C33.5063 12.0117 33.6797 12.5317 33.1439 13.0832C31.8676 14.3911 30.544 15.6832 29.2519 16.991C28.9368 17.3061 28.5113 17.4795 28.2435 17.0855C28.1017 16.8649 28.1804 16.2977 28.3695 16.0928C29.3307 15.0529 30.3549 14.0759 31.4737 12.9729C30.7331 12.8469 30.1343 12.7838 29.5671 12.6263C29.2677 12.5475 28.858 12.3742 28.7634 12.1378C28.6847 11.9172 28.8737 11.4918 29.0786 11.2712C30.2604 10.0421 31.4737 8.84457 32.687 7.63128C33.0021 7.30038 33.3645 7.04826 33.7742 7.42643C34.2154 7.85188 33.9318 8.23005 33.5851 8.5767C32.6554 9.49061 31.7258 10.4203 30.6543 11.476Z" fill="black"/>
<path d="M3.0009 12.9414C4.07239 14.0129 5.03357 14.9741 6.01051 15.9353C6.35716 16.2662 6.65655 16.6444 6.23111 17.0698C5.80567 17.4952 5.4275 17.1801 5.0966 16.8492C3.8833 15.6201 2.63849 14.4068 1.44095 13.162C1.23611 12.9414 1.01551 12.5318 1.09429 12.3112C1.17308 12.0906 1.58276 11.9172 1.88215 11.8227C2.4494 11.6651 3.04817 11.6021 3.83603 11.4603C2.84333 10.4991 1.97669 9.64821 1.09429 8.78157C0.952481 8.63975 0.716125 8.49794 0.668853 8.32461C0.621582 8.04098 0.574311 7.66281 0.716125 7.44221C0.79491 7.31616 1.36217 7.3004 1.51974 7.44221C2.90636 8.76581 4.26147 10.1052 5.58507 11.4918C6.01051 11.9487 5.72688 12.4687 5.03357 12.5948C4.41904 12.7208 3.773 12.8154 3.0009 12.9414Z" fill="black"/>
</svg>
