<svg width="76" height="76" viewBox="0 0 76 76" fill="none" xmlns="http://www.w3.org/2000/svg">
<path d="M50.6456 29.4183C50.6456 24.9217 50.6456 20.4883 50.6456 16.055C50.6456 11.6217 50.6456 7.18833 50.6456 2.66C34.6289 2.66 18.6756 2.66 2.62724 2.66C2.62724 26.1883 2.62724 49.7483 2.62724 73.4983C3.22865 73.4983 3.86172 73.4983 4.46314 73.4983C18.454 73.4983 32.4132 73.5617 46.404 73.435C48.778 73.4033 50.2657 74.5117 52.2282 76.0317C51.3419 76.0317 50.8355 76.0317 50.329 76.0317C34.4073 76.0317 18.454 76.0317 2.53228 76.0317C0.0949605 76.0317 0 75.9367 0 73.5617C0 49.8433 0 26.1567 0 2.47C0 0.0950001 0.0949605 0 2.53228 0C18.6122 0 34.7239 0 50.8038 0C53.0829 0 53.2095 0.126667 53.2095 2.43833C53.2095 10.45 53.1462 18.4933 53.2728 26.505C53.2728 28.3733 52.6714 29.2283 50.6456 29.4183Z" fill="black"/>
<path d="M40.5164 43.9534C40.5164 41.3567 40.548 38.7917 40.4847 36.195C40.453 34.9284 40.8329 34.295 42.2256 34.1367C47.4485 33.5034 52.3864 31.9517 57.1028 29.6083C57.7358 29.2917 58.7804 29.2917 59.4135 29.6083C64.1299 31.9517 69.0678 33.4717 74.2906 34.1367C75.5568 34.295 75.9999 34.8334 75.9999 36.0684C75.9683 41.1984 76.0316 46.2967 75.9683 51.4267C75.81 61.6234 68.6246 72.01 59.1919 75.6834C58.6221 75.905 57.7992 75.905 57.261 75.6517C47.9866 71.4084 42.3206 64.315 40.8962 54.2134C40.4214 50.8567 40.8329 47.3734 40.8329 43.9534C40.7379 43.9534 40.643 43.9534 40.5164 43.9534ZM43.0803 36.6067C43.0803 41.8 42.7638 46.8984 43.1436 51.9334C43.8716 61.4334 48.6513 68.4634 57.1344 72.8334C57.7042 73.1184 58.6221 73.1817 59.1603 72.8967C67.0103 68.97 71.9166 62.7 73.0245 53.9917C73.6575 49.115 73.3094 44.1117 73.4043 39.14C73.436 38.3167 73.4043 37.4934 73.4043 36.6067C68.1815 35.8783 63.3702 34.39 58.8121 32.1733C58.4639 32.015 57.8625 32.0467 57.4826 32.2367C52.9878 34.39 48.2398 35.8467 43.0803 36.6067Z" fill="black"/>
<path d="M26.589 5.0667C30.9255 5.0667 35.2304 5.0667 39.5669 5.0667C41.6244 5.0667 41.7827 5.2567 41.7827 7.3467C41.7827 9.3417 41.751 11.3684 41.7827 13.3634C41.8143 14.63 41.3079 15.2 40.0101 15.2C31.0838 15.2 22.1259 15.2 13.1363 15.2C11.8385 15.2 11.332 14.63 11.3637 13.3634C11.3953 11.21 11.427 9.02503 11.3637 6.8717C11.332 5.47837 11.9651 5.03503 13.2946 5.03503C17.726 5.09837 22.1575 5.0667 26.589 5.0667ZM39.1238 12.635C39.1238 10.9884 39.1238 9.3417 39.1238 7.69503C30.704 7.69503 22.3791 7.69503 14.0542 7.69503C14.0542 9.40503 14.0542 11.02 14.0542 12.635C22.4424 12.635 30.7356 12.635 39.1238 12.635Z" fill="black"/>
<path d="M22.3472 19C21.0178 20.5833 19.9416 21.755 17.7891 21.565C14.9087 21.3433 11.9966 21.5333 8.98948 21.5333C8.98948 25.745 8.98948 29.8616 8.98948 34.105C13.1044 34.105 17.251 34.105 21.5559 34.105C21.3027 31.8566 21.4926 29.735 24.0249 28.5633C24.0249 30.97 24.0882 33.4083 23.9616 35.815C23.9299 36.1316 23.0436 36.7016 22.5372 36.7016C17.6942 36.765 12.8196 36.7333 7.97657 36.7333C6.83704 36.7333 6.36224 36.195 6.36224 35.0866C6.36224 30.2733 6.33059 25.4916 6.42555 20.6783C6.42555 20.1083 7.21689 19.095 7.62838 19.095C12.4397 18.9683 17.251 19 22.3472 19Z" fill="black"/>
<path d="M21.6194 55.6383C21.1446 53.2317 21.6511 51.2683 24.0568 50.0333C24.0568 52.4083 24.1517 54.72 23.9935 57C23.9618 57.4433 23.0755 58.2033 22.5374 58.2033C17.6311 58.2983 12.7248 58.2667 7.81852 58.2667C6.74231 58.2667 6.33081 57.665 6.33081 56.6517C6.33081 51.8067 6.33081 46.93 6.33081 42.085C6.33081 41.135 6.74231 40.5333 7.72356 40.5333C12.5032 40.5333 17.2829 40.5333 22.2842 40.5333C21.0497 42.275 19.8152 43.2567 17.6628 43.0983C14.7823 42.8767 11.9018 43.035 8.9264 43.035C8.9264 47.2783 8.9264 51.395 8.9264 55.6067C13.073 55.6383 17.188 55.6383 21.6194 55.6383Z" fill="black"/>
<path d="M37.8891 64.5367C31.1469 64.5367 24.5313 64.5367 17.8208 64.5367C17.8208 63.745 17.8208 63.0167 17.8208 62.1934C24.468 62.1934 31.1153 62.1934 37.8891 62.1934C37.8891 62.9217 37.8891 63.6817 37.8891 64.5367Z" fill="black"/>
<path d="M25.5759 19.38C26.3356 20.0767 26.8737 20.5517 27.5068 21.1217C24.0249 24.605 20.7013 27.9617 17.3143 31.255C16.9978 31.54 16.0165 31.5717 15.6684 31.3183C14.3073 30.1783 13.1044 28.88 11.7117 27.5183C12.3764 26.885 12.9145 26.41 13.5476 25.8083C14.5288 26.7267 15.4468 27.6133 16.4597 28.5633C19.4984 25.4917 22.4739 22.4517 25.5759 19.38Z" fill="black"/>
<path d="M25.5759 40.8817C26.2723 41.6417 26.7471 42.18 27.3168 42.8134C24.0249 46.1067 20.7013 49.495 17.3143 52.7567C16.9978 53.0417 16.0165 53.0734 15.6684 52.82C14.3073 51.68 13.1044 50.3817 11.7117 49.02C12.3764 48.3867 12.9145 47.9117 13.5159 47.31C14.4972 48.2284 15.4468 49.115 16.428 50.065C19.4984 47.025 22.4739 44.0167 25.5759 40.8817Z" fill="black"/>
<path d="M30.4507 23.9716C30.4507 23.1483 30.4507 22.42 30.4507 21.6283C35.9267 21.6283 41.3078 21.6283 46.7522 21.6283C46.7522 22.42 46.7522 23.1483 46.7522 23.9716C41.3711 23.9716 35.99 23.9716 30.4507 23.9716Z" fill="black"/>
<path d="M30.4189 30.2733C30.4189 29.4816 30.4189 28.785 30.4189 27.9933C35.8317 27.9933 41.2128 27.9933 46.7205 27.9933C46.7205 28.69 46.7205 29.45 46.7205 30.2733C41.3077 30.2733 35.895 30.2733 30.4189 30.2733Z" fill="black"/>
<path d="M37.8892 69.6033C35.0087 69.6033 32.1916 69.6033 29.2478 69.6033C29.2478 68.875 29.2478 68.115 29.2478 67.26C32.065 67.26 34.9454 67.26 37.8892 67.26C37.8892 68.02 37.8892 68.78 37.8892 69.6033Z" fill="black"/>
<path d="M37.9207 43.1934C37.9207 43.985 37.9207 44.7134 37.9207 45.505C35.4201 45.505 32.9828 45.505 30.4822 45.505C30.4822 44.745 30.4822 44.0167 30.4822 43.1934C32.8878 43.1934 35.3252 43.1934 37.9207 43.1934Z" fill="black"/>
<path d="M30.4507 51.8699C30.4507 51.0466 30.4507 50.3499 30.4507 49.5266C32.9197 49.5266 35.357 49.5266 37.8893 49.5266C37.8893 50.2866 37.8893 51.0466 37.8893 51.8699C35.4519 51.8699 33.0463 51.8699 30.4507 51.8699Z" fill="black"/>
<path d="M68.4665 42.1167C69.3844 42.8767 69.9225 43.3517 70.7455 44.0167C69.6377 45.03 68.688 45.8217 67.8018 46.7084C63.8767 50.6034 59.9517 54.53 56.0583 58.4567C54.6023 59.9134 54.3807 59.9134 52.8613 58.425C50.5823 56.1767 48.3032 53.8967 45.9292 51.5217C46.6256 50.92 47.1953 50.445 47.7018 50.0017C49.8542 52.155 51.975 54.34 54.1274 56.4934C59.0337 51.585 63.7501 46.8667 68.4665 42.1167Z" fill="black"/>
</svg>
