<svg width="37" height="29" viewBox="0 0 37 29" fill="none" xmlns="http://www.w3.org/2000/svg">
<path d="M0 15.0113C1.51592 12.4065 3.02218 9.79208 4.5381 7.18729C4.92432 6.52162 5.30089 5.85595 5.69676 5.19028C5.96712 4.72721 6.2761 4.65003 6.74922 4.91051C6.97129 5.03592 7.19337 5.15169 7.40579 5.28675C7.69546 5.47005 7.78236 5.76912 7.63753 6.0296C7.49269 6.29973 7.17406 6.37691 6.85543 6.2129C6.73956 6.15502 6.62369 6.08749 6.47886 6.01031C4.74087 9.02029 3.01253 12.011 1.25522 15.0499C2.27871 15.648 3.29254 16.2269 4.32568 16.825C6.07333 13.8054 7.80167 10.8051 9.54932 7.78542C9.37552 7.6793 9.21138 7.59248 9.06654 7.48635C8.82516 7.30305 8.74791 7.06187 8.9024 6.79174C9.03758 6.53127 9.3369 6.43479 9.61691 6.56985C9.91623 6.72421 10.2156 6.88822 10.4956 7.07152C10.8625 7.3127 10.8818 7.59248 10.5825 8.20991C11.3549 8.63439 12.0694 9.18429 12.9674 9.35794C13.2667 9.41583 13.5177 9.39653 13.7881 9.23253C14.7923 8.63439 15.7965 8.0459 16.8199 7.47671C17.9786 6.83033 19.1566 6.82069 20.3346 7.43812C20.7208 7.64071 20.8366 7.92049 20.6918 8.21955C20.5277 8.53792 20.238 8.60545 19.8325 8.39321C19.0214 7.97837 18.2007 7.94943 17.4089 8.39321C15.8351 9.26147 14.2902 10.1683 12.7356 11.0655C12.7067 11.0848 12.6777 11.1138 12.6584 11.1331C13.035 12.2907 14.4447 12.8599 15.584 12.3004C15.8834 12.1557 16.173 11.9627 16.4627 11.8084C17.0806 11.4804 17.6407 11.5479 18.1524 12.0206C19.2338 13.0143 20.6628 12.667 21.1553 11.2971C21.2904 10.9208 21.5511 10.7665 21.8698 10.8822C22.1691 10.9884 22.285 11.2585 22.1884 11.6154C22.1498 11.7505 22.1015 11.8856 22.0436 12.0496C22.5167 12.3293 22.9995 12.5995 23.4726 12.8792C25.6547 14.1334 27.8369 15.3779 29.9997 16.661C30.357 16.8732 30.6177 16.8925 30.9267 16.6417C31.0039 16.5742 31.1005 16.5259 31.2163 16.4584C29.8066 14.0176 28.4066 11.5961 26.9969 9.15535C26.572 9.39653 26.1665 9.63772 25.761 9.85961C24.6699 10.4288 23.5692 10.4481 22.4684 9.90785C22.0436 9.70525 21.8987 9.39653 22.0629 9.08782C22.2174 8.78875 22.5167 8.73087 22.9415 8.93346C23.7043 9.30006 24.4768 9.30971 25.2299 8.91417C25.6451 8.70192 26.041 8.45109 26.4562 8.21955C26.3982 8.10379 26.3499 8.02661 26.3113 7.93978C26.1375 7.57318 26.2148 7.24517 26.572 7.04258C27.8272 6.30938 29.0921 5.57618 30.357 4.86227C30.7529 4.64038 31.0715 4.7658 31.3322 5.21922C32.3364 6.95575 33.3406 8.69228 34.3447 10.4385C35.1655 11.8566 35.9765 13.2748 36.7972 14.6833C37.1448 15.2814 37.0676 15.5516 36.4883 15.8892C35.4165 16.5066 34.3447 17.1241 33.273 17.7512C32.4329 18.2335 32.346 18.2142 31.7667 17.4328C31.6605 17.4907 31.5446 17.5582 31.4094 17.6354C32.1722 18.9088 31.4288 19.8832 30.7336 20.819C30.4922 21.1374 30.0094 21.2821 29.5556 21.5522C29.6039 22.0249 29.2852 22.4977 29.0245 22.9993C28.5804 23.8579 27.9335 24.3596 27.0065 24.2728C26.7362 24.8323 26.5044 25.3533 26.2341 25.855C25.6741 26.8776 24.6216 27.167 23.5885 26.6171C23.5402 26.5882 23.4823 26.5592 23.4533 26.5496C23.2022 27.0512 22.9609 27.5529 22.6905 28.0353C22.1498 29 21.078 29.2894 20.1125 28.7492C19.4849 28.4019 18.8669 28.0353 18.3069 27.7072C17.7276 28.0642 17.2158 28.4115 16.6654 28.7106C15.7482 29.2219 14.7054 28.9325 14.1647 28.0353C13.875 27.5432 13.624 27.0319 13.3439 26.5013C13.1701 26.5206 12.9384 26.5785 12.697 26.5785C12.0308 26.5882 11.4901 26.3084 11.1521 25.7488C10.8239 25.2086 10.5438 24.6394 10.2252 24.0412C9.75209 24.0991 9.17276 24.0605 8.76722 23.6457C8.09134 22.9607 7.57959 22.1697 7.55063 21.0988C6.77818 20.983 6.35334 20.4138 5.97677 19.7578C5.60021 19.1018 5.35882 18.4554 5.63883 17.7029C5.50365 17.6257 5.39744 17.5582 5.29123 17.4907C5.26227 17.5003 5.2333 17.51 5.21399 17.5196C4.75052 18.1756 4.57672 18.2142 3.89118 17.8187C2.81942 17.2013 1.738 16.5838 0.675887 15.9567C0.444154 15.8217 0.251044 15.6287 0.0386221 15.4551C0 15.2911 0 15.156 0 15.0113ZM16.0475 23.8001C16.2985 23.8097 16.5303 23.8001 16.7523 23.8387C17.9883 24.0412 18.7897 25.0542 18.7317 26.3277C18.7221 26.4724 18.7607 26.6943 18.8573 26.7522C19.4462 27.1188 20.0545 27.4661 20.6628 27.8037C21.078 28.0256 21.4642 27.9002 21.7153 27.495C21.8505 27.2731 21.976 27.0319 22.1015 26.8004C22.4008 26.2408 22.3043 25.8646 21.7443 25.5366C21.3387 25.2954 20.9332 25.0735 20.5277 24.8323C20.2959 24.6973 20.1511 24.4657 20.2766 24.2245C20.3635 24.0509 20.5759 23.9062 20.7691 23.829C20.8753 23.7904 21.0684 23.8965 21.1939 23.9737C22.1305 24.5043 23.0671 25.0542 24.0037 25.5945C24.5926 25.9321 24.9692 25.826 25.3071 25.2182C25.4037 25.0542 25.4906 24.8806 25.5872 24.7166C25.9251 24.0991 25.8286 23.7615 25.2203 23.4045C24.274 22.8546 23.3181 22.3144 22.3719 21.7645C22.0339 21.5619 21.9374 21.2628 22.1112 20.9734C22.2753 20.7129 22.5746 20.6454 22.9029 20.819C23.0188 20.8769 23.1347 20.9541 23.2505 21.012C24.3995 21.6776 25.5389 22.3337 26.6879 22.9993C27.2093 23.2984 27.5955 23.1923 27.9045 22.681C28.0204 22.488 28.1362 22.2854 28.2521 22.0925C28.5804 21.5136 28.4838 21.147 27.8948 20.8094C26.6975 20.1148 25.5003 19.4298 24.303 18.7352C24.1968 18.6773 24.0906 18.6194 24.0037 18.5326C23.8105 18.3397 23.7719 18.1081 23.9168 17.8766C24.0616 17.6354 24.2933 17.5389 24.5637 17.6547C24.6699 17.7029 24.7761 17.7608 24.8823 17.8187C26.2148 18.5905 27.5472 19.3623 28.8797 20.1244C29.4301 20.4428 29.8259 20.327 30.1349 19.7675C30.2508 19.5552 30.3666 19.343 30.4825 19.1307C30.7432 18.6291 30.6467 18.2528 30.1542 17.973C27.3058 16.3233 24.4478 14.6736 21.5898 13.0432C21.4932 12.995 21.3098 12.995 21.2229 13.0625C19.958 13.9404 18.6062 13.8729 17.4572 12.8406C17.2737 12.6766 17.1193 12.6573 16.9068 12.7828C16.6365 12.9468 16.3661 13.1011 16.0861 13.2458C14.6088 13.9887 12.8129 13.516 11.9246 12.1267C11.7411 11.8277 11.548 11.4804 11.5384 11.1427C11.5287 10.8243 11.7508 10.4963 11.8666 10.178C11.2873 9.85961 10.6404 9.50266 9.97416 9.1457C8.5548 11.6058 7.14509 14.0369 5.74504 16.4681C6.24713 16.8829 6.24713 16.8732 6.75887 16.5838C7.38648 16.2269 8.00444 15.8603 8.6417 15.5226C9.01827 15.3297 9.32724 15.4261 9.47208 15.7349C9.61691 16.0436 9.47208 16.3041 9.09551 16.5066C8.36169 16.9118 7.62787 17.3267 6.90371 17.7608C6.5368 17.9827 6.44024 18.3782 6.63335 18.7641C6.75887 19.0246 6.91336 19.2658 7.05819 19.5166C7.36717 20.0376 7.75339 20.1437 8.26514 19.8446C8.83481 19.5263 9.39483 19.1983 9.95485 18.8703C10.7949 18.3879 10.959 17.9441 10.6404 17.018C10.5438 16.7189 10.6501 16.4295 10.9108 16.3233C11.1715 16.2076 11.4708 16.3041 11.6156 16.5838C11.7122 16.7671 11.8184 16.9601 11.8184 17.153C11.828 17.6836 11.7894 18.2046 11.7701 18.7738C12.8129 19.179 13.3343 20.0279 13.3246 21.2242C15.1399 21.1567 16.0958 22.4012 16.0475 23.8001ZM35.7641 15.0402C34.0164 12.011 32.2784 9.02029 30.5308 5.99101C29.4977 6.58915 28.4935 7.16799 27.4603 7.75648C29.208 10.7858 30.946 13.7861 32.6936 16.8057C33.7171 16.2269 34.7116 15.648 35.7641 15.0402ZM12.2529 20.9734C12.2529 20.0376 11.268 19.4394 10.428 19.8736C9.9452 20.1244 9.48173 20.4042 9.01827 20.684C8.62239 20.9251 8.51618 21.3014 8.7286 21.7066C8.88309 22.0057 9.04723 22.2951 9.23069 22.5845C9.48173 22.9607 9.86795 23.0669 10.2638 22.845C10.737 22.5845 11.2101 22.3144 11.6639 22.0346C12.0598 21.7934 12.2336 21.4268 12.2529 20.9734ZM13.6433 22.3144C13.5853 22.324 13.4502 22.324 13.3439 22.3722C12.7743 22.681 12.1949 22.98 11.6542 23.337C11.3549 23.5396 11.3259 23.8869 11.4901 24.2149C11.6542 24.5333 11.828 24.8516 12.0308 25.1507C12.2529 25.4787 12.6294 25.5848 12.9867 25.4015C13.4791 25.141 13.9619 24.8709 14.4254 24.5719C14.8888 24.2631 15.053 23.6843 14.8792 23.1633C14.715 22.6713 14.2323 22.324 13.6433 22.3144ZM16.2696 24.8999C15.7096 25.0253 15.1109 25.3533 14.6378 25.8357C14.5026 25.9707 14.5026 26.347 14.5799 26.5689C14.6957 26.9162 14.9178 27.2249 15.1302 27.5336C15.3426 27.852 15.7096 27.9484 16.0571 27.7748C16.4434 27.5818 16.8199 27.3696 17.1772 27.1188C17.6213 26.81 17.7662 26.2408 17.5924 25.7392C17.3993 25.2375 16.9455 24.8999 16.2696 24.8999Z" fill="white"/>
<path d="M23.6175 6.05855C22.3237 6.0682 21.5609 4.89122 22.063 3.87825C22.3913 3.21258 22.7775 2.57585 23.183 1.94877C23.6272 1.26381 24.5155 1.07086 25.2204 1.47605C25.9156 1.88124 26.2052 2.74951 25.8287 3.47306C25.4907 4.12908 25.1045 4.77545 24.7086 5.40253C24.4286 5.84631 23.9845 6.04891 23.6175 6.05855ZM23.521 4.97805C23.5693 4.94911 23.7334 4.92016 23.7913 4.82369C24.1679 4.20626 24.5348 3.58883 24.8631 2.94245C24.921 2.82669 24.8052 2.54691 24.6797 2.43114C24.5059 2.26714 24.2452 2.31537 24.11 2.52762C23.7431 3.1354 23.3762 3.74319 23.0479 4.37026C22.8934 4.65969 23.1251 4.9684 23.521 4.97805Z" fill="white"/>
<path d="M16.9164 2.51796C16.9164 2.18995 16.9067 1.87159 16.9164 1.54358C16.9454 0.675316 17.6213 0 18.4613 0C19.2917 0 19.9676 0.656021 19.9965 1.51464C20.0158 2.1996 20.0158 2.88456 19.9965 3.56953C19.9676 4.42814 19.2917 5.06487 18.4516 5.06487C17.6019 5.06487 16.9357 4.3992 16.9164 3.52129C16.9164 3.18363 16.9164 2.85562 16.9164 2.51796ZM18.9248 2.54691C18.9248 2.2189 18.9344 1.90053 18.9248 1.57252C18.9151 1.2831 18.751 1.08051 18.4516 1.09015C18.1716 1.0998 18.0171 1.29275 18.0171 1.57252C18.0075 2.20925 18.0075 2.84597 18.0171 3.4827C18.0171 3.77212 18.162 3.97472 18.4709 3.97472C18.7799 3.97472 18.9151 3.77212 18.9248 3.4827C18.9344 3.17399 18.9248 2.85562 18.9248 2.54691Z" fill="white"/>
<path d="M13.3149 6.05857C12.919 6.04892 12.4748 5.82703 12.1948 5.37361C11.8183 4.76582 11.4513 4.13874 11.1134 3.50202C10.7175 2.76882 10.9975 1.88126 11.7024 1.47607C12.4169 1.06123 13.3149 1.27347 13.759 1.97773C14.1356 2.58552 14.5122 3.2126 14.8404 3.84932C15.3715 4.88159 14.6184 6.06822 13.3149 6.05857ZM13.3728 4.97806C13.8363 4.96842 14.0294 4.62111 13.8459 4.27381C13.5369 3.71426 13.2183 3.16436 12.89 2.61446C12.7355 2.35398 12.5135 2.26715 12.2431 2.42151C11.9727 2.57587 11.9631 2.81705 12.1079 3.07753C12.4169 3.61778 12.7259 4.16768 13.0542 4.69829C13.1411 4.83335 13.3052 4.92018 13.3728 4.97806Z" fill="white"/>
<path d="M7.84991 8.07484C7.85957 8.37391 7.59887 8.63439 7.29955 8.62474C7.00988 8.62474 6.77815 8.38355 6.77815 8.09413C6.76849 7.79506 6.98091 7.56353 7.28024 7.55388C7.58921 7.54423 7.84026 7.77577 7.84991 8.07484Z" fill="white"/>
<path d="M29.6812 8.62475C29.3819 8.6151 29.1405 8.34498 29.1598 8.05556C29.1791 7.76614 29.4205 7.55389 29.7101 7.55389C30.0191 7.56354 30.2412 7.80473 30.2219 8.11344C30.2122 8.41251 29.9612 8.6344 29.6812 8.62475Z" fill="white"/>
</svg>
