<svg width="30" height="27" viewBox="0 0 30 27" fill="none" xmlns="http://www.w3.org/2000/svg">
<path d="M15.651 23.6283C15.651 24.0234 15.664 24.379 15.651 24.7215C15.6119 25.9332 14.7265 26.9078 13.5286 26.9605C12.2916 27.0132 11.0546 27.0132 9.81763 26.9605C8.58065 26.921 7.69523 25.9332 7.68221 24.6688C7.66919 23.3781 8.54159 22.3507 9.80461 22.3112C11.4583 22.2586 13.0989 22.2981 14.7525 22.2849C19.8958 22.2454 23.8932 19.0712 25.078 14.0664C26.4322 8.33709 22.3827 2.3049 16.6275 1.50148C10.8072 0.711239 5.74211 4.41221 4.75252 10.2337C4.49211 11.722 4.60929 13.2103 5.02596 14.659C5.28638 15.5678 5.06502 15.8708 4.1145 15.8708C3.4244 15.8708 2.72127 15.8839 2.03117 15.8708C0.859294 15.8444 0.0259603 15.0147 0.0129395 13.8293C-8.13804e-05 12.499 -8.13804e-05 11.1688 0.0129395 9.82539C0.0259603 8.70587 0.716065 7.91563 1.83586 7.81026C2.36971 7.75758 2.91659 7.74441 3.46346 7.78392C3.91919 7.81026 4.08846 7.6127 4.25773 7.21758C6.06763 3.12148 9.19263 0.737581 13.5676 0.105386C18.6197 -0.632175 23.6588 2.3049 25.677 7.08587C25.8984 7.6127 26.1458 7.83661 26.7187 7.78392C27.2265 7.73124 27.7603 7.75758 28.2812 7.82343C29.2838 7.95514 29.9739 8.71904 29.9869 9.74636C30.0129 11.1293 30.0129 12.5122 29.9869 13.8951C29.9739 15.0015 29.1405 15.8312 28.0468 15.8839C27.3697 15.9103 26.5754 15.6864 26.0676 15.9893C25.5989 16.2659 25.4817 17.1088 25.1562 17.6751C23.1249 21.1259 20.1432 23.1147 16.1848 23.5625C16.0416 23.5625 15.8853 23.5888 15.651 23.6283ZM3.43742 9.15368C3.02075 9.15368 2.52596 9.15368 2.03117 9.15368C1.5494 9.15368 1.32804 9.44343 1.32804 9.90441C1.31502 11.1951 1.32804 12.4859 1.32804 13.7766C1.32804 14.2244 1.57544 14.4878 1.99211 14.5273C2.49992 14.5668 3.00773 14.5405 3.43742 14.5405C3.43742 12.7098 3.43742 10.9712 3.43742 9.15368ZM26.5494 14.5273C26.9921 14.5273 27.4999 14.5537 28.0208 14.5142C28.4374 14.4747 28.6718 14.1981 28.6718 13.7634C28.6718 12.4727 28.6718 11.182 28.6718 9.89124C28.6718 9.43026 28.4374 9.15368 27.9557 9.15368C27.4609 9.15368 26.9661 9.15368 26.5624 9.15368C26.5494 10.9581 26.5494 12.7098 26.5494 14.5273ZM14.3359 23.6547C12.8124 23.6547 11.3801 23.6415 9.96086 23.6547C9.40096 23.6678 9.02336 24.0761 9.01033 24.6161C8.99731 25.1825 9.38794 25.6303 9.96086 25.6303C11.0937 25.6566 12.2135 25.6434 13.3463 25.6303C13.9452 25.6303 14.2577 25.2615 14.3359 24.6951C14.3749 24.379 14.3359 24.0498 14.3359 23.6547Z" fill="white"/>
<path d="M8.71081 17.3722C7.25248 15.5678 6.60144 13.6317 6.66654 11.4322C6.77071 7.5205 9.98685 4.03026 13.802 3.47709C18.6848 2.76587 23.4764 6.63806 23.3462 12.1434C23.2421 16.4107 19.6092 20.1644 15.3775 20.2303C12.7733 20.2698 10.1691 20.2566 7.56498 20.2303C7.27852 20.2303 6.87487 20.0195 6.75769 19.7825C6.66654 19.5981 6.86185 19.1634 7.05716 18.9527C7.56498 18.3864 8.13789 17.899 8.71081 17.3722ZM9.01029 18.7288C9.04935 18.7815 9.07539 18.8473 9.11446 18.9C11.2629 18.9 13.4113 19.0185 15.5337 18.8737C19.8566 18.5971 22.8124 14.3825 21.7837 10.1283C20.9113 6.5327 17.4869 4.25416 13.841 4.83367C10.2082 5.40001 7.56498 9.00879 8.04675 12.6571C8.24206 14.1454 8.81498 15.4229 9.80456 16.5293C10.3645 17.1615 10.3645 17.4512 9.79154 18.0307C9.54414 18.281 9.27071 18.4917 9.01029 18.7288Z" fill="white"/>
</svg>
