<svg width="32" height="52" viewBox="0 0 32 52" fill="none" xmlns="http://www.w3.org/2000/svg">
<path d="M24.6199 46.474C24.621 46.9644 24.705 47.3791 24.5962 47.7151C24.4237 48.221 23.7369 48.3208 23.3774 47.903C23.3509 47.8691 23.3282 47.8541 23.3017 47.8202C23.226 47.7374 23.2521 47.5751 23.2442 47.4394C23.1276 45.893 23.1199 45.8553 21.5983 45.712C20.375 45.5868 19.118 45.5862 17.8684 45.5252C17.7576 46.627 17.6539 47.5703 17.5503 48.5136C17.4986 49.0343 17.4245 49.638 16.7184 49.5455C15.9707 49.4417 16.1657 48.8528 16.2174 48.3321C16.3138 47.5472 16.3875 46.7473 16.4689 45.9851C14.252 45.5116 14.0818 45.3498 13.7341 43.4381C13.1867 43.4508 12.6394 43.4635 12.0656 43.4423C11.1369 43.4145 10.4185 42.8731 10.2128 42.0512C10.011 41.2482 10.4054 40.3834 11.2236 39.9626C11.808 39.6481 12.4681 39.4163 13.026 39.0679C13.6518 38.6665 14.2926 38.2424 14.8123 37.7054C15.7878 36.7033 17.0825 36.6963 18.294 36.5688C20.6414 36.3291 22.9823 36.542 25.2075 37.3475C25.9517 37.6285 26.5309 38.3551 27.1851 38.8703C27.7712 39.3403 28.3612 39.8293 28.9662 40.2955C29.4048 40.6188 29.8885 40.8741 30.331 41.2163C31.0305 41.7615 31.2737 42.4776 30.9886 43.3007C30.7186 44.1011 29.9345 44.5935 29.1152 44.5238C28.5376 44.4838 27.9635 44.3645 27.3367 44.2755C27.0797 45.819 26.2812 46.6283 24.6199 46.474ZM17.7612 38.0111C15.9424 38.3401 15.5015 38.6845 15.417 39.722C15.3028 41.0011 15.2452 42.2687 15.1725 43.559C15.1401 44.2721 15.4089 44.6298 16.2089 44.507C19.0995 44.0396 21.9573 44.1871 24.7489 45.0742C25.5044 45.3137 25.8321 44.9922 25.8834 44.2754C25.9637 43.0228 26.0478 41.7891 26.1092 40.5403C26.1524 39.5896 25.7509 38.9644 24.8103 38.6838C22.3738 37.9015 19.882 37.7191 17.7612 38.0111ZM27.4877 40.85C27.433 41.7441 27.3928 42.3214 27.3564 42.9175C27.987 43.0253 28.5271 43.1711 29.0444 43.2037C29.2445 43.2221 29.5876 43.0741 29.6514 42.9042C29.7191 42.7531 29.5711 42.4102 29.4085 42.2862C28.8639 41.8273 28.2703 41.4176 27.4877 40.85ZM13.9081 40.2238C13.1917 40.565 12.5619 40.8495 11.9624 41.1868C11.7852 41.2815 11.5934 41.5951 11.6278 41.7648C11.6583 41.9156 11.9758 42.126 12.1721 42.1255C14.018 42.1247 14.0863 42.2679 13.9081 40.2238Z" fill="black"/>
<path d="M20.4287 10.056C19.8552 11.8794 19.4143 12.2238 17.9798 12.2198C17.4336 12.7229 17.0531 13.0746 16.6726 13.4264C16.4337 12.9253 16.2136 12.4204 15.9747 11.9193C16.0273 11.7909 16.1025 11.6775 16.1551 11.5491C14.4147 11.4893 12.6894 11.4069 10.9567 11.3848C10.7793 11.3815 10.4705 11.6991 10.4181 11.9256C10.2948 12.4804 10.3565 13.0763 10.2105 13.6161C10.1206 13.9483 9.80415 14.2282 9.57077 14.5306C9.3361 14.2445 8.96555 13.9662 8.92335 13.6608C8.83895 13.0499 8.92435 12.4046 8.9417 11.7143C7.52949 11.5292 6.87083 10.7009 6.8449 9.21475C6.35798 9.23482 5.93149 9.2623 5.48231 9.27473C4.31219 9.31538 3.49181 8.75537 3.26707 7.83927C3.06501 6.93821 3.53513 6.15618 4.54561 5.618C5.86153 4.93948 7.18531 4.39674 8.23603 3.2813C8.78587 2.699 9.9104 2.53021 10.7897 2.41107C13.3181 2.09542 15.8477 2.27017 18.2579 3.11667C18.9984 3.37888 19.5775 4.10547 20.2167 4.64331C20.5003 4.88025 20.7237 5.20788 21.0413 5.41833C21.8201 5.96713 22.6668 6.46295 23.4306 7.03442C24.149 7.57583 24.3282 8.36378 23.9827 9.17945C23.6334 9.97627 22.9964 10.4192 22.0637 10.2744C21.5427 10.2229 21.0178 10.1526 20.4287 10.056ZM19.2484 5.48694C18.9156 5.20108 18.5671 4.64366 18.0608 4.4714C15.4013 3.55762 12.6831 3.42107 9.90962 3.88444C9.03798 4.04129 8.55596 4.5706 8.47864 5.44973C8.38331 6.72499 8.30685 7.99643 8.23039 9.26787C8.18294 10.0036 8.51216 10.3687 9.27061 10.2347C12.1912 9.72195 15.0794 9.92221 17.9049 10.7828C18.4262 10.9323 18.8525 10.8068 18.9154 10.2446C19.048 8.76552 19.1353 7.25641 19.2484 5.48694ZM6.98897 7.79225C7.00272 7.18111 7.02792 6.62653 7.06413 5.93234C6.27602 6.30777 5.62356 6.57723 5.02029 6.8956C4.84308 6.99035 4.62497 7.36812 4.6856 7.47359C4.80305 7.66568 5.07905 7.86492 5.31689 7.87564C5.81526 7.91212 6.30958 7.83167 6.98897 7.79225ZM20.3953 8.63013C21.0071 8.74176 21.5284 8.89135 22.0645 8.92019C22.3023 8.93091 22.5359 8.72663 22.7735 8.63927C22.6711 8.42451 22.6177 8.16058 22.4702 8.01384C21.9406 7.53231 21.3583 7.0811 20.7948 6.62606C20.7158 6.72057 20.6367 6.81507 20.5576 6.90958C20.4871 7.43409 20.4392 7.97364 20.3953 8.63013Z" fill="black"/>
<path d="M17.1353 22.9879C15.4374 23.3316 13.7395 23.6754 11.8529 24.0573C12.1715 24.7582 12.4558 25.2893 12.6081 25.8472C12.688 26.145 12.5076 26.5152 12.4404 26.8624C12.1231 26.75 11.6701 26.7436 11.5073 26.5215C11.1287 26.0094 10.9084 25.4064 10.6392 24.8525C8.5745 24.9369 8.2684 24.783 7.50583 23.0534C7.11728 23.1714 6.69099 23.2969 6.2874 23.4375C5.14061 23.7874 4.28315 23.5293 3.7716 22.6516C3.29419 21.8455 3.49234 20.9812 4.37392 20.1944C4.88625 19.7178 5.47044 19.3051 5.95627 18.7947C6.35922 18.3599 6.64494 17.831 7.0252 17.3812C7.45443 16.8822 7.86458 16.2889 8.43775 16.0159C11.179 14.6171 14.107 14.0439 17.165 14.2098C17.6822 14.2424 18.3506 14.3426 18.6722 14.67C19.758 15.765 21.223 15.9198 22.519 16.5012C23.0594 16.7451 23.6907 17.1471 23.9485 17.6444C24.5359 18.703 23.8025 19.9308 22.5536 20.164C22.0253 20.271 21.478 20.2836 20.859 20.3305C20.8334 20.6889 20.9362 21.0998 20.7707 21.3492C20.4133 21.9121 20.022 22.5016 19.4944 22.9028C19.1553 23.1677 18.5889 23.0861 18.5639 23.7388C18.5529 23.8784 18.0967 24.1473 18.0098 24.106C17.6734 23.8994 17.3933 23.5832 17.1021 23.3086C17.1546 23.1802 17.1356 23.086 17.1353 22.9879ZM8.56921 20.8365C8.70279 21.4963 8.83637 22.1561 8.96995 22.8159C9.11116 23.5134 9.48531 23.7124 10.149 23.4014C12.8037 22.1575 15.6148 21.5884 18.5405 21.6829C19.3333 21.7187 19.5968 21.371 19.4479 20.6358C19.2075 19.4481 18.9821 18.2378 18.7228 17.0539C18.4635 15.8701 18.0134 15.4902 16.8092 15.4593C14.2459 15.4091 11.7707 15.8906 9.4288 16.9338C8.27481 17.4422 8.01178 17.986 8.23717 19.1964C8.35548 19.7808 8.46235 20.3086 8.56921 20.8365ZM6.97762 19.7654C6.52168 20.1324 6.20881 20.3331 5.97162 20.6166C5.6064 21.0438 4.94358 21.7471 5.06103 21.9392C5.54968 22.7037 6.17836 21.9289 6.74434 21.8143C6.95186 21.7723 7.17357 21.3153 7.21447 21.0322C7.2401 20.6738 7.0883 20.3121 6.97762 19.7654ZM20.146 17.0994C20.2681 17.7027 20.3143 18.125 20.4511 18.5095C20.5043 18.6753 20.6936 18.9314 20.8522 18.9385C21.3656 18.9523 21.8675 18.9096 22.3807 18.8253C22.5505 18.7909 22.8104 18.5224 22.7837 18.3905C22.7644 18.1981 22.5524 17.9271 22.3597 17.8483C21.7174 17.5859 21.0299 17.3914 20.146 17.0994Z" fill="black"/>
<path d="M12.8592 35.4319C12.4407 35.6932 12.0261 35.9734 11.585 36.2197C10.7216 36.7085 9.80038 36.6203 9.20257 35.9956C8.5859 35.3747 8.5159 34.4469 9.03499 33.6157C9.37731 33.0754 9.78386 32.5614 10.0808 31.991C10.4153 31.3149 10.6213 30.5864 10.9558 29.9103C11.2338 29.3438 11.4778 28.7057 11.9261 28.3009C14.2393 26.243 16.9201 24.8368 19.9802 24.2369C20.433 24.1453 21.0255 24.0646 21.3846 24.2862C22.7453 25.0901 24.2359 24.8864 25.6782 25.0262C26.8977 25.1325 27.5216 25.595 27.7124 26.5375C27.8882 27.5028 27.4594 28.198 26.3544 28.6572C25.9396 28.8393 25.5398 28.9987 25.0306 29.1999C25.5734 30.5226 25.3606 31.6058 24.0712 32.3182C24.379 33.2567 24.7169 34.1499 24.9794 35.0583C25.1164 35.5408 25.1969 36.1329 24.5402 36.1873C24.2685 36.2031 23.8636 35.7552 23.7006 35.435C23.3972 34.8095 23.2371 34.1158 23.0054 33.4563C22.7775 32.8156 22.3618 32.6054 21.7473 32.9653C20.145 33.8784 18.4367 34.656 16.9215 35.7084C15.0106 37.0373 14.452 37.0915 12.8592 35.4319ZM19.6248 25.6826C17.2405 26.3223 14.9253 27.4975 12.8832 29.2454C12.1636 29.862 12.0519 30.5715 12.4727 31.389C13.0301 32.4929 13.5912 33.6156 14.1675 34.7157C14.4935 35.3561 14.9243 35.5437 15.546 35.0253C17.7727 33.1223 20.3444 31.856 23.1626 31.1284C24.0228 30.915 24.067 30.4547 23.7333 29.7765C23.2101 28.7442 22.6907 27.7308 22.1675 26.6985C21.5913 25.5985 21.051 25.3546 19.6248 25.6826ZM11.4521 32.4591C10.9856 33.1619 10.5566 33.759 10.188 34.3635C10.1015 34.5184 10.0682 34.8391 10.1515 34.9596C10.2387 35.0989 10.5484 35.1736 10.7332 35.1166C12.0085 34.8191 12.3728 33.9997 11.7362 32.8922C11.6794 32.8056 11.5999 32.7039 11.4521 32.4591ZM23.4992 26.2916C23.8252 26.932 24.0641 27.4331 24.3334 27.987C24.918 27.7705 25.4348 27.607 25.9213 27.3908C26.0985 27.296 26.3395 27.0314 26.324 26.8579C26.3085 26.6844 26.0249 26.4474 25.8248 26.4291C25.096 26.3215 24.3712 26.3309 23.4992 26.2916Z" fill="black"/>
</svg>
