<svg width="96" height="85" viewBox="0 0 96 85" fill="none" xmlns="http://www.w3.org/2000/svg">
<path d="M43.6645 58.4357C43.5896 60.0835 43.1028 61.6563 45.2748 62.7797C47.0349 63.6785 47.8213 67.8727 46.8851 69.5953C46.6604 69.9698 45.9863 70.3817 45.5744 70.3068C45.1625 70.2694 44.6007 69.7076 44.5258 69.2957C44.3386 68.3969 44.4884 67.4233 44.4509 66.4871C44.376 65.1015 43.702 64.2777 42.204 64.2777C40.781 64.2777 40.1819 65.139 40.0695 66.4122C39.9946 67.2735 40.1819 68.2097 39.9572 69.0336C39.8448 69.5578 39.2082 69.9323 38.7963 70.3817C38.3469 69.9698 37.5979 69.5953 37.4856 69.1085C36.7366 66.1501 37.8226 63.8657 40.2193 61.9933C40.781 61.5439 40.9308 60.2707 40.9308 59.372C40.9308 58.3234 41.6798 56.8255 39.9572 56.4136C39.3205 56.2638 38.3469 56.3761 37.8975 56.7506C35.8004 58.7353 33.8157 60.795 31.8684 62.8921C30.67 64.2028 29.7338 64.2777 28.498 62.9295C26.5507 60.795 24.5285 58.7728 22.4689 56.788C22.057 56.3761 21.0833 56.0765 20.6339 56.3012C20.0722 56.5633 19.5854 57.3498 19.4356 58.0238C19.2483 58.9226 19.4356 59.8962 19.3607 60.8324C19.2858 61.9933 19.473 62.8546 20.559 63.6785C22.2442 64.9143 22.2816 67.4608 20.8961 69.0336C19.473 70.6438 17.1512 70.7936 15.541 69.4081C13.8933 67.985 13.4439 65.3637 15.129 64.1279C17.4134 62.4427 16.6644 60.383 16.7019 58.3234C10.5604 60.2707 8.76286 63.1542 8.9501 67.8727C9.025 69.9698 8.9501 72.1043 8.9501 74.4636C9.81141 74.4636 10.5229 74.4636 11.2719 74.4636C22.057 74.4636 32.8795 74.4636 43.6645 74.4636C44.1514 74.4636 44.7505 74.3138 45.125 74.501C45.6493 74.7631 46.3608 75.3249 46.3608 75.7368C46.3233 76.1862 45.6493 76.7479 45.1625 77.0475C44.788 77.2722 44.1888 77.0849 43.702 77.0849C30.7824 77.0849 17.8628 77.0849 4.94315 77.0849C4.26909 77.0849 3.55757 77.0849 2.73371 77.0849C2.73371 78.3956 2.73371 79.6688 2.73371 81.1293C3.52012 81.1293 4.23164 81.1293 4.9806 81.1293C17.713 81.1293 30.4453 81.1293 43.1777 81.1293C43.7394 81.1293 44.376 81.017 44.8629 81.2042C45.3497 81.3915 45.9863 81.9157 46.0238 82.2902C46.0238 82.7396 45.4995 83.3762 45.0501 83.6009C44.6007 83.8256 43.9641 83.7507 43.4024 83.7507C29.8462 83.7507 16.3274 83.7507 2.77116 83.7507C0.149793 83.7507 0 83.5634 0 81.017C0 79.4067 0 77.759 0 76.1487C0 74.9878 0.561722 74.4261 1.72261 74.4636C3.22054 74.501 4.68102 74.4636 6.40363 74.4636C6.40363 71.8796 6.40363 69.4829 6.40363 67.0488C6.40363 62.6299 8.27604 59.3719 12.2081 57.3872C14.7171 56.1514 17.2636 54.9905 19.8101 53.7922C21.8323 52.856 22.057 51.3581 20.4092 49.935C18.0126 47.8005 16.4772 45.1417 15.4661 42.1458C15.2039 41.3968 14.6797 40.6479 14.0805 40.1236C12.0583 38.401 11.4966 36.1916 12.62 33.7574C12.9196 33.0834 13.1817 32.3718 13.2192 31.6603C13.4439 22.3732 17.7879 16.9432 26.8878 14.6214C30.1832 13.7976 33.5161 13.3856 36.8864 14.2469C39.5078 14.8836 41.6798 16.0819 41.9045 19.1901C45.9489 20.3884 46.9974 21.774 46.9974 26.0057C46.9974 27.3163 46.8851 28.627 47.0349 29.9377C47.1847 31.3233 47.4093 32.7089 47.8962 34.0196C48.72 36.229 48.1209 38.5508 46.2859 40.0862C45.6867 40.6104 45.125 41.3594 44.8629 42.1084C43.8518 45.2166 42.2415 47.8754 39.8074 50.0474C38.3469 51.3581 38.5341 52.856 40.3316 53.7173C42.8781 54.9156 45.462 56.0016 47.8962 57.3123C49.2817 58.0613 50.555 59.1473 51.6784 60.3082C52.1278 60.7575 51.9406 61.8061 52.0155 62.5925C51.2665 62.4053 50.4052 62.4427 49.806 62.0308C47.8587 60.7575 46.0238 59.3345 44.1139 57.9864C44.039 58.1362 43.8518 58.286 43.6645 58.4357ZM30.1083 51.0959C35.9502 51.1334 41.2304 46.677 42.5785 40.4232C42.8407 39.2998 43.1403 38.5133 44.376 38.1014C45.7242 37.6146 45.9489 36.3413 45.462 35.143C44.9752 33.9447 44.0016 33.4578 42.7283 34.0945C41.3053 34.806 40.6312 34.2817 40.3316 32.8587C39.9946 31.3982 39.6201 29.9752 39.2456 28.5147C38.8712 27.0917 37.935 26.5299 36.437 26.6797C32.4675 27.0917 28.5355 27.5036 24.566 27.8032C20.9335 28.1028 19.9973 28.9641 19.8101 32.5965C19.7352 34.3566 19.2483 34.6936 17.6006 34.057C16.4023 33.6076 15.541 33.8323 14.9044 34.9183C14.2677 36.0792 14.455 37.4273 15.5784 37.8393C17.301 38.5133 17.5257 39.824 17.9002 41.2471C19.5105 47.0515 24.5285 51.0585 30.1083 51.0959ZM44.376 30.8365C44.376 28.9641 44.4135 27.1291 44.376 25.3316C44.3386 22.8975 43.6271 22.1111 41.1555 22.0362C39.9946 21.9987 39.2831 21.6617 39.2082 20.351C39.0584 17.8045 38.6465 17.2054 36.1375 16.7934C29.7338 15.7074 24.0417 17.3551 19.2483 21.6991C16.8517 23.8337 15.878 26.7172 15.8031 29.9003C15.8031 30.3122 16.1401 30.6867 16.3274 31.0986C16.6644 30.8365 17.2261 30.6118 17.301 30.2748C18.2372 26.6797 20.7088 25.4065 24.1915 25.1818C28.2733 24.9197 32.3552 24.4328 36.437 24.0209C38.5716 23.7962 40.6687 24.9946 41.4925 27.0542C41.8296 27.9904 42.0543 28.9641 42.2415 29.9377C42.5036 31.1361 43.1028 31.4731 44.376 30.8365ZM30.2206 60.3082C32.1305 58.5106 34.3025 56.5633 36.3247 54.4662C36.6617 54.1292 36.4745 53.2305 36.5494 52.4066C30.8947 54.0918 29.3593 54.0918 23.817 52.4066C23.8545 53.1556 23.6298 54.0918 23.9668 54.4288C26.0265 56.4884 28.1984 58.4357 30.2206 60.3082ZM17.0015 66.9365C17.4883 67.648 18.6117 67.648 19.0237 66.8616C19.0985 66.7492 19.136 66.6369 19.0985 66.5245C19.0985 66.4122 19.0611 66.2999 18.9862 66.225C18.5368 65.5883 17.6006 65.5883 17.0763 66.1875C16.964 66.2999 16.8891 66.4496 16.8517 66.5994C16.8517 66.6743 16.9266 66.8241 17.0015 66.9365Z" fill="black" fill-opacity="0.9"/>
<path d="M58.7899 47.251C55.4945 46.6518 53.8093 45.0041 53.6595 42.4576C53.5098 39.649 54.8579 38.1137 58.715 36.803C58.8648 35.1927 58.8648 33.545 59.2393 31.9722C60.3253 27.5158 63.8454 24.52 68.3767 24.1455C70.5487 23.9583 72.7581 23.9583 74.9301 24.1081C80.7346 24.52 84.7415 28.9014 84.7789 34.7808C84.7789 35.4548 84.7789 36.1289 84.7789 36.7655C88.5612 37.889 90.134 39.5741 89.9842 42.2704C89.8719 44.8543 88.1118 46.5395 84.8538 47.2136C84.7415 50.9209 83.3185 53.9917 80.2477 56.3134C79.0494 57.2122 79.686 59.5714 81.109 60.2455C84.03 61.5936 87.0258 62.9043 89.9093 64.3648C93.7665 66.3121 95.6764 69.5326 95.6015 73.8766C95.564 76.4231 95.6015 79.007 95.6015 81.5535C95.6015 83.7255 95.3019 84.0251 93.1299 84.0251C84.03 84.0251 74.8926 84.0251 65.7927 84.0251C60.6623 84.0251 55.5694 83.9876 50.439 84.0625C48.7164 84.1 47.93 83.5382 48.0049 81.6658C48.1172 78.9321 48.0423 76.161 48.0423 73.4272C48.0423 69.4577 49.8398 66.4619 53.2851 64.5895C56.3184 62.9792 59.464 61.6311 62.5722 60.1706C63.9578 59.534 64.5195 57.1373 63.3212 56.2386C60.2879 54.0291 58.8648 51.0333 58.7899 47.251ZM50.6637 81.3288C53.2476 81.3288 55.6443 81.3288 58.2657 81.3288C58.2657 80.6173 58.2657 79.9807 58.2657 79.3815C58.2657 77.3219 58.1533 75.2622 58.3406 73.2026C58.4155 72.4536 59.0521 71.2553 59.5764 71.1804C60.8496 70.9557 60.887 72.154 60.887 73.1277C60.887 73.7643 60.887 74.3634 60.887 75.0001C60.887 77.0972 60.887 79.1943 60.887 81.3662C68.2643 81.3662 75.342 81.3662 82.607 81.3662C82.607 80.6547 82.607 80.0181 82.607 79.4189C82.607 77.3593 82.4946 75.2997 82.6819 73.24C82.7567 72.491 83.3934 71.2927 83.9176 71.2178C85.1909 70.9931 85.2283 72.1915 85.2283 73.1651C85.2283 73.8017 85.2283 74.4009 85.2283 75.0375C85.2283 77.1346 85.2283 79.2317 85.2283 81.4037C87.9246 81.4037 90.3213 81.4037 92.9426 81.4037C92.9426 78.7074 92.9801 76.1235 92.9426 73.5021C92.9052 70.6561 91.6694 68.4092 89.1604 67.0611C85.9773 65.3759 82.6819 63.9154 79.349 62.3052C78.2255 64.4771 76.428 64.8516 74.3684 64.7393C72.6458 64.6269 70.8857 64.6269 69.1256 64.7393C67.066 64.8516 65.3059 64.4397 64.1825 62.4175C62.2726 63.2414 60.4377 64.0278 58.6402 64.8891C57.1048 65.6006 55.6069 66.3496 54.1464 67.1734C52.0867 68.3717 50.7386 70.2067 50.6262 72.6034C50.5514 75.3745 50.6637 78.2581 50.6637 81.3288ZM61.4862 40.9972C61.4862 43.1692 61.4862 45.3411 61.4862 47.5506C61.5237 51.7073 64.1076 54.8904 68.2643 55.3772C70.7733 55.6768 73.3947 55.6019 75.8663 55.2649C79.4239 54.7781 82.0452 51.5575 82.1201 47.9251C82.195 43.3938 82.195 38.8252 82.1201 34.2939C82.0827 30.3993 79.0868 27.1414 75.1922 26.8043C73.0202 26.6171 70.8108 26.6171 68.6763 26.7669C64.5195 27.1039 61.5986 30.3244 61.5611 34.4437C61.4488 36.6532 61.4862 38.8252 61.4862 40.9972ZM66.5792 58.111C66.5417 58.5603 66.4668 59.0472 66.4668 59.4965C66.4668 61.6685 66.8787 62.043 69.0507 62.0805C71.1104 62.0805 73.1326 62.043 75.1922 62.1179C76.3906 62.1554 76.9523 61.6311 77.0646 60.5451C77.1395 59.7212 77.0646 58.8974 77.0646 58.111C73.4322 58.111 70.0618 58.111 66.5792 58.111ZM58.7525 39.649C57.1422 39.9486 56.206 40.735 56.3184 42.233C56.4307 43.6185 57.2171 44.4424 58.7525 44.3675C58.7525 42.7947 58.7525 41.2967 58.7525 39.649ZM84.8164 44.5173C86.539 44.2926 87.4003 43.4313 87.288 41.9334C87.2131 40.5852 86.3518 39.7614 84.8164 39.7614C84.8164 41.3342 84.8164 42.7947 84.8164 44.5173Z" fill="black" fill-opacity="0.9"/>
<path d="M63.1751 17.2802C63.1751 18.7782 63.25 20.0888 63.1377 21.3621C63.0628 21.9613 62.7632 22.8226 62.3138 23.0098C61.8644 23.197 61.078 22.8226 60.5538 22.4855C59.992 22.111 59.5052 21.5868 59.0933 21.0625C56.9213 18.3288 54.4497 16.6436 50.6674 17.1679C48.458 17.4675 47.1473 15.8198 47.1099 13.5354C47.0724 10.4272 47.0724 7.28158 47.1099 4.17339C47.1473 1.43967 48.4955 0.0540918 51.2666 0.0166436C55.8353 -0.0208045 60.3665 0.0166436 64.9352 0.0166436C69.9158 0.0166436 74.9338 0.0166436 79.9144 0.0166436C83.0975 0.0166436 84.4457 1.36478 84.4831 4.58532C84.5206 7.39393 84.5206 10.2025 84.4831 13.0111C84.4457 15.9321 83.135 17.2428 80.214 17.2428C75.2709 17.2802 70.3652 17.2428 65.422 17.2428C64.7105 17.2802 64.0364 17.2802 63.1751 17.2802ZM60.404 18.4037C60.8159 14.5465 59.8797 14.6214 64.5982 14.6214C69.6911 14.6214 74.8215 14.584 79.9144 14.6589C81.3 14.6589 81.8243 14.2095 81.7868 12.8239C81.7494 10.0153 81.7494 7.20669 81.7868 4.39808C81.7868 3.12484 81.2251 2.63801 79.9519 2.63801C70.4401 2.67546 60.8908 2.67546 51.379 2.63801C50.1057 2.63801 49.6189 3.16229 49.6563 4.43552C49.7312 7.24413 49.7312 10.0527 49.6563 12.8614C49.6189 14.1346 50.0308 14.8461 51.3415 14.6214C54.9365 14.0222 57.7826 15.1831 59.8797 18.179C59.9546 18.2539 60.1418 18.2913 60.404 18.4037Z" fill="black" fill-opacity="0.9"/>
<path d="M30.8573 47.426C30.4454 47.6881 29.8837 47.6881 29.4718 47.426C28.236 46.7144 27.1125 46.1153 26.1389 45.3289C26.0265 45.254 25.9891 45.1042 25.9516 44.8795C25.8393 44.0182 26.5883 43.2318 27.4496 43.3441C27.6368 43.3816 27.7866 43.419 27.8989 43.5314C29.4718 45.0293 30.8573 44.9918 32.4302 43.5314C32.5425 43.419 32.6923 43.3816 32.8795 43.3441C33.7408 43.2318 34.5273 44.0182 34.3775 44.8795C34.34 45.0667 34.3026 45.1791 34.1902 45.254C33.1791 46.0778 32.0931 46.677 30.8573 47.426Z" fill="black" fill-opacity="0.9"/>
<path d="M24.0043 34.0196C25.8018 34.0196 27.4121 35.3677 27.3746 37.0529C27.3746 37.5772 26.8878 38.2887 26.401 38.5508C26.1389 38.7006 25.2027 38.1763 25.0154 37.7644C24.1916 36.0418 23.6673 36.0792 22.9932 37.8393C22.8434 38.2138 21.8698 38.6632 21.5327 38.5134C21.0459 38.2887 20.5591 37.5397 20.5591 37.0154C20.5965 35.4052 22.2442 34.0196 24.0043 34.0196Z" fill="black" fill-opacity="0.9"/>
<path d="M39.5452 36.6409C39.695 37.2401 39.5452 37.8767 39.1333 38.3261C39.021 38.4385 38.8712 38.5508 38.7588 38.5508C38.3094 38.6257 37.4856 38.2512 37.2983 37.8767C36.5868 36.3414 36.1 35.892 35.3136 37.8393C35.1638 38.2512 34.1901 38.738 33.8906 38.5883C33.4037 38.3636 32.9169 37.652 32.9169 37.1278C32.842 35.4052 34.5646 33.9821 36.3996 34.057C37.8975 34.057 39.1707 35.0681 39.5452 36.6409Z" fill="black" fill-opacity="0.9"/>
<path d="M59.2054 9.30381C58.2318 10.24 56.6215 10.2026 55.7228 9.19147C55.5355 9.00422 55.4232 8.81698 55.4232 8.5923C55.3108 7.09437 56.6964 7.46885 57.6326 7.39396C58.6063 7.31906 59.7672 7.4314 59.6174 8.66719C59.5425 8.89188 59.3927 9.11657 59.2054 9.30381Z" fill="black" fill-opacity="0.9"/>
<path d="M64.0364 8.10542C65.01 7.20666 66.5828 7.16921 67.519 8.10542C67.7063 8.29266 67.8186 8.44245 67.8186 8.62969C67.9684 9.97782 66.7701 10.0527 65.7215 10.0153C64.7104 9.97782 63.4372 10.0527 63.6244 8.66714C63.6619 8.4799 63.8117 8.29266 64.0364 8.10542Z" fill="black" fill-opacity="0.9"/>
<path d="M75.4954 9.49105C74.4843 10.2775 72.9864 10.2026 72.1251 9.22891C71.9753 9.07912 71.9004 8.89188 71.863 8.74209C71.7132 7.09437 73.1736 7.5063 74.1473 7.4314C75.1584 7.3565 76.2818 7.54374 76.0946 8.74209C76.0572 9.00422 75.8325 9.22891 75.4954 9.49105Z" fill="black" fill-opacity="0.9"/>
</svg>
