<svg width="34" height="34" viewBox="0 0 34 34" fill="none" xmlns="http://www.w3.org/2000/svg">
<path d="M25.3262 26.2003C27.1179 25.2579 28.8698 24.3687 30.5951 23.4396C31.8825 22.7361 32.3736 21.3027 31.7763 19.8294C31.4976 19.1525 31.1127 18.4358 30.5818 17.9447C27.808 15.3698 26.1888 12.1047 24.8218 8.68034C23.9193 6.42398 23.0965 4.14108 22.2603 1.85818C22.1276 1.49981 22.0082 1.32727 21.5835 1.32727C18.3717 1.35381 15.1731 1.34054 11.9613 1.34054C11.8552 1.34054 11.749 1.35381 11.5765 1.36709C11.7092 1.61927 11.8286 1.83163 11.9348 2.04399C13.5142 5.08344 15.1997 8.05653 16.6331 11.1623C18.4778 15.1574 17.9337 19.033 15.5448 22.6963C15.2926 23.0812 15.0006 23.3865 14.5228 23.0945C14.0583 22.8025 14.2043 22.4176 14.3901 21.9929C15.0139 20.639 15.7704 19.2985 16.1553 17.8783C16.726 15.8078 16.3278 13.7107 15.4386 11.7994C14.2176 9.15816 12.8373 6.58326 11.4968 4.00835C11.0058 3.03945 10.4218 2.12363 9.89092 1.18127C9.49276 0.477817 9.77147 0.0132727 10.5811 0.0132727C14.4963 0 18.4115 0.0132727 22.3267 0C22.9107 0 23.123 0.291999 23.2956 0.783089C24.5298 4.04817 25.7376 7.31325 27.0781 10.5385C28.0071 12.7683 29.3077 14.7991 31.0862 16.498C32.0683 17.4536 32.9177 18.542 33.2097 19.9489C33.6609 22.0327 32.8513 23.7714 30.9535 24.7668C29.4139 25.5765 27.8744 26.4127 26.3348 27.2356C26.2552 27.2754 26.2021 27.3417 26.0959 27.4081C26.4808 28.4699 26.6135 29.545 26.295 30.6466C25.3527 33.8586 21.4242 35.0665 18.8627 32.8897C18.4779 32.5712 18.2257 32.5181 17.7877 32.757C16.1818 33.6065 14.4299 33.9648 12.6117 33.9781C9.22732 33.9914 5.84298 33.9914 2.45864 33.9781C1.09164 33.9781 0.069699 33.049 0.00333943 31.7881C-0.0630202 30.5405 0.866014 29.4787 2.21975 29.3459C5.16612 29.0407 7.93995 28.2177 10.3687 26.4525C10.7403 26.1738 11.1252 26.1605 11.4039 26.5852C11.6826 27.0232 11.4437 27.3285 11.0854 27.5807C8.78935 29.2265 6.2146 30.1423 3.42749 30.5272C2.98952 30.5936 2.53828 30.6201 2.11357 30.7263C1.62251 30.859 1.29072 31.1908 1.3438 31.735C1.41016 32.2925 1.7685 32.6376 2.32593 32.6243C6.24114 32.5977 10.1564 32.5845 14.0583 32.4916C15.3059 32.465 16.4605 31.9739 17.6019 31.3368C17.0976 29.9963 17.0047 28.669 17.6284 27.355C18.0532 26.4658 18.6902 25.7756 19.5263 25.2978C21.4242 24.2359 23.3354 24.5279 25.3262 26.2003ZM21.8224 26.0278C20.0174 26.041 18.5442 27.5143 18.5442 29.3327C18.5442 31.1776 20.0307 32.6641 21.8755 32.6508C23.6804 32.6376 25.1536 31.1643 25.1536 29.3459C25.1536 27.501 23.6672 26.0145 21.8224 26.0278ZM29.2281 31.4828C28.883 31.2572 28.5512 31.2837 28.2991 31.6156C28.0336 31.9606 28.1398 32.2925 28.4583 32.5446C28.8034 32.8234 29.175 33.0623 29.5334 33.3277C30.7809 34.2435 30.8075 34.2834 31.7232 33.0756C31.7498 33.049 31.7896 33.0357 31.8559 33.0092C32.2143 33.2879 32.5461 33.633 32.9575 33.8321C33.1831 33.9383 33.6609 33.8852 33.8069 33.7126C33.9529 33.5401 33.8998 33.0888 33.7671 32.8632C33.5946 32.5845 33.2495 32.3986 32.9708 32.173C31.6967 31.2174 31.7896 30.8059 30.5155 32.3721C30.0642 32.0668 29.6528 31.7616 29.2281 31.4828ZM30.8871 28.815C31.4445 29.545 31.6967 29.5716 32.3868 29.0141C32.7452 28.7221 33.1035 28.4301 33.4751 28.1514C33.86 27.8461 34.2316 27.501 33.8202 27.0099C33.4486 26.5587 33.0371 26.7843 32.6655 27.0896C32.3868 27.3285 32.0948 27.5408 31.7896 27.7797C31.6436 27.5807 31.5241 27.4479 31.418 27.3152C30.9136 26.6516 30.6747 26.6118 29.9979 27.0763C29.4935 27.4347 28.9892 27.793 28.4982 28.1514C28.1531 28.4036 28.0071 28.7354 28.2725 29.1203C28.538 29.4919 28.9096 29.4787 29.2679 29.2265C29.6661 28.961 30.0642 28.669 30.5155 28.3637C30.6747 28.5496 30.7809 28.6823 30.8871 28.815ZM23.1628 13.4452C22.7647 13.1931 22.3134 13.0471 22.0082 13.5647C21.7295 14.0425 22.048 14.3212 22.4329 14.5734C23.6274 15.33 24.0919 16.3785 23.8264 17.666C23.7866 17.8783 23.707 18.0907 23.6672 18.303C23.5875 18.7012 23.6937 19.0198 24.1051 19.1392C24.5166 19.2587 24.8218 19.0861 24.928 18.688C25.074 18.157 25.1669 17.6129 25.2333 17.3076C25.22 15.476 24.5033 14.2814 23.1628 13.4452ZM13.8194 24.9261C13.8194 24.8332 13.7796 24.7536 13.7132 24.7005C13.5142 24.5412 13.3151 24.3421 13.1027 24.3023C12.6913 24.2227 12.386 24.5412 12.4524 24.9261C12.4922 25.1783 12.824 25.5234 13.0629 25.5367C13.2753 25.5499 13.5009 25.3243 13.7132 25.165C13.7796 25.1119 13.8194 25.019 13.8194 24.9261ZM21.8356 27.355C22.9239 27.3417 23.8132 28.2177 23.8397 29.3194C23.853 30.4343 22.9505 31.3501 21.8356 31.3501C20.7473 31.3368 19.8714 30.4476 19.8714 29.3592C19.8714 28.2443 20.7473 27.355 21.8356 27.355ZM21.8489 28.523C21.4109 28.523 21.0526 28.8814 21.0526 29.3194C21.0526 29.7574 21.4109 30.1157 21.8489 30.1157C22.2869 30.1157 22.6452 29.7574 22.6452 29.3194C22.6585 28.8814 22.2869 28.523 21.8489 28.523ZM13.116 24.1165C12.678 24.1165 12.3197 24.4748 12.3197 24.9128C12.3197 25.3508 12.678 25.7092 13.116 25.7092C13.554 25.7092 13.9123 25.3508 13.9123 24.9128C13.9256 24.4748 13.5672 24.1165 13.116 24.1165Z" fill="black"/>
</svg>
