<svg width="31" height="34" viewBox="0 0 31 34" fill="none" xmlns="http://www.w3.org/2000/svg">
<path d="M11.4952 18.5898C11.7329 17.6747 11.4556 17.131 10.7164 16.6535C9.02656 15.5793 8.24767 13.9614 8.26087 11.9456C8.27407 10.394 8.26087 8.8556 8.26087 7.30397C8.26087 4.82401 9.11897 3.76306 11.5085 3.27238C11.8121 0.991344 13.2115 0.142588 15.1653 1.05765C16.7099 -0.348099 17.7528 -0.348099 19.1389 1.03113C20.7759 0.394563 21.5416 0.59349 22.5978 1.95946C22.7694 1.89315 22.941 1.81358 23.1258 1.76053C24.6044 1.34941 26.0698 2.38383 26.083 3.92221C26.1094 6.87959 26.1226 9.85024 26.0698 12.8076C26.0434 14.346 25.3437 15.6324 24.1555 16.5872C23.5879 17.0381 23.4295 17.5288 23.4427 18.2184C23.4823 20.2342 23.4559 22.2368 23.4559 24.2526C23.4559 24.7433 23.3766 25.1942 22.7958 25.1942C22.2149 25.1942 22.1225 24.7433 22.1225 24.2658C22.1357 21.9848 22.1489 19.717 22.1093 17.436C22.0961 16.8392 22.2809 16.4281 22.7298 16.0833C23.6803 15.3539 24.4724 14.5184 24.6704 13.2718C24.71 13.0331 24.7496 12.7944 24.7496 12.5556C24.7496 9.77067 24.7496 6.98568 24.7496 4.2007C24.7496 4.17418 24.7496 4.16092 24.7496 4.13439C24.7232 3.45804 24.3536 3.03366 23.7727 3.03366C23.1918 3.0204 22.7958 3.44478 22.7826 4.10787C22.7694 4.79748 22.7694 5.47384 22.7826 6.16345C22.7826 6.62762 22.6242 6.95916 22.1225 6.95916C21.6208 6.95916 21.4624 6.61435 21.4624 6.15019C21.4624 5.18208 21.4624 4.2007 21.4624 3.23259C21.4624 2.47667 21.0664 2.0125 20.4591 2.0125C19.8518 2.02577 19.4822 2.47667 19.4822 3.25911C19.4822 4.18744 19.469 5.11577 19.4822 6.0441C19.4822 6.53478 19.3898 6.97242 18.7957 6.95916C18.2412 6.9459 18.1488 6.53478 18.1488 6.07062C18.162 4.90358 18.162 3.72328 18.1488 2.55624C18.1488 1.80031 17.7396 1.33615 17.1323 1.36268C16.5514 1.37594 16.1818 1.82684 16.1818 2.55624C16.1686 3.72328 16.1686 4.90358 16.1818 6.07062C16.1818 6.53478 16.0894 6.9459 15.5481 6.95916C14.9541 6.97242 14.8484 6.54804 14.8616 6.05736C14.8748 5.15555 14.8616 4.24049 14.8616 3.33869C14.8616 2.50319 14.5052 2.03903 13.8847 2.02577C13.2379 2.0125 12.8814 2.48993 12.8814 3.36521C12.8814 5.22186 12.8814 7.07852 12.8814 8.93517C12.8814 9.42586 12.855 9.94307 12.2345 9.95633C11.6009 9.96959 11.5481 9.46564 11.5613 8.96169C11.5745 7.55594 11.5613 6.13693 11.5613 4.73118C10.4655 4.73118 9.62063 5.4871 9.59423 6.56131C9.56782 8.55058 9.54142 10.5399 9.60743 12.5291C9.64703 13.789 10.2543 14.8897 11.35 15.4865C12.6438 16.1894 13.0794 17.1442 12.8946 18.55C12.789 19.3855 12.8814 20.2608 12.8814 21.335C13.3963 20.8045 13.7527 20.4066 14.1356 20.0353C15.1521 19.0407 16.5514 19.0142 17.4888 19.969C18.3997 20.9106 18.3865 22.2898 17.4095 23.2977C16.0366 24.7035 14.6372 26.0694 13.2643 27.4884C13.053 27.7139 12.8946 28.0852 12.8814 28.3903C12.8418 29.7827 12.8682 31.1752 12.8682 32.6208C15.931 32.6208 18.9805 32.6208 22.1093 32.6208C22.1093 32.0107 22.1093 31.3742 22.1093 30.7376C22.1093 30.2867 22.2545 29.9154 22.7562 29.9021C23.2974 29.8888 23.4427 30.2734 23.4427 30.7509C23.4295 31.5466 23.4295 32.3423 23.4427 33.138C23.4427 33.7082 23.1918 34 22.611 34C19.205 34 15.7858 34 12.3798 34C11.7989 34 11.5481 33.7082 11.5481 33.138C11.5613 31.8781 11.5481 30.6315 11.4028 29.2655C11.1256 29.5706 10.8616 29.8756 10.5843 30.1673C9.44901 31.3211 8.06285 31.8914 6.43906 31.8781C4.61724 31.8781 2.78223 31.8781 0.960413 31.8781C0.207924 31.8781 0.00990116 31.6924 0.00990116 30.9498C-0.00330039 29.1329 -0.00330039 27.3293 0.00990116 25.5124C0.00990116 24.7698 0.207924 24.5974 0.960413 24.5841C1.00002 24.5841 1.05282 24.5708 1.09243 24.5841C2.75582 24.9157 3.82515 24.2658 4.43242 22.6877C4.68325 22.0644 5.1057 21.5074 5.48854 20.9371C6.49186 19.4253 7.89123 18.6561 9.69984 18.6163C10.2939 18.5765 10.888 18.5898 11.4952 18.5898ZM1.35646 30.4856C3.32349 30.4856 5.23771 30.5785 7.13874 30.4458C7.89123 30.3928 8.76253 29.9949 9.31699 29.4777C11.7725 27.1436 14.1488 24.7035 16.5382 22.2898C16.9739 21.8522 16.9475 21.2554 16.5514 20.8708C16.1554 20.4862 15.6009 20.4995 15.1389 20.9106C15.0201 21.0167 14.9144 21.1228 14.8088 21.2421C13.7527 22.3031 12.6966 23.364 11.6405 24.425C10.954 25.1146 10.5975 25.2339 10.2807 24.8361C9.77905 24.1863 10.3731 23.8547 10.7296 23.4701C10.9276 23.2579 11.1388 23.0723 11.3236 22.8601C11.4292 22.7407 11.5613 22.5683 11.5613 22.4224C11.5877 21.6135 11.5745 20.8045 11.5745 19.9292C10.9804 19.9292 10.4655 19.9425 9.93747 19.9292C8.39289 19.9027 7.24435 20.5658 6.45226 21.9052C5.79218 23.0192 5.0925 24.1199 4.43242 25.2472C4.15519 25.7246 3.82515 25.9501 3.27068 25.9103C2.65021 25.8705 2.01654 25.897 1.36966 25.897C1.35646 27.4619 1.35646 28.9472 1.35646 30.4856ZM28.6573 27.7669C28.7101 27.5415 28.5913 27.21 28.4328 27.0243C28.3008 26.8519 27.984 26.8519 27.7992 26.7193C27.6407 26.6132 27.4163 26.4142 27.4295 26.2816C27.4955 25.2207 26.809 24.8891 25.9774 24.6504C25.5021 24.5178 25.0268 24.3719 24.8156 24.9687C24.6176 25.5257 25.04 25.7512 25.4889 25.897C25.8057 26.0031 26.0698 26.0827 26.1094 26.5336C26.1886 27.515 27.0599 28.2178 28.2348 28.1913C28.3272 28.1118 28.6177 27.9659 28.6573 27.7669ZM28.4988 17.9267C27.984 18.2715 27.6011 18.245 27.1655 17.8471C26.809 17.5288 26.413 17.5421 26.017 17.8073C25.7925 17.9532 25.5681 18.0726 25.3305 18.2052C24.9344 18.4306 24.5912 18.6959 24.8552 19.1998C25.1325 19.7303 25.5813 19.6507 25.9774 19.359C26.413 19.0407 26.743 19.1335 27.1523 19.412C27.4163 19.5844 27.8124 19.7038 28.1028 19.6375C28.5385 19.5181 28.9213 19.2263 29.3041 18.9611C29.4626 18.855 29.5418 18.6163 29.621 18.5235C29.6078 17.8604 29.0269 17.5686 28.4988 17.9267ZM30.0434 23.8945C30.1358 23.8945 30.215 23.8945 30.3075 23.8945C30.7431 23.8812 31.0863 23.6425 30.9807 23.2049C30.9279 22.9529 30.5187 22.5816 30.3075 22.5948C29.6078 22.6611 29.2909 22.3429 29.0401 21.7593C28.9477 21.5339 28.6573 21.3084 28.4196 21.2687C27.9708 21.1891 27.4823 21.1758 27.0467 21.2819C26.809 21.335 26.479 21.693 26.479 21.9052C26.479 22.1307 26.8222 22.3694 27.0467 22.5551C27.1259 22.6214 27.3107 22.5816 27.4295 22.5683C27.8388 22.502 28.0896 22.6479 28.2216 23.059C28.446 23.7619 28.9081 24.0536 29.5286 23.8945C29.7794 23.8945 29.9114 23.8945 30.0434 23.8945ZM22.677 26.8651C22.2545 26.8651 21.9113 27.2099 21.9113 27.6343C21.9113 28.0587 22.2545 28.4035 22.677 28.4035C23.0994 28.4035 23.4427 28.0587 23.4427 27.6343C23.4427 27.2099 23.0994 26.8651 22.677 26.8651Z" fill="black"/>
</svg>
