<svg width="78" height="78" viewBox="0 0 78 78" fill="none" xmlns="http://www.w3.org/2000/svg">
<path d="M32.4329 62.2984C39.0288 62.6864 45.4307 61.9104 51.5524 59.4747C53.5571 58.6771 55.5186 57.7071 57.4586 56.7156C60.6704 55.0558 64.9814 55.6809 67.4387 59.6687C67.8267 60.3153 67.6758 61.0051 67.0723 61.4362C66.9861 61.5009 66.8998 61.5655 66.7921 61.6086C60.3039 64.9066 53.8804 68.3124 47.3492 71.5025C41.5292 74.3479 35.3213 75.1023 28.8978 74.6065C24.8238 74.2832 20.7499 74.0245 16.6759 73.7443C15.7922 73.6796 14.9084 73.615 14.0246 73.5719C12.2571 73.5072 10.6404 74.0245 9.13156 74.9514C7.98913 75.6627 6.86825 76.3956 5.72582 77.1285C4.64805 77.7967 3.80739 77.4518 3.50562 76.2232C2.57874 72.5588 1.67342 68.8943 0.768093 65.2084C0.530984 64.2815 0.293875 63.3331 0.078322 62.3846C-0.137231 61.5009 0.078322 60.9835 0.897425 60.6171C7.4718 57.7502 14.0677 54.9481 21.2025 53.8056C24.3065 53.3098 27.432 52.9865 30.5576 52.5985C33.1658 52.2752 35.7955 51.9734 38.4037 51.7147C39.2444 51.6285 40.1497 51.5639 40.9688 51.7363C42.801 52.1243 44.1159 53.7625 44.1805 55.5085C44.2667 57.2976 43.0812 59.022 41.1843 59.6687C39.2012 60.3369 37.175 60.8758 35.1704 61.4578C34.2435 61.7595 33.3382 62.0182 32.4329 62.2984ZM64.5503 59.798C63.645 59.3453 62.9337 58.8496 62.1577 58.5909C60.7997 58.1382 59.5279 58.5047 58.2993 59.1945C52.5224 62.3846 46.3576 64.3893 39.7832 64.7773C34.2004 65.1006 28.596 64.9497 23.0132 64.9928C22.8408 64.9928 22.5821 64.9928 22.4743 64.8851C22.151 64.5402 21.6768 64.1522 21.6552 63.7426C21.6337 63.3331 22.0648 62.8804 22.3665 62.514C22.4959 62.3631 22.7976 62.3415 23.0347 62.2769C28.6607 60.6171 34.3082 58.9573 39.9341 57.2976C41.0981 56.9527 41.7017 56.112 41.4861 55.2929C41.2706 54.4738 40.4083 54.0858 39.2228 54.2583C39.2012 54.2583 39.1797 54.2798 39.1366 54.2798C36.0111 54.6247 32.8855 54.948 29.76 55.3576C26.2249 55.8318 22.6683 56.2629 19.1763 56.9311C14.0893 57.8796 9.304 59.8627 4.56183 61.8673C4.00139 62.1044 3.44095 62.3415 2.8374 62.6002C3.76428 66.437 4.69116 70.2308 5.6396 74.0892C6.43714 73.615 7.10536 73.1839 7.79513 72.7743C9.97222 71.4594 12.3217 70.8559 14.8868 71.0714C16.1802 71.1792 17.4519 71.2654 18.7452 71.3517C22.4312 71.5888 26.0956 71.8259 29.7816 72.063C35.4075 72.451 40.8826 71.7612 45.9696 69.3039C52.0482 66.3508 58.0406 63.1822 64.0545 60.1213C64.1623 60.0567 64.2485 59.992 64.5503 59.798Z" fill="black" fill-opacity="0.8"/>
<path d="M44.1805 39.8808C44.1805 41.7346 44.1805 43.3081 44.1805 44.9032C44.1805 46.0241 43.7494 46.4767 42.6285 46.4767C41.0765 46.4767 39.503 46.4767 37.951 46.4767C36.8948 46.4767 36.4421 46.0241 36.4421 44.9463C36.4421 43.3297 36.4421 41.7346 36.4421 40.0101C34.8255 40.0101 33.295 40.0101 31.7431 40.0101C30.3635 40.0101 29.9971 39.6437 29.9971 38.2426C29.9971 36.7337 29.9971 35.2249 29.9971 33.716C29.9971 32.746 30.4713 32.2718 31.4197 32.2718C33.0579 32.2502 34.6961 32.2718 36.5714 32.2718C36.4421 30.7629 36.5714 29.2325 36.1403 27.8745C32.1526 15.6095 40.1065 2.41765 52.8026 0.305225C64.27 -1.59164 74.9184 5.52161 77.3326 16.9459C79.9192 29.1463 71.642 40.3335 60.0883 42.295C55.4539 43.071 51.0782 42.3597 46.8318 40.355C46.0773 39.9886 45.1289 40.0317 44.1805 39.8808ZM44.1805 32.2718C45.9049 32.2718 47.5216 32.2718 49.1166 32.2718C50.1729 32.2718 50.6255 32.7244 50.6255 33.8022C50.6255 35.3111 50.6471 36.82 50.604 38.3288C50.5824 38.8677 50.7333 39.1264 51.2937 39.2773C54.0097 40.0317 56.7257 40.2257 59.5063 39.7515C69.4864 38.0702 76.3626 28.7798 74.983 18.7781C73.4526 7.61248 62.4378 0.326781 51.5308 3.25831C41.9818 5.82339 35.9463 15.7604 38.145 25.2232C38.2528 25.719 38.4468 25.8698 38.9425 25.8698C40.1712 25.8483 41.4214 25.8483 42.65 25.8698C43.7063 25.8698 44.1589 26.3225 44.1589 27.4003C44.1805 28.9523 44.1805 30.5689 44.1805 32.2718ZM48.0173 34.8584C46.2929 34.8584 44.6331 34.8584 42.9949 34.8584C42.0681 34.8584 41.6154 34.3842 41.5938 33.4789C41.5723 32.7029 41.5938 31.9269 41.5938 31.1509C41.5938 30.2456 41.5938 29.3403 41.5938 28.478C40.667 28.478 39.8694 28.478 39.0072 28.478C39.0072 30.0947 39.0072 31.6898 39.0072 33.2633C39.0072 34.4704 38.5976 34.88 37.3474 34.88C35.7739 34.88 34.2004 34.88 32.6053 34.88C32.6053 35.7853 32.6053 36.6044 32.6053 37.4666C34.1573 37.4666 35.6661 37.4666 37.1534 37.4666C38.6623 37.4666 39.0072 37.8115 39.0072 39.2988C39.0072 40.8292 39.0072 42.3381 39.0072 43.847C39.9341 43.847 40.7532 43.847 41.5938 43.847C41.5938 42.2088 41.5938 40.6137 41.5938 39.0402C41.5938 37.8762 42.0249 37.4666 43.2105 37.4666C43.8356 37.4666 44.4391 37.4666 45.0642 37.4666C46.0558 37.4666 47.0258 37.4666 48.0173 37.4666C48.0173 36.5182 48.0173 35.7206 48.0173 34.8584Z" fill="black" fill-opacity="0.8"/>
<path d="M15.7705 12.8504C14.8868 12.8504 14.0892 12.8504 13.2054 12.8504C13.2054 11.1691 13.2054 9.50937 13.2054 7.74183C11.4379 7.74183 9.77814 7.74183 8.05371 7.74183C8.05371 6.85807 8.05371 6.06052 8.05371 5.17675C9.73503 5.17675 11.4163 5.17675 13.1623 5.17675C13.1623 3.40921 13.1623 1.74945 13.1623 0.0250244C14.0461 0.0250244 14.8436 0.0250244 15.7274 0.0250244C15.7274 1.70634 15.7274 3.3661 15.7274 5.13364C17.4949 5.13364 19.1547 5.13364 20.8791 5.13364C20.8791 6.01741 20.8791 6.81495 20.8791 7.69872C19.1978 7.69872 17.5381 7.69872 15.7705 7.69872C15.7705 9.46626 15.7705 11.1476 15.7705 12.8504Z" fill="black" fill-opacity="0.8"/>
<path d="M8.01053 40.0317C8.01053 38.7168 8.01053 37.4882 8.01053 36.2164C8.87275 36.2164 9.69185 36.2164 10.5972 36.2164C10.5972 37.4666 10.5972 38.7169 10.5972 40.0102C11.912 40.0102 13.1407 40.0102 14.4125 40.0102C14.4125 40.8724 14.4125 41.6915 14.4125 42.5968C13.1623 42.5968 11.912 42.5968 10.6187 42.5968C10.6187 43.9117 10.6187 45.1403 10.6187 46.4121C9.75652 46.4121 8.93741 46.4121 8.03209 46.4121C8.03209 45.1619 8.03209 43.9117 8.03209 42.6184C6.71721 42.6184 5.48856 42.6184 4.2168 42.6184C4.2168 41.7561 4.2168 40.937 4.2168 40.0317C5.44545 40.0317 6.69566 40.0317 8.01053 40.0317Z" fill="black" fill-opacity="0.8"/>
<path d="M75.1341 52.9218C74.2719 52.9218 73.4744 52.9218 72.5906 52.9218C72.5906 53.784 72.5906 54.6031 72.5906 55.4653C71.7068 55.4653 70.9093 55.4653 70.0255 55.4653C70.0255 54.6462 70.0255 53.8271 70.0255 52.9218C69.1202 52.9218 68.3011 52.9218 67.4604 52.9218C67.4604 52.038 67.4604 51.2405 67.4604 50.3567C68.2796 50.3567 69.0987 50.3567 70.004 50.3567C70.004 49.4514 70.004 48.6323 70.004 47.7916C70.8877 47.7916 71.6853 47.7916 72.5691 47.7916C72.5691 48.6107 72.5691 49.4298 72.5691 50.3352C73.4744 50.3352 74.2935 50.3352 75.1341 50.3352C75.1341 51.2189 75.1341 52.0165 75.1341 52.9218Z" fill="black" fill-opacity="0.8"/>
<path d="M68.7966 31.5174C68.1068 32.0347 67.4601 32.5305 66.7488 33.0694C65.5417 31.4527 64.3562 29.8792 63.2353 28.3703C62.0066 28.7152 60.8426 29.1679 59.6571 29.3619C56.4885 29.8792 53.8587 28.7799 51.7032 26.4303C49.9141 24.4904 48.9657 22.0977 48.0819 19.662C47.1766 17.1615 46.2281 14.7042 45.2797 12.2254C44.8917 11.2123 45.409 10.2638 46.4868 10.3285C51.4014 10.6518 56.2729 11.2985 60.6918 13.6911C63.2568 15.0922 65.2184 17.0107 65.865 20.0284C66.2746 21.9899 66.0806 23.8868 65.283 25.6975C65.0675 26.1932 65.1106 26.5166 65.4339 26.9261C66.5548 28.4134 67.6326 29.9223 68.7966 31.5174ZM49.5477 15.3725C49.8925 17.4849 51.4876 21.7744 52.7163 23.4557C53.3198 24.2964 54.0312 25.1155 54.8287 25.7406C56.7687 27.2063 59.8296 27.271 61.4678 25.9777C58.1698 21.7097 54.2252 18.1962 49.5477 15.3725ZM51.7679 13.6265C56.0789 16.4287 59.8511 19.8128 63.1491 23.8653C63.5371 22.6366 63.5371 21.5373 63.2784 20.4164C62.7611 18.2393 61.1875 16.9675 59.3553 15.9544C57.0274 14.6611 54.4407 14.036 51.7679 13.6265Z" fill="black" fill-opacity="0.8"/>
</svg>
