<svg width="28" height="37" viewBox="0 0 28 37" fill="none" xmlns="http://www.w3.org/2000/svg">
<path d="M7.86474 0.0147675C9.91074 0.0147675 11.9567 0.0288779 14.0027 0.000657179C14.6095 -0.0134532 14.9623 0.198202 15.1598 0.776727C16.3874 4.27609 17.6714 7.76135 18.8849 11.2607C19.6046 13.3349 19.3223 15.4515 18.8003 17.5116C17.3046 23.4238 15.7665 29.3361 14.2708 35.2483C14.1015 35.9256 13.7488 36.1514 13.0856 36.1373C9.74142 36.1091 6.41138 36.1232 3.06722 36.1232C2.12183 36.1232 1.89606 35.8833 2.03717 34.9238C2.46048 31.9747 2.81324 29.0115 3.36354 26.0766C3.65986 24.468 4.28071 22.93 4.81691 21.3778C5.31077 19.9527 5.22611 18.6122 4.49237 17.3C3.75863 15.9595 2.99667 14.6331 2.30526 13.2785C0.640241 10.0754 0.287482 6.59019 0.428586 3.03438C0.456806 2.39942 0.485027 1.76445 0.527358 1.12949C0.569689 0.198202 0.753124 0.0147675 1.6703 0.0147675C3.73041 0.0147675 5.80463 0.0147675 7.86474 0.0147675ZM17.6432 11.9662C17.0506 10.3012 16.4862 8.79141 15.9782 7.25338C15.8371 6.81596 15.6113 6.68897 15.1598 6.68897C14.1015 6.71719 13.0432 6.71719 11.985 6.67486C11.731 6.66074 11.4206 6.44909 11.2653 6.25154C11.1666 6.12455 11.2089 5.72946 11.3359 5.61658C11.5475 5.43314 11.858 5.30615 12.1402 5.30615C13.142 5.26382 14.1439 5.29204 15.2586 5.29204C14.8353 4.12088 14.4402 3.07671 14.1015 2.00433C13.9604 1.53869 13.7488 1.41169 13.2549 1.41169C9.68498 1.43991 6.11506 1.4258 2.53103 1.4258C2.34759 1.4258 2.16416 1.4258 1.89606 1.4258C1.89606 2.72396 1.89606 3.96567 1.89606 5.29204C2.15005 5.29204 2.38993 5.29204 2.64391 5.29204C3.58931 5.29204 4.52059 5.29204 5.46598 5.30615C5.93162 5.32026 6.29849 5.57425 6.19972 6.03989C6.14328 6.30799 5.74819 6.54786 5.45187 6.70308C5.24022 6.80185 4.9439 6.7313 4.68991 6.7313C3.78685 6.7313 2.86968 6.7313 1.86784 6.7313C1.99484 7.49326 2.09361 8.14233 2.19238 8.76319C2.82735 8.81963 3.33532 8.84785 3.84329 8.93251C5.48009 9.21472 6.90524 9.8638 7.44143 11.5711C7.99174 13.3067 7.31444 14.746 6.08684 15.9736C5.93162 16.1288 5.74819 16.284 5.57887 16.4533C6.52426 18.0901 6.83469 19.7693 6.21383 21.5613C5.71997 23.0288 5.25433 24.5103 4.8028 25.9919C4.61936 26.5846 4.52059 27.1913 4.35126 27.8968C4.74635 27.8968 5.00034 27.8968 5.25433 27.8968C7.75186 27.8968 10.2353 27.8968 12.7328 27.8968C14.6377 27.8968 14.6518 27.8968 15.1175 26.0484C15.3573 25.1171 15.5831 24.1717 15.8089 23.2545C14.8917 23.1558 14.0592 23.1557 13.269 22.9582C10.588 22.2668 8.86658 19.7128 9.13468 16.9331C9.40277 14.238 11.6463 12.1073 14.4119 11.9662C15.442 11.9239 16.4721 11.9662 17.6432 11.9662ZM14.2991 29.2938C10.9549 29.2938 7.73775 29.2938 4.5347 29.3079C4.37949 29.3079 4.11139 29.5477 4.09728 29.703C3.87151 31.3539 3.67397 33.0048 3.47642 34.6839C6.66536 34.6839 9.79786 34.6839 12.9445 34.6839C13.396 32.906 13.8334 31.1563 14.2991 29.2938ZM17.996 13.3914C16.6273 13.3914 15.4984 13.3491 14.3696 13.4055C12.4506 13.5043 10.9126 14.9435 10.5598 16.8625C10.2353 18.6969 11.223 20.6441 13.0009 21.3214C13.8052 21.6318 14.7365 21.6036 15.6113 21.7306C16.0629 21.8012 16.2745 21.6318 16.3733 21.1662C16.6696 19.8963 17.0929 18.6404 17.361 17.3564C17.6432 16.0865 17.7843 14.7883 17.996 13.3914ZM4.83102 15.1693C6.14328 14.0122 6.53837 12.6859 6.00218 11.6699C5.4942 10.7245 3.81507 10.0472 2.50281 10.3718C3.27888 11.9662 4.04084 13.5325 4.83102 15.1693Z" fill="black"/>
<path d="M27.9999 16.8202C27.9435 19.3883 27.0969 21.6742 25.3049 23.5791C24.9521 23.9601 24.557 24.2423 24.1055 23.7907C23.6963 23.3815 23.922 23.0006 24.2466 22.6196C27.3509 19.1343 27.3509 14.5061 24.2325 10.9927C23.8938 10.6117 23.6963 10.2307 24.1196 9.82149C24.5429 9.41229 24.9239 9.65217 25.2625 10.0049C27.0687 11.9239 27.9435 14.1957 27.9999 16.8202Z" fill="black"/>
<path d="M24.5574 16.792C24.5715 18.4429 24.0212 19.868 22.9347 21.1097C22.6102 21.4907 22.2292 21.8294 21.7354 21.406C21.2697 20.9968 21.4955 20.5877 21.8341 20.1926C23.5838 18.1324 23.5838 15.522 21.8341 13.4478C21.4955 13.0386 21.2556 12.6294 21.7354 12.2343C22.2151 11.8251 22.5961 12.1638 22.9347 12.5447C23.993 13.7582 24.5433 15.1693 24.5574 16.792Z" fill="black"/>
<path d="M8.75401 6.8018C8.65524 6.8018 8.55647 6.75947 8.50003 6.68892C8.30248 6.46315 8.03438 6.22327 8.0626 6.02573C8.09082 5.77174 8.45769 5.41898 8.72579 5.36254C8.90923 5.32021 9.34665 5.72941 9.36076 5.95518C9.38898 6.16683 9.17732 6.42082 9.008 6.6607C8.95156 6.74536 8.85278 6.78769 8.75401 6.8018Z" fill="black"/>
</svg>
