<svg width="141" height="37" viewBox="0 0 141 37" fill="none" xmlns="http://www.w3.org/2000/svg">
<path d="M58 1.78125H60.7043L62.3462 11.0684L63.6983 1.78125H66.9821L68.5274 11.0684L70.0726 1.78125H72.4872L70.1692 13.9408H66.8855L65.3402 4.17486L63.7949 13.9408H60.5111L58 1.78125Z" fill="#272635"/>
<path d="M74.7085 1.78125H81.6623V3.79188H77.5093V6.6642H81.4692V8.67483H77.5093V11.8344H81.8555V13.845H74.7085V1.78125Z" fill="#272635"/>
<path d="M84.4631 1.78125H87.264V11.7386H91.3204V13.9408H84.4631V1.78125Z" fill="#272635"/>
<path d="M93.1555 1.78125H95.9564V11.7386H100.013V13.9408H93.1555V1.78125Z" fill="#272635"/>
<path d="M101.848 1.78125H105.131L108.801 10.6855V1.78125H111.216V13.9408H107.932L104.262 5.03655V13.9408H101.848V1.78125Z" fill="#272635"/>
<path d="M114.21 1.78125H121.164V3.79188H117.011V6.6642H120.971V8.67483H117.011V11.8344H121.357V13.845H114.21V1.78125Z" fill="#272635"/>
<path d="M130.436 1.97274L130.243 4.17485C129.856 3.98337 129.373 3.88762 128.987 3.79188C128.601 3.69613 128.215 3.60039 127.828 3.60039C127.249 3.60039 126.862 3.69613 126.573 3.88762C126.283 4.07911 126.09 4.36634 126.09 4.84506C126.09 5.22804 126.186 5.51527 126.476 5.8025C126.766 6.08974 127.249 6.37697 128.021 6.75995C129.277 7.33441 130.146 7.90887 130.532 8.48334C130.919 8.96206 131.112 9.63227 131.112 10.494C131.112 11.6429 130.726 12.6003 129.953 13.2705C129.18 13.9408 128.021 14.1322 126.669 14.1322C126.186 14.1322 125.703 14.1322 125.221 14.0365C124.738 13.9408 124.158 13.845 123.579 13.6535L123.772 11.4514C124.255 11.7386 124.738 11.9301 125.221 12.0259C125.703 12.1216 126.09 12.2174 126.573 12.2174C127.152 12.2174 127.538 12.1216 127.925 11.8344C128.215 11.5472 128.408 11.2599 128.408 10.7812C128.408 10.111 127.732 9.53652 126.476 8.86632C126.283 8.77057 126.186 8.77057 126.09 8.67483C125.027 8.19611 124.351 7.62164 124.062 7.14292C123.675 6.6642 123.579 5.99399 123.579 5.22804C123.579 4.07911 123.965 3.21741 124.738 2.5472C125.51 1.877 126.573 1.58976 127.925 1.58976C128.311 1.58976 128.794 1.58976 129.18 1.68551C129.47 1.68551 129.856 1.78125 130.436 1.97274Z" fill="#272635"/>
<path d="M139.611 1.97274L139.418 4.17486C139.032 3.98337 138.549 3.88762 138.162 3.79188C137.776 3.69613 137.39 3.60039 137.003 3.60039C136.424 3.60039 136.038 3.69613 135.748 3.88762C135.458 4.07911 135.265 4.36634 135.265 4.84506C135.265 5.22804 135.361 5.51527 135.651 5.80251C135.941 6.08974 136.424 6.37697 137.196 6.75995C138.452 7.33441 139.321 7.90888 139.708 8.48334C140.094 8.96206 140.287 9.63227 140.287 10.494C140.287 11.6429 139.901 12.6003 139.128 13.2705C138.355 13.9408 137.293 14.3237 135.941 14.3237C135.458 14.3237 134.975 14.3237 134.492 14.228C134.009 14.1322 133.43 14.0365 132.85 13.845L133.044 11.6429C133.526 11.9301 134.009 12.1216 134.492 12.2174C134.975 12.3131 135.361 12.4088 135.844 12.4088C136.424 12.4088 136.81 12.3131 137.196 12.0259C137.486 11.7386 137.679 11.4514 137.679 10.9727C137.679 10.3025 137.003 9.72801 135.748 9.0578C135.555 8.96206 135.458 8.96206 135.361 8.86632C134.299 8.3876 133.623 7.81313 133.333 7.33441C132.947 6.85569 132.85 6.18548 132.85 5.41953C132.85 4.2706 133.237 3.4089 134.009 2.73869C134.782 2.06849 135.844 1.78125 137.196 1.78125C137.583 1.78125 138.066 1.78125 138.452 1.877C138.645 1.68551 139.128 1.78125 139.611 1.97274Z" fill="#272635"/>
<path d="M58.9658 24.3769H62.9256L65.147 32.5151L67.3684 24.3769H71.3282V36.5364H68.8171V26.4832L65.9197 36.6321H64.2778L61.3804 26.4832V36.6321H58.9658V24.3769Z" fill="#272635"/>
<path d="M74.3223 24.3769H81.2761V26.3875H77.1231V29.2598H81.0829V31.3662H77.1231V34.5257H81.4693V36.5364H74.3223V24.3769Z" fill="#272635"/>
<path d="M84.0769 24.3769H86.9743C87.1675 24.3769 87.2641 24.3769 87.4572 24.3769C87.6504 24.3769 87.6504 24.3769 87.747 24.3769C89.2923 24.3769 90.4513 24.6641 91.1273 25.1428C91.8034 25.6215 92.1897 26.4832 92.1897 27.6322C92.1897 28.3981 91.9966 28.9726 91.6102 29.4513C91.2239 29.93 90.6444 30.313 89.8718 30.4087C90.2581 30.5045 90.5478 30.696 90.741 30.8875C90.9342 31.0789 91.2239 31.6534 91.4171 32.3236L92.7692 36.4406H89.8718L88.906 32.9938C88.7128 32.3236 88.5196 31.9406 88.3265 31.7492C88.1333 31.5577 87.8436 31.4619 87.3607 31.4619H86.8778V36.4406H84.0769V24.3769ZM86.8778 26.3875V29.547H87.4572C88.1333 29.547 88.7128 29.4513 89.0025 29.1641C89.2923 28.8768 89.4854 28.4939 89.4854 28.0151C89.4854 27.4407 89.3889 27.0577 89.0991 26.7705C88.8094 26.4832 88.3265 26.3875 87.5538 26.3875H86.8778Z" fill="#272635"/>
<path d="M103.49 24.6641L103.297 26.8662C102.91 26.6747 102.524 26.4832 102.041 26.3875C101.655 26.2917 101.172 26.196 100.592 26.196C99.4334 26.196 98.5641 26.579 97.9846 27.3449C97.4051 28.1109 97.0188 29.1641 97.0188 30.5045C97.0188 31.8449 97.3086 32.8981 97.7915 33.664C98.371 34.43 99.1436 34.7172 100.109 34.7172C100.303 34.7172 100.399 34.7172 100.592 34.7172C100.785 34.7172 100.979 34.6215 101.075 34.5257V31.6534H99.5299V29.6428H103.78V36.1534C103.297 36.3449 102.717 36.5364 102.041 36.6321C101.365 36.7279 100.689 36.8236 99.9163 36.8236C97.9846 36.8236 96.5359 36.2491 95.4735 35.1959C94.4111 34.1428 93.9282 32.6109 93.9282 30.696C93.9282 28.6853 94.5077 27.0577 95.5701 25.9088C96.6325 24.7598 98.2744 24.1854 100.206 24.1854C100.785 24.1854 101.268 24.1854 101.848 24.2811C102.524 24.3769 103.007 24.4726 103.49 24.6641Z" fill="#272635"/>
<path d="M106.58 24.3769H113.534V26.3875H109.381V29.2598H113.341V31.3662H109.381V34.5257H113.727V36.5364H106.58V24.3769Z" fill="#272635"/>
<path d="M27.1451 3.55097C27.1451 5.50124 25.5448 7.10194 23.5538 7.10194C21.5629 7.10194 19.9626 5.51964 19.9626 3.55097C19.9626 1.5823 21.5629 0 23.5538 0C25.5448 0 27.1451 1.5823 27.1451 3.55097Z" fill="#FF6E00"/>
<path d="M46.4035 12.8424C45.3987 12.7688 42.9054 12.5296 39.2956 13.4863C38.8304 9.78816 37.807 6.91795 36.5417 3.86375C31.4619 5.63003 26.9217 8.55544 23.5538 11.8488C20.1859 8.55544 15.6457 5.61163 10.5659 3.86375C9.30064 6.91795 8.25863 9.78816 7.81206 13.4863C3.92314 12.4744 1.69027 12.7688 0.704084 12.8424C-0.375137 18.4172 0.443582 24.7464 3.88593 29.3645C8.74242 35.9145 16.4644 36.4112 20.4464 37C18.7717 35.3993 14.9945 31.186 14.1944 30.1556L14.1757 30.1372C10.6031 25.5191 9.48671 20.6987 9.74722 15.0686C9.80304 13.9095 10.0077 12.7504 10.1938 11.8856C10.5473 10.0641 11.0869 8.26106 11.7568 6.47638C13.6733 7.28593 18.2135 9.47538 22.1769 13.3391C20.7069 14.995 19.4788 16.7613 18.5112 18.6196C18.5112 18.6196 15.7201 16.1358 11.366 14.627C11.2916 15.3446 11.273 16.1174 11.2916 16.8349C17.6553 19.5579 21.9164 24.3048 23.5538 27.0278C24.9121 25.2616 25.8239 23.8816 27.8707 22.005C28.2428 23.0353 28.5592 24.084 28.7638 25.1512C28.1312 26.1631 26.0472 29.3093 23.5724 31.3332C21.0976 29.3093 19.0136 26.1631 18.381 25.1512C18.4926 24.5992 18.5857 24.1024 18.7531 23.5505C18.2693 23.0721 17.6553 22.5569 17.0227 22.0786C16.6133 23.3113 16.39 24.36 16.1853 25.5375C18.6601 30.0268 21.414 32.2347 23.5352 33.9274C25.7867 32.1611 28.8941 29.5669 30.9595 25.5375C29.9919 20.2203 26.8287 15.639 25.9355 14.5351C25.4331 15.0134 24.9121 15.547 24.4842 16.0438C25.4704 17.3133 26.3077 18.638 26.9775 20.0179C25.7122 21.1218 24.5772 22.2994 23.5538 23.5873C22.5118 22.281 21.3954 21.1034 20.1301 20.0179C21.7861 16.6877 24.7261 13.3759 26.1216 12.2904C29.7686 9.08901 33.6389 7.24913 35.3694 6.51318C36.3556 9.10741 37.0069 11.6464 37.2674 14.1119C34.4949 15.0502 32.0387 16.3197 29.75 17.8836C30.085 18.454 30.4013 19.1164 30.6804 19.7603C32.7272 18.3252 35.7416 16.7061 38.421 15.8966C40.8772 15.1606 43.4636 14.811 44.6358 14.811C44.8777 17.0005 45.1941 23.2561 41.5656 28.1686C39.4816 30.9652 36.43 32.8971 32.4667 33.9458C35.4066 30.9652 39.4444 25.3536 39.5188 17.0741C38.8118 17.2765 38.0861 17.4973 37.4162 17.7364C37.2301 23.1273 35.2764 27.1198 32.9505 30.1372C32.783 30.3212 29.2104 34.5714 26.6798 37C30.6618 36.4296 38.3838 35.9329 43.2403 29.3645C46.664 24.7464 47.4827 18.4172 46.4035 12.8424ZM14.6595 33.9274C10.6962 32.8787 7.64459 30.9468 5.56058 28.1502C1.91356 23.2561 2.22988 17.0005 2.49038 14.7926C2.50899 14.7926 2.5276 14.7926 2.5276 14.7926C4.03478 14.7926 5.78387 15.0502 7.62599 15.5654C7.19802 24.6728 11.5521 30.7628 14.6595 33.9274Z" fill="#FF6E00"/>
<path d="M42.5438 5.87056C43.261 5.87056 43.8424 5.29417 43.8424 4.58316C43.8424 3.87215 43.261 3.29576 42.5438 3.29576C41.8265 3.29576 41.2451 3.87215 41.2451 4.58316C41.2451 5.29417 41.8265 5.87056 42.5438 5.87056Z" fill="#FF6E00"/>
<path d="M1.9969 5.87056C2.71413 5.87056 3.29556 5.29417 3.29556 4.58316C3.29556 3.87215 2.71413 3.29576 1.9969 3.29576C1.27967 3.29576 0.698242 3.87215 0.698242 4.58316C0.698242 5.29417 1.27967 5.87056 1.9969 5.87056Z" fill="#FF6E00"/>
</svg>
