<svg width="85" height="85" viewBox="0 0 85 85" fill="none" xmlns="http://www.w3.org/2000/svg">
<g opacity="0.8">
<path d="M8.55727 25.9416C8.01484 23.5006 7.43851 21.1953 7.06559 18.89C5.54 9.77039 12.4221 1.93906 21.3044 0.413475C29.4408 -1.0104 36.1195 1.32882 40.8318 8.41431C41.9167 10.0416 42.154 10.0755 43.2728 8.31261C49.8497 -2.09526 62.868 -1.45113 69.8518 3.29513C76.4288 7.77018 78.6663 14.8896 76.0898 23.3311C75.8524 24.1448 75.5812 24.9245 75.2422 25.9416C77.4458 25.9416 79.5478 25.8738 81.6158 25.9755C82.226 26.0094 83.1413 26.2806 83.3109 26.7213C83.8194 27.9079 82.9718 28.3486 81.9209 28.3486C79.7173 28.3825 77.5136 28.2808 75.31 28.4164C74.7337 28.4503 73.8861 28.891 73.6149 29.3657C70.5299 35.0273 66.5972 40.0447 62.0544 44.5537C56.2911 50.2831 50.2904 55.7752 44.3576 61.3351C42.8659 62.759 41.3743 62.8268 39.9843 61.5724C31.441 53.9445 22.7621 46.3844 15.7106 37.2648C13.8121 34.8239 12.2187 32.1456 10.5914 29.5013C10.0829 28.6537 9.57432 28.3147 8.62507 28.3147C6.48925 28.3825 4.31954 28.4164 2.18372 28.2808C1.64129 28.2469 1.13276 27.5689 0.590332 27.1959C1.13276 26.7552 1.67519 26.0094 2.21762 25.9755C4.31954 25.8399 6.45535 25.9416 8.55727 25.9416ZM45.8832 31.671C47.9851 28.3486 49.9175 25.2974 51.8838 22.2463C52.8331 20.7546 53.3755 20.7207 54.6299 21.9412C55.5791 22.8904 56.4606 23.9753 57.5115 24.7889C58.1896 25.3313 59.1388 25.806 59.9864 25.8399C62.8002 25.9755 65.648 25.8738 68.4618 25.8738C73.0725 25.8738 73.1064 25.8738 74.1574 21.3309C75.2761 16.6186 74.971 12.2113 71.852 8.177C66.2921 1.09151 51.816 -0.9426 45.0696 9.80429C43.205 12.7877 40.8996 12.7877 38.9672 9.87209C34.7634 3.53245 28.7967 1.46443 21.5078 2.7527C14.8969 3.90537 9.74383 8.99064 9.37091 15.4659C9.2014 18.4154 10.2863 21.4326 10.8287 24.3821C11.0321 25.5687 11.744 25.9755 12.9645 25.9416C17.3717 25.8738 21.779 25.9416 26.1862 25.9077C27.3389 25.9077 28.0508 26.3145 28.5933 27.3655C29.7798 29.6708 31.0342 31.9083 32.3564 34.3492C32.6615 33.6712 32.9327 33.1966 33.1361 32.688C34.8651 28.5859 36.5263 24.4499 38.2892 20.3817C38.5943 19.7036 39.3062 19.229 39.8487 18.6866C40.3233 19.229 41.0013 19.7036 41.2726 20.3478C42.832 23.9753 44.2898 27.7045 45.8832 31.671ZM71.4791 28.3486C67.1736 28.3486 63.4105 28.2808 59.6474 28.3825C58.0879 28.4164 56.9013 28.0435 55.986 26.7891C55.3079 25.8399 54.5621 24.9584 53.7145 23.8736C51.3075 27.6706 49.3073 30.8573 47.2054 34.0102C46.7986 34.5865 46.0866 34.9595 45.5103 35.4341C45.0357 34.8578 44.3915 34.3492 44.1203 33.7051C42.6625 30.2471 41.3065 26.7213 39.8487 23.026C39.5436 23.6701 39.3063 24.1109 39.1028 24.5855C37.3738 28.7554 35.6448 32.8915 33.882 37.0275C33.6446 37.5699 33.0683 38.1462 32.5259 38.2479C32.153 38.3158 31.5427 37.6716 31.2376 37.197C30.6613 36.3494 30.2545 35.4341 29.7798 34.5187C28.6611 32.5185 27.983 29.7047 26.254 28.7215C24.4572 27.6706 21.6773 28.3486 19.3042 28.3147C17.2022 28.2808 15.0664 28.3147 12.5577 28.3147C20.2534 41.2991 31.3732 50.4526 42.0523 60.2502C52.6975 50.4187 63.7834 41.2652 71.4791 28.3486Z" fill="black"/>
<path d="M18.2531 73.7772C16.3546 72.455 14.829 71.1667 13.1339 70.2514C8.86229 67.946 6.59087 64.3185 5.26869 59.7757C3.84482 54.7921 2.08192 49.9102 0.420728 45.0284C-0.325113 42.8926 -0.0877997 40.9263 1.20047 39.0956C2.75996 36.8919 5.60771 36.4512 7.54012 38.3158C8.72668 39.4685 9.70984 40.9263 10.4557 42.384C11.8457 45.1979 12.9983 48.1473 14.1849 51.0629C14.49 51.8087 14.8629 52.1139 15.7444 52.2495C16.7614 52.3851 17.7785 52.8597 18.6599 53.4021C21.406 55.2328 23.9486 57.3348 27.1693 58.5213C30.017 59.5723 31.4748 62.0471 32.2207 64.9288C32.8987 67.607 33.5089 70.2853 34.2548 72.9296C34.3904 73.4042 35.0006 74.0145 35.5092 74.1162C37.2042 74.523 38.0179 75.4722 38.0179 77.2012C38.0179 78.5573 38.0518 79.9134 38.0179 81.2695C37.9501 82.9307 36.8991 84.0494 35.2379 84.0833C29.4746 84.1172 23.7113 84.1172 17.948 84.0833C16.2529 84.0833 15.168 82.9646 15.0324 81.1678C14.9307 79.8117 14.9646 78.4556 15.0324 77.0995C15.0663 75.4383 15.6766 74.7942 18.2531 73.7772ZM32.0512 74.1501C31.068 70.5565 30.39 67.2002 29.2034 63.9795C28.7288 62.6912 27.4405 61.3013 26.1522 60.8266C22.8299 59.5384 20.1177 57.4026 17.27 55.4023C15.7105 54.3175 14.3883 54.3514 13.5407 55.538C12.6932 56.6906 13.1 57.9789 14.5917 59.0976C16.9309 60.7927 19.2363 62.4878 21.5755 64.149C22.3552 64.6915 23.1689 65.3356 22.4569 66.3187C21.6772 67.4036 20.8635 66.59 20.1516 66.0814C17.7107 64.3524 15.3036 62.5895 12.8627 60.8266C10.3879 59.0298 10.015 56.3855 11.71 53.8768C11.9813 53.4699 12.1508 52.7241 11.9813 52.2834C10.7269 49.1644 9.40472 46.0454 7.98084 42.9604C7.50622 41.9094 6.72647 40.9263 5.91283 40.1465C4.99748 39.2651 3.74311 39.3668 3.16678 40.4855C2.65825 41.4348 2.25143 42.7909 2.55655 43.774C4.42115 49.8424 6.45526 55.877 8.45547 61.9115C9.16741 64.0812 10.4557 65.7763 12.4559 66.9629C14.0832 67.946 15.7105 68.997 17.2021 70.2175C18.3548 71.1667 19.2363 72.3872 20.2872 73.472C20.5923 73.7772 21.067 74.1501 21.4738 74.1501C24.864 74.1501 28.2542 74.1501 32.0512 74.1501ZM35.5092 76.5571C30.5256 76.5571 25.7454 76.5232 20.9314 76.5571C16.8292 76.591 17.4056 75.7435 17.3717 80.2863C17.3717 80.388 17.3717 80.5236 17.3717 80.6253C17.3378 81.5068 17.7785 81.778 18.626 81.778C24.0503 81.7441 29.4407 81.778 34.865 81.7441C35.0684 81.7441 35.2718 81.6085 35.5092 81.5407C35.5092 79.9134 35.5092 78.3539 35.5092 76.5571Z" fill="black"/>
<path d="M65.9531 73.9466C68.4957 74.7942 69.0381 75.54 69.072 77.9131C69.072 78.998 69.1059 80.0489 69.0381 81.1338C68.9025 83.0662 67.8177 84.1172 65.8853 84.1511C60.2914 84.185 54.6976 84.185 49.1038 84.1511C47.1375 84.1511 46.1205 83.0662 46.0527 81.0999C46.0188 79.8116 46.0527 78.4895 46.0527 77.2012C46.0527 75.5739 46.8663 74.6246 48.4597 74.2178C49.0021 74.0822 49.6463 73.472 49.8158 72.9296C50.5955 70.2852 51.1718 67.5731 51.8838 64.9287C52.6296 62.0471 54.1213 59.6061 56.9691 58.5891C60.1219 57.4364 62.5968 55.3345 65.3428 53.5716C66.2921 52.9614 67.5125 52.7579 68.5296 52.2494C69.0042 52.0121 69.5806 51.6731 69.784 51.1985C71.0044 48.4863 72.0893 45.7064 73.3098 42.9603C73.8522 41.7398 74.4963 40.5194 75.3439 39.4684C77.0729 37.2648 79.1748 36.6885 81.1072 37.6377C83.1752 38.6548 84.6669 41.5025 83.921 43.8079C81.7174 50.656 79.446 57.5042 76.9373 64.2507C76.327 65.878 74.8014 67.2679 73.4115 68.4206C71.6147 69.9462 69.5467 71.1328 67.6142 72.4888C67.0718 72.8617 66.5972 73.3364 65.9531 73.9466ZM51.9855 74.15C55.1045 74.15 57.8844 74.1161 60.6305 74.15C62.2578 74.1839 63.7494 74.3195 64.3936 72.2515C64.597 71.6074 65.4106 71.0988 66.0548 70.6242C67.6481 69.4716 69.2076 68.2511 70.9366 67.2679C73.581 65.7763 75.0049 63.5048 75.9202 60.7249C77.6831 55.2667 79.5138 49.8424 81.2767 44.3503C81.514 43.6044 81.8191 42.6891 81.5479 42.0789C81.175 41.1635 80.497 40.0448 79.6833 39.7735C79.0392 39.5701 77.8865 40.3499 77.1746 40.9262C76.5982 41.4008 76.2253 42.1806 75.9202 42.8925C74.5641 45.9776 73.2081 49.0966 71.9537 52.2155C71.7842 52.6562 71.9537 53.4021 72.2249 53.8089C73.92 56.3176 73.5471 58.962 71.0722 60.7588C68.6652 62.5217 66.2243 64.2507 63.7833 66.0136C63.0714 66.5221 62.2578 67.3357 61.478 66.2509C60.7661 65.2677 61.5797 64.6575 62.3595 64.0812C64.6648 62.4539 66.9362 60.7927 69.2415 59.1315C70.9027 57.9449 71.3095 56.6567 70.4281 55.4701C69.5806 54.2835 68.2584 54.2496 66.5633 55.4362C66.1565 55.7413 65.7496 56.0464 65.3089 56.3176C62.9358 57.7076 60.5966 59.1315 58.1895 60.4198C56.5961 61.2673 55.1384 62.3183 54.5959 64.0473C53.6806 67.3018 52.9347 70.5903 51.9855 74.15ZM48.4597 81.744C49.2394 81.744 49.8497 81.744 50.426 81.744C54.6976 81.744 59.0032 81.744 63.2748 81.744C66.665 81.744 66.5972 81.744 66.6311 78.286C66.6311 76.9978 66.326 76.4892 64.936 76.5231C59.9185 76.591 54.9011 76.557 49.8836 76.557C49.4089 76.557 48.9343 76.6588 48.4258 76.7266C48.4597 78.3877 48.4597 79.9133 48.4597 81.744Z" fill="black"/>
</g>
</svg>
