<svg width="36" height="36" viewBox="0 0 36 36" fill="none" xmlns="http://www.w3.org/2000/svg">
<path d="M17.1364 28.3373C15.2892 29.0929 13.442 29.8906 11.5529 30.5903C10.6853 30.9121 9.7477 31.0241 8.85211 31.262C8.6422 31.3179 8.43229 31.4439 8.25038 31.5838C6.45918 32.9132 4.66798 34.2566 2.8488 35.628C2.61091 35.3201 2.415 35.0403 2.1771 34.7324C3.85635 33.473 5.47962 32.2415 7.06091 31.0521C6.34723 30.3524 5.67553 29.6807 4.94786 28.953C3.80037 30.4783 2.56893 32.1156 1.2955 33.8088C1.01563 33.5989 0.735751 33.403 0.399902 33.1511C1.22553 32.0456 1.99519 30.9541 2.82081 29.9046C3.89833 28.5332 4.70997 27.1058 5.17176 25.3566C6.52915 20.1929 9.3139 15.7849 13.1342 12.0486C13.2741 11.9226 13.4001 11.7967 13.526 11.6568C13.554 11.6288 13.568 11.5728 13.61 11.4609C12.7004 10.1454 11.7628 8.78805 10.8112 7.43066C10.7133 7.29072 10.6153 7.16478 10.5314 7.02484C10.1955 6.4651 10.4054 6.07327 11.0631 6.05928C11.9447 6.04528 12.8263 6.05928 13.8479 6.05928C13.3581 5.23365 12.9103 4.50598 12.4765 3.7783C12.0147 2.99465 11.5249 2.225 11.0771 1.44135C10.7553 0.853617 10.9791 0.461793 11.6369 0.461793C13.7639 0.447799 15.8769 0.461792 18.004 0.447799C18.5358 0.447799 18.7317 0.699686 18.7876 1.20346C18.9975 3.21855 19.2494 5.23365 19.4733 7.27673C20.4949 6.80094 21.4464 6.26918 22.468 5.91934C24.1472 5.3456 25.8825 4.88381 27.5897 4.36604C27.7856 4.31006 27.9675 4.18412 28.1214 4.05818C29.9126 2.71478 31.7038 1.37138 33.537 0C33.7609 0.293868 33.9708 0.559748 34.2087 0.881604C32.5435 2.14104 30.9062 3.35849 29.3249 4.56195C30.0246 5.24764 30.6963 5.91934 31.438 6.64701C32.5994 5.10771 33.8309 3.47044 35.1043 1.7912C35.4122 2.02909 35.692 2.225 35.9999 2.46289C34.8104 4.05818 33.635 5.62547 32.4595 7.19277C32.0117 7.7805 31.7318 8.41022 31.5219 9.15189C30.9762 11.097 30.3325 13.0281 29.5068 14.8613C27.9535 18.3458 25.6586 21.3404 22.8738 23.9572C21.4604 25.2726 21.4604 25.2726 21.5864 27.3437C21.9082 27.3437 22.2721 27.2737 22.5799 27.3717C22.8318 27.4557 23.1817 27.7215 23.1957 27.9454C23.4196 30.1005 23.5875 32.2695 23.7694 34.4245C23.8114 34.9563 23.5595 35.1942 23.0277 35.1942C21.2785 35.1802 19.5293 35.1942 17.7801 35.1802C17.1504 35.1802 16.9545 34.8863 17.1504 34.2706C17.5842 32.9272 18.032 31.5838 18.5078 30.1425C18.06 30.1425 17.6961 30.1425 17.3323 30.1425C16.4927 30.1285 16.3108 29.7786 16.7166 29.037C16.8985 28.7711 17.0244 28.5192 17.1364 28.3373ZM6.90698 29.3448C6.94896 29.4008 6.99094 29.4568 7.04692 29.5127C10.3214 27.8475 13.3721 25.8324 16.2408 23.5234C19.1095 21.2145 21.6843 18.6396 24.0493 15.8269C26.6801 12.6923 30.0526 7.44466 29.8707 6.57705C26.834 9.17988 23.8394 11.7407 20.8167 14.3296C20.5648 14.0217 20.3549 13.7558 20.117 13.462C23.0697 10.9151 25.9804 8.42422 28.9611 5.86337C28.2474 5.49953 27.6177 5.41557 26.946 5.58349C24.5391 6.18522 22.2721 7.1228 20.0891 8.29827C19.7252 8.49418 19.5853 8.70409 19.6692 9.1239C19.7812 9.69764 19.8372 10.2714 19.8792 10.8591C19.9351 11.5308 19.6273 11.7687 18.9836 11.5728C18.3258 11.3769 17.6821 11.153 16.9265 10.9151C17.0384 11.2509 17.1084 11.4609 17.1784 11.6848C17.8641 13.6159 18.5637 15.533 19.2075 17.4781C19.2914 17.716 19.0955 18.0379 19.0255 18.3178C18.7457 18.2198 18.4658 18.1359 18.2139 17.9959C18.088 17.9259 18.018 17.744 17.934 17.6041C16.7446 15.9109 15.5691 14.2176 14.3516 12.4684C10.6153 15.9948 7.9845 20.123 6.51516 24.9928C8.32034 20.9206 10.7133 17.2403 13.8619 14.1337C14.1837 14.3855 14.4216 14.5954 14.7155 14.8333C11.203 18.4157 8.61421 22.4739 7.11688 27.2038C9.5378 23.9712 11.9727 20.7387 14.4076 17.4781C14.7435 17.73 15.0093 17.9399 15.2892 18.1638C12.4625 21.9281 9.69173 25.6365 6.90698 29.3448ZM30.4864 8.57815C25.1408 17.744 17.8361 24.9088 8.55824 30.0865C8.90808 30.1145 9.21594 30.1005 9.5238 30.0305C12.1126 29.4008 14.5336 28.3373 16.8705 27.0498C17.99 26.4341 18.8856 25.6785 19.4174 24.489C19.6413 23.9852 19.9631 23.5094 20.257 23.0337C20.4669 22.6978 20.5928 22.18 21.1526 22.32C21.7123 22.4599 21.5444 22.9777 21.5864 23.3835C21.5864 23.4115 21.6284 23.4395 21.6983 23.5234C26.1763 19.4513 29.129 14.4975 30.4864 8.57815ZM18.6617 10.2714C18.3398 7.33271 18.018 4.47799 17.6961 1.62327C15.9469 1.62327 14.2677 1.62327 12.4905 1.62327C13.4001 3.14859 14.2817 4.60393 15.1353 6.05928C15.5831 6.81494 15.3872 7.17877 14.4916 7.17877C13.6939 7.17877 12.8963 7.17877 11.9727 7.17877C13.512 9.37579 14.9534 11.4329 16.3947 13.4899C16.4507 13.462 16.5067 13.434 16.5486 13.406C16.1848 12.3844 15.821 11.3629 15.4851 10.3414C15.4152 10.1314 15.4292 9.76761 15.5551 9.65566C15.723 9.51573 16.0589 9.47374 16.2968 9.54371C17.0664 9.72563 17.8081 9.99151 18.6617 10.2714ZM18.4378 34.0187C19.9071 34.0187 21.2505 34.0187 22.6219 34.0187C22.468 32.1436 22.3141 30.3244 22.1601 28.4632C21.8942 28.4632 21.7123 28.4632 21.5304 28.4632C20.4809 28.4492 20.4389 28.4212 20.4389 27.3437C20.4389 26.63 20.4389 25.9304 20.4389 25.2167C20.3969 25.2027 20.3409 25.2027 20.299 25.1887C19.5713 26.4341 18.8436 27.6936 18.06 29.023C18.4238 29.023 18.6477 29.023 18.8716 29.023C19.8652 29.023 20.0191 29.2609 19.6972 30.2124C19.2914 31.4579 18.8716 32.7033 18.4378 34.0187Z" fill="black"/>
</svg>
