<svg width="40" height="40" viewBox="0 0 40 40" fill="none" xmlns="http://www.w3.org/2000/svg">
<g clip-path="url(#clip0_154_37)">
<path d="M11.152 34.7521C7.55967 37.7821 2.99896 36.5639 1.03097 33.4401C-1.03072 30.1601 0.0938406 25.8337 3.51438 24.0531C5.63855 22.9598 7.77834 22.9754 9.85565 24.1312C11.9017 25.2714 12.9482 27.1144 13.3074 29.426C13.8229 27.911 14.1196 26.396 13.9947 24.8341C13.979 24.5842 13.6979 24.1937 13.4792 24.1312C12.1204 23.8032 11.1833 22.9442 10.4648 21.8196C9.27775 19.9766 8.79357 17.9149 8.62176 15.7751C8.20005 10.6365 9.9806 6.40376 13.9009 3.0457C13.979 2.98323 14.0571 2.90513 14.1352 2.84266C14.4945 2.56152 14.8849 2.2179 15.2754 2.7177C15.6346 3.17065 15.2442 3.46741 14.9006 3.74855C12.6983 5.56034 11.0271 7.74699 10.2617 10.5272C9.34023 13.854 9.55889 17.1183 10.949 20.2733C11.3863 21.2886 12.0111 22.2101 13.0419 22.7099C13.4168 22.8973 13.8541 22.9442 14.3695 23.0848C14.1665 22.1164 13.9478 21.2886 13.8541 20.4608C13.5886 18.1179 14.4476 16.2281 16.3219 14.8224C17.7901 13.729 19.4144 14.0414 20.2735 15.6502C20.742 16.5248 20.9138 17.54 21.2887 18.649C21.4449 18.4147 21.6635 18.2117 21.726 17.9774C22.1477 16.1343 22.4757 14.2601 22.9755 12.4483C23.2098 11.5892 23.7096 10.7771 24.225 10.0586C25.334 8.51232 26.9115 8.02813 28.7077 8.55917C29.8478 8.88717 30.9099 9.44945 32.0189 9.9024C32.8311 10.2304 33.6432 10.5896 34.4867 10.8395C35.6737 11.1831 36.7045 10.8239 37.4699 9.83992C39.0005 7.85632 39.2973 4.42016 37.9384 2.26476C37.6729 2.7958 37.4699 3.35808 37.1575 3.85788C36.3922 5.1074 35.1739 5.56034 33.7994 5.0293C33.0029 4.71692 32.2375 4.29521 31.5503 3.79541C28.7545 1.74933 25.5683 1.12458 22.1946 1.20267C20.6015 1.23391 19.0552 1.49943 17.5558 2.10857C17.3215 2.20228 16.9466 1.968 16.6343 1.87428C16.8061 1.60876 16.8998 1.18705 17.1341 1.07772C19.4144 0.0312539 21.851 -0.109316 24.3188 0.0781106C27.3957 0.312394 30.2071 1.24953 32.6749 3.15503C33.081 3.46741 33.5495 3.71731 34.0337 3.90474C35.0333 4.31083 35.7518 4.06093 36.236 3.09256C36.564 2.45218 36.6889 1.71809 36.9857 1.0621C37.1262 0.749723 37.4386 0.328013 37.7041 0.296775C37.9853 0.265537 38.4382 0.577915 38.5944 0.859056C40.2188 3.67046 40.5155 6.59119 39.0005 9.55878C38.735 10.0898 38.4226 10.6677 37.9697 10.9957C37.22 11.5424 37.0169 12.2452 36.8295 13.073C36.6889 13.6978 36.4078 14.3069 36.111 14.8692C35.7205 15.6033 35.783 16.2437 36.2984 16.884C37.1731 18.0086 38.0478 19.1488 38.9068 20.289C39.1567 20.617 39.3754 20.9762 39.5628 21.3511C39.9845 22.2101 39.7658 22.9598 38.9068 23.3659C38.4226 23.5846 37.876 23.7095 37.3449 23.772C36.6889 23.8501 36.5483 24.1781 36.8607 24.6466C37.3137 25.3495 37.5167 25.9899 36.9544 26.724C36.892 26.8177 37.0169 27.0207 36.9857 27.1613C36.8763 27.5986 36.8763 28.2078 36.5952 28.442C35.9861 28.9575 35.8924 29.5822 35.7674 30.2694C35.4863 31.8001 34.143 32.8778 32.4718 32.9715C31.0661 33.0496 29.7229 32.7372 28.489 32.0812C28.0517 31.847 27.8018 31.9407 27.4894 32.2687C25.7557 34.0805 24.6311 36.2046 24.1938 38.688C24.1469 38.9379 24.1626 39.2347 24.0376 39.4377C23.897 39.6564 23.6159 39.797 23.4129 39.9844C23.2567 39.7501 22.9443 39.5002 22.9599 39.2972C23.0849 38.2976 23.3035 37.3136 23.5066 36.2827C22.6944 36.0172 21.8353 35.7361 20.9919 35.4393C20.5858 35.2987 20.1329 35.1113 20.3359 34.5646C20.539 34.0336 20.9763 34.1898 21.398 34.3304C22.2571 34.6271 23.1161 34.8926 23.897 35.1425C24.8967 33.7525 25.8494 32.4405 26.849 31.0504C26.5679 30.6912 26.193 30.2382 25.8338 29.7696C25.5683 29.4104 25.3965 29.0043 25.8806 28.6919C26.3492 28.3952 26.5835 28.8013 26.8178 29.1136C28.2703 31.0816 30.2071 31.9875 32.628 31.722C34.0025 31.5658 34.7053 30.738 34.6741 29.3479C34.6585 28.7232 34.7053 28.239 35.3926 27.9735C35.58 27.8954 35.7986 27.4893 35.7518 27.3175C35.6893 27.13 35.3457 26.9426 35.1114 26.8958C34.8459 26.8489 34.5491 27.0363 34.2836 27.0207C34.0337 27.0051 33.6276 26.8645 33.612 26.724C33.5651 26.4897 33.7369 26.0211 33.8931 25.9899C34.596 25.8181 35.3145 25.7712 35.9392 25.6931C35.8455 25.1777 35.6581 24.5061 35.6425 23.8501C35.6425 23.116 36.0485 22.6943 36.8763 22.663C37.4542 22.6474 38.0165 22.4288 38.7662 22.2726C38.4226 21.7259 38.2196 21.3198 37.9384 20.9606C37.1575 19.9141 36.3922 18.8676 35.5644 17.868C34.596 16.6966 34.3929 15.494 35.1895 14.1351C35.5175 13.5728 35.6737 12.9012 35.9705 12.1671C34.0493 12.2609 32.5811 11.4955 31.0661 10.7927C30.1915 10.4022 29.3168 9.99611 28.3953 9.73059C26.9427 9.30888 25.8806 9.74621 25.0216 10.9957C24.0376 12.417 23.6315 14.057 23.3035 15.7126C23.1161 16.681 23.0068 17.665 22.8506 18.6334C22.7256 19.3831 21.8041 19.9454 20.8826 19.8673C20.2422 19.8048 19.9455 19.305 19.8517 18.4459C19.7737 17.7431 19.6487 16.9934 19.3363 16.353C18.8053 15.2284 17.8994 15.1035 16.9154 15.8688C15.1973 17.212 14.6038 19.305 15.2598 21.6322C15.3535 21.9602 15.5097 22.257 15.5722 22.5849C15.6346 22.9129 15.7284 23.3815 15.5566 23.5533C15.0724 24.0687 15.2442 24.6623 15.1817 25.2245C15.0255 26.6146 14.8068 27.9891 14.6663 29.3792C14.635 29.6603 14.7131 30.082 14.9006 30.2382C16.0407 31.1441 17.2122 32.0031 18.3836 32.8466C18.7584 33.1121 19.2114 33.3464 18.8678 33.8774C18.5554 34.3616 18.118 34.0961 17.7744 33.8618C16.5562 33.0184 15.3535 32.1593 14.0415 31.2534C14.0259 31.4409 13.9634 31.6595 14.0103 31.8157C14.0884 32.0344 14.3227 32.1749 14.4008 32.3936C14.5569 32.7841 14.8381 33.2995 14.6975 33.5494C14.5257 33.8774 13.979 34.1273 13.573 34.1586C12.9794 34.1898 12.7451 34.4397 12.4952 34.9395C11.7455 36.4545 10.9334 37.9227 10.1212 39.4065C9.91813 39.7657 9.66823 40.2187 9.1528 39.9063C8.60614 39.5783 8.91852 39.1566 9.13718 38.7661C9.87127 37.4698 10.6054 36.1578 11.3394 34.8614C11.277 34.8145 11.2145 34.7833 11.152 34.7521ZM13.3387 32.9871C12.1048 31.8626 12.0735 30.5193 11.9642 29.098C11.7768 26.802 9.76194 24.8653 7.57529 24.5373C5.09189 24.1625 2.79591 25.3183 1.73383 27.4893C0.718597 29.5666 1.17154 32.2062 2.84277 33.8149C4.54523 35.4549 7.23168 35.8766 9.24652 34.6271C10.496 33.8306 11.5425 32.6748 13.3387 32.9871Z" fill="black"/>
<path d="M31.9406 14.9785C32.3311 15.1191 32.7684 15.1816 33.0964 15.4159C33.2838 15.5408 33.3151 15.9157 33.4088 16.1812C33.1433 16.2749 32.8309 16.4936 32.6278 16.4155C31.8937 16.1343 31.3002 16.1812 30.7067 16.7747C30.5661 16.9153 30.1757 16.8216 29.8945 16.8372C29.9101 16.5404 29.8008 16.0718 29.9414 15.9625C30.5193 15.5252 31.1753 15.1972 31.8 14.838C31.8625 14.8848 31.8937 14.9317 31.9406 14.9785Z" fill="black"/>
<path d="M32.6437 18.2585C32.3781 18.524 32.1439 18.9926 31.8627 19.0238C31.2536 19.0863 31.2848 18.5084 31.2692 18.0711C31.2536 17.6181 31.2536 17.0871 31.8471 17.0715C32.5187 17.0715 32.5031 17.6181 32.6437 18.2585Z" fill="black"/>
<path d="M6.7163 29.2854C8.43438 29.6134 8.54371 29.9102 7.48163 31.3627C7.02868 31.9875 6.56011 32.6123 6.10716 33.2526C5.85726 33.6119 5.51364 33.8774 5.17003 33.5181C5.01384 33.362 5.02946 32.8309 5.17003 32.5966C5.59174 31.8938 6.10716 31.2534 6.60697 30.5662C4.65461 30.0195 4.62337 29.9414 5.8104 28.3014C6.24773 27.6923 6.65382 27.0519 7.15363 26.4896C7.32544 26.2866 7.74715 26.3022 8.04391 26.2241C8.04391 26.5365 8.18448 26.927 8.04391 27.1613C7.65343 27.8485 7.13801 28.4889 6.68506 29.1449C6.65382 29.1761 6.70068 29.2386 6.7163 29.2854Z" fill="black"/>
</g>
<defs>
<clipPath id="clip0_154_37">
<rect width="40" height="40" fill="white"/>
</clipPath>
</defs>
</svg>
