<svg width="91" height="77" viewBox="0 0 91 77" fill="none" xmlns="http://www.w3.org/2000/svg">
<path d="M76.5501 27.8973C76.5501 24.3553 76.5501 21.0008 76.5501 17.6699C75.4007 17.4353 74.2747 17.2476 73.2191 16.9427C70.7092 16.2155 68.6683 14.7611 67.0029 12.7672C65.525 10.9845 64.0707 9.20169 62.5459 7.46584C60.7866 5.44849 58.5347 4.36944 55.8605 4.34599C49.7616 4.32253 43.6626 4.32253 37.5637 4.32253C36.1562 4.32253 35.3821 5.07317 35.4056 6.24605C35.429 7.37201 36.2735 8.12265 37.6341 8.12265C39.8625 8.14611 42.091 8.12265 44.3194 8.12265C45.7504 8.12265 46.4775 8.73254 46.4775 9.85851C46.4775 10.9845 45.7269 11.6178 44.3429 11.6413C42.0441 11.6647 39.7218 11.6647 37.4229 11.6413C34.3031 11.5944 31.9104 9.29552 31.887 6.31642C31.84 3.26694 34.0685 0.874274 37.2353 0.827359C43.7565 0.756987 50.3011 0.733529 56.8223 0.897732C59.9891 0.968104 62.7101 2.39901 64.8682 4.74476C66.5806 6.62137 68.1757 8.61526 69.7943 10.5622C71.366 12.4388 73.3599 13.5648 75.776 13.9401C76.4562 14.0574 76.9723 14.0105 77.418 13.2598C78.4971 11.524 81.312 10.703 83.2589 11.4067C84.1034 11.7116 84.5256 12.345 84.4083 13.2364C84.2911 14.1043 83.775 14.6204 82.8601 14.7377C80.1625 15.0895 80.1625 15.0895 80.1625 17.7871C80.1625 21.5404 80.1625 25.2936 80.1625 29.0468C80.1625 30.4308 80.3502 30.6184 81.7107 30.6184C83.5873 30.6184 85.4639 30.6184 87.5047 30.6184C87.5047 30.1258 87.5047 29.727 87.5047 29.3048C87.5047 25.9035 87.4813 22.5021 87.5047 19.1008C87.5282 17.4353 88.9122 16.4735 90.1085 17.3415C90.5542 17.6464 90.953 18.3501 90.953 18.8897C91.0234 23.3466 90.9999 27.8035 90.9765 32.2604C90.9765 33.4099 90.2258 34.1136 88.9826 34.137C86.2849 34.184 83.5873 34.2074 80.8897 34.137C79.365 34.0901 78.1452 33.3629 77.2303 32.0962C76.9958 31.7678 76.4562 31.4863 76.034 31.4629C74.1105 31.3925 72.2104 31.4394 70.2869 31.4394C66.1115 31.4394 62.4521 30.1023 59.4026 27.264C56.0951 24.1676 52.8345 21.0243 49.6208 17.8106C47.8146 16.0044 47.5566 13.4006 48.8233 11.3598C50.0665 9.3659 52.4592 8.38068 54.7111 9.10786C55.5321 9.3659 56.3531 9.88196 57.01 10.4449C59.3557 12.5092 61.6545 14.6438 63.9534 16.755C64.9386 17.6464 65.0793 18.7489 64.3522 19.523C63.6015 20.3206 62.6867 20.3206 61.6546 19.4057C59.4026 17.3884 57.1976 15.3476 54.9926 13.3302C54.7111 13.0722 54.4062 12.6499 54.0778 12.6499C53.4444 12.603 52.6469 12.603 52.1543 12.9314C51.4974 13.3537 51.3567 14.1747 51.8258 14.9253C52.0604 15.2772 52.3419 15.6056 52.6469 15.9105C55.4618 18.6316 58.3001 21.3292 61.0681 24.0738C63.7423 26.701 66.8856 28.0615 70.6622 27.9677C72.5858 27.8504 74.5093 27.8973 76.5501 27.8973Z" fill="black"/>
<path d="M4.41853 47.0854C4.41853 47.6484 4.41853 48.0707 4.41853 48.4929C4.41853 51.6597 4.44199 54.8264 4.41853 57.9932C4.41853 59.213 3.7148 59.9402 2.68267 59.9636C1.65054 59.9636 0.970275 59.2364 0.899902 58.0401C0.899902 57.8759 0.899902 57.7352 0.899902 57.571C0.899902 53.7474 0.899902 49.9004 0.899902 46.0768C0.899902 44.2002 1.53326 43.5668 3.45677 43.5668C5.84944 43.5668 8.21865 43.5434 10.6113 43.5668C12.3237 43.5903 13.6843 44.2471 14.6929 45.7015C14.904 46.0064 15.4201 46.2644 15.7954 46.2644C17.6251 46.3114 19.4783 46.3114 21.3079 46.2879C25.9291 46.2175 29.8465 47.8595 33.1305 51.0732C36.1331 54.0054 39.1591 56.8672 42.1382 59.7994C43.8741 61.5118 44.2729 63.7872 43.3346 65.828C42.4666 67.7515 40.4493 69.0886 38.3381 68.8071C37.1652 68.6429 35.8985 68.1268 34.9837 67.3762C32.5206 65.3354 30.1983 63.1069 27.8526 60.9254C26.9377 60.0809 26.8205 58.9784 27.4773 58.2278C28.2045 57.4068 29.1662 57.3833 30.1514 58.2747C32.4034 60.2686 34.6084 62.3328 36.8134 64.3502C37.1183 64.6317 37.4702 65.0774 37.822 65.1008C38.4554 65.1477 39.3233 65.1243 39.6986 64.749C40.074 64.3736 39.9801 63.5057 40.027 62.8724C40.0505 62.7082 39.8628 62.5205 39.7221 62.3798C36.1566 58.9784 32.6614 55.5067 29.002 52.2226C27.1723 50.5806 24.8031 49.8534 22.2932 49.83C19.9943 49.8065 17.6955 49.83 15.3263 49.83C15.3263 53.3252 15.3263 56.703 15.3263 60.1513C19.1499 60.4093 22.2932 61.9341 24.7562 64.8193C25.6007 65.8046 26.3982 66.8132 27.2192 67.7984C27.876 68.5725 28.5094 69.3701 29.1897 70.1207C31.0663 72.2788 33.4355 73.3813 36.2973 73.3813C42.2321 73.3813 48.1903 73.3813 54.125 73.3813C55.6498 73.3813 56.4473 72.7245 56.4708 71.5282C56.4942 70.3084 55.6263 69.5812 54.0781 69.5812C52.1311 69.5812 50.1607 69.5812 48.2137 69.5812C46.8063 69.5812 46.0791 68.9479 46.1025 67.7984C46.126 66.6959 46.8766 66.0626 48.2606 66.0626C50.3249 66.0391 52.4126 66.0391 54.4769 66.0626C57.5967 66.1095 59.9659 68.4083 60.0129 71.4109C60.0363 74.4604 57.8313 76.853 54.6645 76.8765C48.1433 76.9469 41.5987 76.9703 35.0775 76.8061C31.9577 76.7358 29.26 75.3283 27.1254 73.0295C25.3661 71.1294 23.771 69.1121 22.1055 67.1416C20.5338 65.265 18.54 64.1391 16.1238 63.7637C15.4436 63.6465 14.9275 63.7168 14.4818 64.444C13.3793 66.2033 10.3064 67.0478 8.40631 66.2502C7.60875 65.9218 7.32726 65.2885 7.39764 64.4675C7.46801 63.623 7.93716 63.1304 8.80509 62.9897C8.96929 62.9662 9.11003 62.9662 9.27424 62.9427C11.7373 62.802 11.7373 62.802 11.7373 60.3859C11.7373 56.4685 11.7373 52.5745 11.7373 48.6571C11.7373 47.2731 11.5496 47.0854 10.1891 47.0854C8.33594 47.0854 6.45933 47.0854 4.41853 47.0854Z" fill="black"/>
<path d="M46.3372 31.6505C48.0261 30.0788 50.1842 29.2344 52.7645 29.4455C55.7202 29.6801 58.6758 31.9085 59.6141 34.7234C60.7166 38.0075 59.8956 41.5965 57.4326 43.5904C54.1251 46.288 50.7941 48.9152 47.4397 51.5425C46.3841 52.3869 45.7038 52.3635 44.6013 51.519C41.4111 49.0091 38.1974 46.4991 35.0541 43.9657C32.0985 41.573 31.1367 37.5618 32.6614 34.2543C34.2565 30.806 37.9159 28.7652 41.5753 29.5628C43.1939 29.9146 44.6482 30.8764 46.3372 31.6505ZM45.9619 48.0942C46.1026 48.0473 46.1964 48.0238 46.2433 48.0004C49.0817 45.7485 51.9201 43.4965 54.7584 41.2212C56.3535 39.9545 56.9165 38.289 56.4239 36.342C55.9782 34.5592 54.3596 33.1752 52.6238 32.9876C50.5361 32.753 48.8237 33.5975 47.8385 35.4506C47.4162 36.2247 46.9705 36.8581 46.0088 36.8346C45.047 36.8346 44.6248 36.1543 44.2025 35.4037C43.1704 33.5975 41.6222 32.7295 39.5345 32.9876C37.6579 33.2222 36.3443 34.2777 35.7813 36.0605C35.1714 37.9606 35.5467 39.7433 37.1184 41.057C40.0506 43.4496 43.0297 45.7719 45.9619 48.0942Z" fill="black"/>
<path d="M69.7712 47.7423C68.8563 47.7657 68.0588 47.0385 68.0118 46.1002C67.9649 45.115 68.7156 44.2706 69.7008 44.2706C70.6156 44.2471 71.4366 44.9977 71.507 45.9126C71.5539 46.7805 70.7095 47.6954 69.7712 47.7423Z" fill="black"/>
<path d="M62.8517 55.0846C62.8752 54.1229 63.7196 53.3253 64.6814 53.3957C65.5728 53.4426 66.3469 54.2871 66.3234 55.1785C66.2999 56.0933 65.3851 56.9378 64.4468 56.8909C63.5554 56.8439 62.8048 56.0229 62.8517 55.0846Z" fill="black"/>
<path d="M62.4054 58.7206C62.4054 59.7058 61.5609 60.4799 60.5757 60.433C59.6374 60.3861 58.9102 59.612 58.9337 58.6737C58.9571 57.7823 59.7547 56.9613 60.6461 56.9379C61.5844 56.9144 62.4054 57.7589 62.4054 58.7206Z" fill="black"/>
<path d="M39.98 13.0487C40.9418 13.0487 41.6924 13.7524 41.7159 14.7142C41.7394 15.629 40.8714 16.5439 39.9566 16.5439C39.1121 16.5439 38.2442 15.6759 38.2207 14.808C38.1973 13.8228 38.9714 13.0487 39.98 13.0487Z" fill="black"/>
<path d="M70.733 39.0866C71.6947 39.0866 72.4219 39.8137 72.4454 40.7755C72.4688 41.7372 71.6244 42.6052 70.6861 42.6052C69.8416 42.5817 68.9737 41.6903 68.9502 40.8693C68.9267 39.8841 69.7478 39.0631 70.733 39.0866Z" fill="black"/>
<path d="M32.3096 19.4762C32.2862 20.3911 31.4652 21.1886 30.5738 21.1886C29.612 21.1886 28.791 20.3442 28.8145 19.4058C28.8379 18.4441 29.6824 17.6935 30.6676 17.7404C31.6294 17.7638 32.3565 18.5614 32.3096 19.4762Z" fill="black"/>
<path d="M70.7798 33.7384C71.7181 33.7618 72.4922 34.6063 72.4688 35.5915C72.4453 36.5533 71.6947 37.257 70.7329 37.2335C69.7946 37.2101 69.0205 36.4594 68.997 35.5446C68.9736 34.6297 69.865 33.7149 70.7798 33.7384Z" fill="black"/>
<path d="M23.4194 43.0509C23.4194 43.9892 22.6454 44.7633 21.7305 44.7633C20.7922 44.7633 19.9947 44.0127 19.9712 43.0978C19.9477 42.1361 20.7687 41.2916 21.754 41.3151C22.6923 41.3385 23.4194 42.0891 23.4194 43.0509Z" fill="black"/>
<path d="M57.8545 61.3243C57.8545 62.286 57.0335 63.0836 56.0483 63.0601C55.11 63.0601 54.3828 62.3095 54.3828 61.3477C54.3828 60.3625 55.1569 59.5649 56.1421 59.5884C57.0335 59.6119 57.8545 60.4329 57.8545 61.3243Z" fill="black"/>
<path d="M51.1227 61.1836C52.0844 61.207 52.8116 62.0515 52.7647 63.0602C52.7178 64.0219 51.9671 64.7022 50.9819 64.6553C50.0671 64.6318 49.2695 63.8343 49.2695 62.9429C49.293 62.0515 50.2078 61.1601 51.1227 61.1836Z" fill="black"/>
<path d="M28.5796 23.2059C28.5562 24.1442 27.6883 24.9652 26.75 24.9417C25.8586 24.9183 25.0845 24.0738 25.0845 23.159C25.0845 22.1738 25.882 21.4466 26.9142 21.47C27.8759 21.5169 28.6031 22.2676 28.5796 23.2059Z" fill="black"/>
<path d="M25.7413 27.5924C25.7413 28.5307 24.8733 29.3517 23.935 29.3517C22.9733 29.3283 22.2461 28.6011 22.2461 27.6393C22.2461 26.6307 22.9967 25.8566 24.0054 25.88C24.8968 25.9035 25.7413 26.7245 25.7413 27.5924Z" fill="black"/>
<path d="M21.941 34.3012C20.9793 34.2074 20.2521 33.2925 20.3694 32.3542C20.4867 31.4394 21.3077 30.7826 22.246 30.8529C23.2077 30.9233 23.9349 31.8147 23.8176 32.7765C23.7003 33.6678 22.8324 34.3716 21.941 34.3012Z" fill="black"/>
<path d="M19.6188 37.6086C19.6892 36.6937 20.5571 35.9666 21.472 36.0369C22.4103 36.1308 23.114 36.9283 23.0671 37.8666C23.0202 38.7815 22.1522 39.579 21.2609 39.5087C20.2991 39.4852 19.5485 38.5938 19.6188 37.6086Z" fill="black"/>
<path d="M67.6602 49.1029C68.5751 49.1029 69.3961 49.9005 69.3961 50.7918C69.4195 51.7536 68.5751 52.5981 67.6368 52.5981C66.7219 52.5981 65.9244 51.824 65.9009 50.8857C65.8774 49.9239 66.675 49.1029 67.6602 49.1029Z" fill="black"/>
<path d="M89.2413 11.313C90.1327 11.313 90.9537 12.1105 90.9771 13.0019C91.0006 13.9637 90.1796 14.7378 89.1709 14.7143C88.2326 14.6909 87.4585 13.9168 87.482 13.0019C87.5289 12.1105 88.3264 11.313 89.2413 11.313Z" fill="black"/>
<path d="M34.9834 14.855C35.9217 14.8316 36.7193 15.5822 36.7662 16.4971C36.8131 17.4119 36.039 18.2095 35.1007 18.2564C34.0686 18.3033 33.271 17.5761 33.271 16.5674C33.271 15.6526 34.0451 14.8785 34.9834 14.855Z" fill="black"/>
<path d="M4.39497 64.7257C4.37151 65.6171 3.5505 66.4146 2.65911 66.4146C1.72081 66.4146 0.876338 65.5232 0.923253 64.6084C0.970168 63.6701 1.74427 62.9898 2.72948 63.0133C3.66778 63.0133 4.41842 63.7874 4.39497 64.7257Z" fill="black"/>
</svg>
