<svg width="83" height="84" viewBox="0 0 83 84" fill="none" xmlns="http://www.w3.org/2000/svg">
<path d="M54.7011 70.3071C53.5407 70.187 52.4603 70.067 51.4199 69.987C51.2198 69.987 50.9797 70.2271 50.8597 70.4271C49.9393 71.7076 48.6988 72.3479 47.1382 72.3479C32.9328 72.3479 18.7673 72.3479 4.56183 72.3479C1.56067 72.3479 -0.360068 69.9069 0.280179 66.9458C1.48064 61.3436 2.6811 55.7415 3.88157 50.1393C4.24171 48.4987 5.16206 47.3783 6.76268 46.778C10.4841 45.3375 14.1655 43.8569 17.8469 42.4163C18.4472 42.1763 18.8473 41.8961 18.7273 41.1359C18.3671 41.1359 17.967 41.1359 17.6069 41.1359C13.3252 41.1359 9.04356 41.1359 4.76191 41.1359C1.84078 41.0958 0.120117 39.3752 0.120117 36.454C0.120117 25.85 0.120117 15.2459 0.120117 4.6818C0.120117 1.72066 1.84078 0 4.76191 0C29.2914 0 53.7808 0 78.3102 0C81.2314 0 82.952 1.72066 82.952 4.64179C82.952 15.1658 82.912 25.6499 82.9921 36.1739C83.0321 38.6549 81.4314 41.2559 78.1102 41.1759C78.1102 41.2159 78.0301 41.2959 78.0702 41.3359C79.0305 43.8969 79.2306 46.5379 79.1906 49.219C79.1506 52.4202 79.2306 55.6615 79.1506 58.8627C79.1106 60.8234 79.5107 62.6241 80.351 64.3848C80.5511 64.7449 80.7112 65.1451 80.8712 65.5453C81.4314 66.8658 81.1914 67.8661 79.8708 68.4264C78.3102 69.0666 76.6696 69.4668 75.029 69.8269C73.6685 70.107 72.2679 70.187 70.9074 70.3471C70.7873 71.5476 71.2275 72.2278 72.348 72.668C74.7889 73.6684 77.1498 74.8288 79.5507 75.9893C82.3118 77.3098 82.6319 78.7504 82.9921 81.5514C83.0721 82.3517 82.5519 82.8319 81.7916 82.952C81.0313 83.072 80.4711 82.7119 80.191 81.9916C79.9909 81.5114 79.8708 80.9512 79.8308 80.431C79.7508 79.5106 79.1906 78.9904 78.4303 78.6703C75.7493 77.4298 73.1082 76.1894 70.4272 74.9889C70.1471 74.8689 69.6669 74.8689 69.3868 75.0289C64.9451 77.3498 60.5034 77.3498 56.0617 75.0289C55.7816 74.9089 55.3814 74.8689 55.1013 74.9889C52.3002 76.2294 49.5392 77.5099 46.7781 78.8704C46.2979 79.1105 45.9778 79.7507 45.6977 80.3109C45.4576 80.7911 45.4576 81.3914 45.2975 81.9516C45.0574 82.7119 44.3772 83.152 43.6969 83.032C42.9366 82.9119 42.4164 82.2717 42.4564 81.4314C42.6565 78.7904 43.7369 76.8296 46.3379 75.7892C48.8989 74.7488 51.3399 73.5083 53.8608 72.3479C54.7012 71.9077 54.421 71.1074 54.7011 70.3071ZM35.5738 2.84109C35.8139 3.08119 35.9339 3.16122 36.0139 3.24125C40.0555 6.4825 42.0163 10.7241 42.0163 15.8861C42.0163 18.6072 42.0163 21.2882 42.0163 24.0093C42.0163 27.0904 40.2556 29.2513 37.2544 29.9715C36.9743 30.0516 36.6142 30.3317 36.4941 30.6118C35.7739 32.3325 34.7335 33.773 33.3329 34.9735C32.7727 35.4537 32.1325 35.8938 31.5322 36.374C31.6523 36.8142 31.7723 37.2143 31.8523 37.6145C31.9324 38.0547 32.1725 38.2147 32.6527 38.2147C37.9347 38.2147 43.1767 38.2147 48.4587 38.1747C48.7389 38.1747 49.139 37.9746 49.3391 37.7345C52.3402 33.5729 56.3818 31.3321 61.4638 31.012C67.1059 30.6518 71.8678 32.5325 75.4291 37.0143C76.1494 37.8946 76.8297 38.2547 77.9501 38.2147C79.7108 38.1347 80.1109 37.7746 80.1109 36.0539C80.1109 25.6899 80.1109 15.3259 80.1109 5.00193C80.1109 3.24125 79.7108 2.84109 77.9901 2.84109C64.2248 2.84109 50.4595 2.84109 36.6942 2.84109C36.3741 2.84109 36.054 2.84109 35.5738 2.84109ZM77.9901 66.3055C75.7493 62.4641 76.1894 58.5025 76.1494 54.581C76.1094 51.78 76.2294 48.9789 76.0294 46.2178C75.3491 36.8542 66.7458 32.2524 58.8628 34.4133C52.9805 36.0139 49.2591 41.0558 49.219 47.4583C49.179 51.3398 49.219 55.2613 49.219 59.1428C49.219 59.743 49.219 60.3433 49.099 60.9035C48.6988 62.6241 48.2187 64.3448 47.7385 66.2655C57.6623 68.2663 67.6662 68.1863 77.9901 66.3055ZM24.3695 47.0181C23.5692 46.738 22.8089 46.4979 22.0486 46.2178C21.1282 45.8177 20.2479 45.0173 19.3275 45.0173C18.3271 45.0173 17.3267 45.6976 16.3264 46.0978C16.0863 46.1778 15.8862 46.2978 15.6861 46.3779C15.1659 46.4979 15.0059 46.818 15.0059 47.3382C15.0459 48.9389 15.0459 50.5395 15.0059 52.1401C15.0059 52.8204 15.1659 53.1005 15.8062 53.3406C18.3271 54.2609 20.0078 56.7019 19.9277 59.2228C19.8877 60.2232 19.2075 60.8635 18.2471 60.7034C17.3668 60.5433 17.1267 59.9031 17.0466 59.0628C16.8866 56.8619 14.9258 55.4214 12.805 55.8615C11.1644 56.2217 10.204 57.3421 9.96391 59.3029C9.80385 60.3433 9.24363 60.8635 8.32328 60.7434C7.44294 60.6234 6.96275 59.8231 7.12282 58.7026C7.52297 56.1016 8.92351 54.3009 11.4045 53.3406C11.6446 53.2605 12.0047 52.9804 12.0047 52.7403C12.0447 51.1397 12.0447 49.5391 12.0447 47.8584C10.6442 48.3786 9.4037 48.9389 8.1232 49.339C7.20285 49.6591 6.76268 50.2594 6.5626 51.1797C5.44217 56.5418 4.28172 61.8638 3.12127 67.1859C2.76113 68.7865 3.32135 69.4668 5.002 69.4668C11.1644 69.4668 17.3267 69.4668 23.4891 69.4668C23.7692 69.4668 24.0493 69.4268 24.3695 69.4268C24.3695 61.9439 24.3695 54.501 24.3695 47.0181ZM15.6461 2.76106C15.7261 2.80108 15.8062 2.88111 15.8862 2.92113C15.8062 2.88111 15.7261 2.84109 15.6461 2.84109C11.9647 2.84109 8.28326 2.84109 4.60184 2.84109C3.52143 2.84109 3.00123 3.44133 3.00123 4.64179C3.00123 15.2459 3.00123 25.8099 3.00123 36.414C3.00123 37.7345 3.52143 38.2147 4.84194 38.2147C9.20362 38.2147 13.5653 38.2147 17.967 38.2147C19.7277 38.2147 19.7277 38.2147 20.0878 36.4941C20.0878 36.454 20.0878 36.374 20.0478 36.294C17.7269 34.8934 16.0463 32.9327 15.0459 30.3717C14.9658 30.2116 14.6857 30.0516 14.4456 29.9715C11.3244 29.2913 9.60377 27.1305 9.60377 23.9292C9.60377 21.0481 9.56376 18.167 9.60377 15.2859C9.64379 11.6045 10.8843 8.36322 13.2452 5.56214C14.0055 4.60177 14.8458 3.68142 15.6461 2.76106ZM27.2906 69.3867C34.0932 69.3867 40.7758 69.3867 47.6985 69.3867C47.0182 69.1066 46.538 68.9066 46.0978 68.7065C44.2971 67.8261 43.977 66.8658 44.8974 65.0651C45.8577 63.1043 46.538 60.9835 46.2979 58.7826C45.9778 55.9816 45.3375 53.1805 44.8173 50.3794C44.7773 50.1393 44.5372 49.7792 44.2971 49.6992C42.7766 49.0189 41.216 48.4187 39.5753 47.7384C39.5753 49.339 39.6153 50.7796 39.5753 52.2201C39.5753 52.8604 39.6954 53.1805 40.3356 53.5006C42.4964 54.581 43.3768 57.142 42.4564 59.3829C41.5361 61.5437 39.0951 62.7042 36.8543 61.9839C35.0536 61.4237 33.7731 59.8631 33.573 58.0224C33.3729 56.1016 34.3733 54.3009 36.134 53.4206C36.4941 53.2605 36.7742 53.1405 36.7742 52.6203C36.7342 50.8196 36.7742 48.9789 36.7342 47.1782C36.7342 46.9381 36.4941 46.5779 36.2941 46.4579C35.0536 45.9377 33.7731 45.4175 32.4926 44.9373C32.3325 44.8573 32.0924 44.8573 31.9324 44.9373C30.4118 45.6576 28.9312 46.4179 27.3306 47.2582C27.2906 54.501 27.2906 61.9039 27.2906 69.3867ZM21.6484 16.8865C20.688 18.7272 20.688 18.7272 18.4472 19.1274C17.6869 19.2474 17.2467 19.7676 17.2467 20.5679C17.2467 22.0085 17.1667 23.4891 17.2467 24.9296C17.2867 26.2901 17.3267 27.6907 17.6869 28.9712C18.6873 32.7326 22.4887 35.2536 26.3702 34.9335C30.7719 34.5733 33.8531 31.8123 34.2933 27.6507C34.4934 25.4898 34.4133 23.249 34.4534 21.0481C34.4934 19.6476 33.9331 19.0874 32.5326 19.0874C30.2917 19.0874 28.0909 19.0874 25.85 19.0874C22.8489 19.0874 23.169 19.4075 21.7685 16.8865C21.6884 16.8865 21.6484 16.8865 21.6484 16.8865ZM39.1352 20.0877C39.9355 10.444 36.6542 5.72221 30.5318 3.56137C25.1698 1.68065 19.1274 3.16122 16.1263 6.72259C19.0074 8.20316 21.1282 10.404 22.5688 13.3251C22.6488 13.4452 22.7688 13.5252 22.8489 13.6453C23.3291 14.2055 23.8893 14.7257 24.2494 15.3259C24.5695 15.8861 24.9297 16.0862 25.5699 16.0862C28.0509 16.0462 30.4918 16.0462 32.9728 16.0862C34.6534 16.0862 36.094 16.7665 36.7742 18.287C37.2544 19.4475 38.1348 19.6876 39.1352 20.0877ZM46.1779 47.2982C46.538 45.3375 46.9382 43.2567 47.3383 41.1759C42.5765 41.1759 37.7746 41.1759 32.9328 41.1759C32.8927 41.2559 32.8127 41.3359 32.7727 41.416C33.0928 41.7361 33.3329 42.1362 33.7331 42.2963C35.4137 43.0166 37.0944 43.6568 38.775 44.2971C41.256 45.2975 43.7369 46.2978 46.1779 47.2982ZM14.2856 9.04348C12.0447 12.4448 12.4449 16.2463 12.4449 20.0077C13.5253 19.6876 14.4857 19.4875 14.9258 18.247C15.2459 17.2466 16.2063 16.4864 17.2467 16.3663C18.5672 16.2463 19.0874 15.486 19.4876 14.4456C19.5676 14.2055 19.6076 13.8854 19.4876 13.6853C18.2471 11.6045 16.5665 10.0439 14.2856 9.04348ZM22.6488 37.8146C22.2887 39.2151 21.8885 40.6557 21.6084 42.1362C21.5684 42.3763 21.7685 42.8165 22.0086 42.9766C24.1294 44.5772 27.5707 44.5772 29.6915 42.9766C29.8916 42.8165 30.1717 42.4163 30.1317 42.2163C29.8116 40.6957 29.3714 39.1751 29.0513 37.8546C26.8504 37.8146 24.8096 37.8146 22.6488 37.8146ZM57.6223 70.5072C57.5422 70.9473 57.4222 71.3875 57.4222 71.8277C57.4222 72.0678 57.5823 72.4679 57.7823 72.548C61.0636 74.1886 64.3449 74.1886 67.5861 72.588C67.7862 72.5079 68.0263 72.2278 68.0263 72.0278C67.9863 71.5076 67.8662 70.9874 67.7862 70.5072C64.3049 70.5072 60.9836 70.5072 57.6223 70.5072ZM38.1748 59.3429C39.1352 59.3429 39.9355 58.5426 39.8954 57.5822C39.8554 56.6218 38.9351 55.7815 37.9347 55.7415C37.1344 55.7415 36.3341 56.6218 36.3341 57.5422C36.3341 58.5826 37.1344 59.3429 38.1748 59.3429ZM14.3656 22.5287C13.0851 22.9288 12.4849 23.8092 12.6049 25.0096C12.725 25.97 13.4453 26.7303 14.3656 26.7703C14.3656 25.3698 14.3656 23.9692 14.3656 22.5287ZM37.4145 26.7703C38.4549 26.4502 39.1752 25.5699 39.1752 24.6495C39.1752 23.7692 38.4549 22.8488 37.4145 22.5287C37.4145 23.9692 37.4145 25.3698 37.4145 26.7703Z" fill="black"/>
<path d="M64.3848 18.5672C62.9442 18.5672 61.6237 18.5672 60.3032 18.5672C59.1828 18.5672 58.6626 18.047 58.6626 16.9266C58.6626 15.6061 58.6626 14.3256 58.6626 13.0051C58.6626 11.9246 59.1828 11.4445 60.2632 11.4445C61.5837 11.4445 62.9442 11.4445 64.3448 11.4445C64.3448 10.1239 64.3048 8.84346 64.3448 7.56296C64.3848 6.12241 64.7449 5.72225 66.2255 5.72225C67.466 5.68224 68.7065 5.72225 69.987 5.72225C70.9873 5.72225 71.5075 6.28247 71.5075 7.28285C71.5075 8.60336 71.5075 9.96389 71.5075 11.4044C72.708 11.4044 73.8284 11.4044 74.9889 11.4044C76.9096 11.4044 77.2297 11.7646 77.2297 13.6453C77.2297 14.7657 77.2298 15.9262 77.1897 17.0466C77.1497 18.047 76.6695 18.5672 75.6291 18.5672C74.3086 18.5672 72.9481 18.5672 71.5075 18.5672C71.5075 19.1274 71.5075 19.6476 71.5075 20.1678C71.5075 21.0482 71.5075 21.9685 71.4675 22.8489C71.4275 23.7692 70.9873 24.2494 70.107 24.2894C68.6264 24.3294 67.1459 24.3294 65.6653 24.2894C64.865 24.2494 64.3848 23.6492 64.3848 22.7688C64.3848 21.3683 64.3848 20.0078 64.3848 18.5672ZM68.6264 21.4083C68.6264 20.1678 68.6264 19.0074 68.6264 17.8469C68.6665 16.0862 68.9866 15.7261 70.7873 15.7261C71.9477 15.7261 73.1482 15.7261 74.3086 15.7261C74.3086 15.2059 74.3086 14.8058 74.3086 14.3256C73.0281 14.3256 71.7877 14.3256 70.5472 14.3256C69.0666 14.3256 68.6264 13.8854 68.6264 12.4448C68.6264 11.1643 68.6264 9.92387 68.6264 8.68339C68.0662 8.68339 67.6661 8.68339 67.1859 8.68339C67.1859 10.0439 67.1859 11.3244 67.1859 12.6449C67.1859 13.8854 66.7057 14.3656 65.4652 14.3656C64.1847 14.3656 62.8642 14.3656 61.5437 14.3656C61.5437 14.8858 61.5437 15.326 61.5437 15.7661C62.8242 15.7661 64.0647 15.7661 65.3052 15.7661C66.7457 15.8061 67.1459 16.1663 67.1859 17.6068C67.2259 18.8873 67.1859 20.1278 67.1859 21.4483C67.7461 21.4083 68.1462 21.4083 68.6264 21.4083Z" fill="black"/>
<path d="M50.1396 5.72229C51.7802 5.72229 53.4208 5.72229 55.0214 5.72229C56.1019 5.72229 56.7821 6.28251 56.7821 7.16285C56.7821 8.00317 56.1019 8.56338 55.0615 8.56338C51.7402 8.56338 48.4189 8.56338 45.0976 8.56338C44.0572 8.56338 43.417 8.00317 43.377 7.16285C43.377 6.28251 44.0172 5.72229 45.1376 5.72229C46.8183 5.72229 48.4989 5.72229 50.1396 5.72229Z" fill="black"/>
<path d="M50.0598 16.4063C48.3791 16.4063 46.7385 16.4063 45.0578 16.4063C44.0575 16.4063 43.3772 15.806 43.4172 14.9657C43.4572 14.1254 44.0575 13.5652 45.0578 13.5652C48.4591 13.5652 51.8204 13.5652 55.2218 13.5652C56.1821 13.5652 56.8224 14.1254 56.8224 14.9657C56.8224 15.806 56.1821 16.4063 55.2618 16.4063C53.5011 16.4463 51.7804 16.4063 50.0598 16.4063Z" fill="black"/>
<path d="M50.1391 21.4483C51.8198 21.4483 53.4604 21.4483 55.141 21.4483C56.1814 21.4483 56.8217 22.0085 56.8217 22.8889C56.8217 23.7292 56.1814 24.2894 55.141 24.2894C51.8198 24.2894 48.4985 24.2894 45.1772 24.2894C44.1368 24.2894 43.4966 23.7292 43.4565 22.8889C43.4565 22.0085 44.0968 21.4483 45.2172 21.4483C46.8178 21.4083 48.4985 21.4483 50.1391 21.4483Z" fill="black"/>
</svg>
