<svg width="39" height="39" viewBox="0 0 39 39" fill="none" xmlns="http://www.w3.org/2000/svg">
<path d="M16.397 2.90689C16.397 6.4017 15.566 7.21824 11.9761 7.18558C8.08703 7.15292 6.85716 6.63033 5.99293 12.0522C4.6301 20.7075 3.00135 29.2976 1.43908 37.8876C1.43908 37.9529 1.40584 37.9856 1.40584 38.0509C1.13992 38.8348 -0.123186 38.5408 0.00977275 37.7243C1.60528 28.4157 3.26727 19.1071 4.89602 9.79852C5.36137 7.08759 6.95688 5.74846 9.8155 5.68314C10.8792 5.65048 11.9096 5.65048 12.9733 5.68314C14.3029 5.7158 14.9344 5.16055 14.8679 3.82142C14.8347 3.00488 14.7682 2.18833 14.9012 1.37179C15.0341 0.685896 16.0313 0.587911 16.3305 1.24115C16.3637 1.30647 16.397 1.37179 16.397 1.43712C16.4967 1.89438 16.397 2.41697 16.397 2.90689ZM29.294 7.21824C31.1887 7.2509 32.0861 8.00212 32.485 9.86384C32.5847 10.2884 32.6844 10.713 32.7509 11.1376C34.3132 20.1523 35.8755 29.1343 37.5042 38.1489C37.5375 38.2469 37.5707 38.3449 37.6372 38.4428C38.0028 39.0308 39 38.8348 39 38.1489C39 38.1162 39 38.0836 39 38.0509C37.3713 28.5137 35.7093 18.9765 33.9808 9.43924C33.5487 7.05493 31.9199 5.81379 29.427 5.74846C28.1638 5.7158 26.8675 5.7158 25.6044 5.74846C24.1751 5.81379 23.5768 5.12789 23.61 3.7561C23.61 2.87423 23.6765 1.99236 23.5768 1.14316C23.5768 1.07784 23.5435 1.01251 23.5103 0.94719C23.2444 0.457264 22.5131 0.457264 22.2472 0.94719C22.2139 1.01251 22.1807 1.07784 22.1807 1.14316C22.081 2.15567 22.1142 3.20085 22.1474 4.24602C22.2139 6.07508 23.3108 7.15292 25.1723 7.2509C25.9035 7.28356 26.6016 7.2509 27.3328 7.2509C27.9644 7.18558 28.6292 7.18558 29.294 7.21824ZM28.5627 24.2677C29.8591 28.8076 31.1222 33.3476 32.4518 37.8876C32.7177 38.7041 34.014 38.3449 33.8146 37.5283C33.8146 37.4957 33.8146 37.4957 33.8146 37.463C32.3853 32.2698 30.7898 27.1092 29.427 21.916C29.0281 20.3809 29.1278 18.7152 28.9284 17.1474C28.9284 17.0821 28.8951 16.9841 28.8951 16.9188C28.6957 16.2002 27.632 16.2329 27.499 16.9841C27.1334 19.891 26.801 22.8305 26.5683 25.7374C26.5019 26.456 26.6681 27.2399 26.801 27.9911C27.1002 29.6568 27.499 31.2573 27.765 32.923C28.0641 34.7521 28.1971 36.5811 28.5295 38.4102C28.5627 38.5408 28.6292 38.6388 28.7289 38.7695C29.0946 39.1287 29.7261 39.0634 29.9588 38.6062C29.992 38.5408 30.0253 38.4428 29.992 38.3775C29.5267 34.9807 28.9616 31.6165 28.4298 28.2524C28.2303 26.9459 28.0974 25.6394 27.9644 24.3656L28.5627 24.2677ZM10.8127 25.0515C10.8127 25.7048 10.9124 26.3907 10.8127 27.0439C10.2476 30.6367 9.61606 34.2295 9.11746 37.8223C9.11746 37.8549 9.11746 37.8876 9.11746 37.9529C9.11746 38.7368 10.3473 38.8348 10.5135 38.0836V38.0509C11.1783 34.4254 11.8099 30.7673 12.4082 27.1092C12.5079 26.4887 12.5079 25.8354 12.4082 25.1822C12.0093 22.6672 11.6104 20.1523 11.1118 17.6373C11.1118 17.572 11.0786 17.474 11.0454 17.4087C10.7462 16.6901 9.58282 16.9188 9.6493 17.7027C9.6493 17.7353 9.6493 17.768 9.68254 17.8333C10.2809 19.9563 10.0149 21.9813 9.3169 24.039C8.81831 25.4761 8.51915 26.9786 8.12027 28.4484C7.28928 31.4859 6.42504 34.5234 5.69377 37.561C5.69377 37.561 5.69377 37.561 5.69377 37.5936C5.52757 38.3775 6.65772 38.8021 7.0566 38.0836C7.08984 38.0182 7.12308 37.9529 7.15632 37.8876C7.52196 36.9731 7.65491 35.9932 7.92083 35.046C8.81831 31.7145 9.68254 28.383 10.58 25.0515C10.58 25.0189 10.713 25.0189 10.8127 25.0515ZM20.7846 12.1502C20.6517 10.5497 20.5852 9.37391 20.419 8.19809C20.3857 8.06744 20.3193 7.96946 20.2195 7.83881C19.9204 7.47953 19.3221 7.54486 19.0894 7.96946C19.0229 8.10011 18.9564 8.23075 18.9564 8.3614C18.9897 9.60254 19.0894 10.8764 19.2888 12.0848C19.3221 12.2481 19.4218 12.4441 19.5215 12.6074C19.7874 12.9994 20.3525 12.9667 20.6184 12.6074C20.7514 12.4768 20.7846 12.3135 20.7846 12.1502ZM21.2167 19.3357C21.2167 18.8132 21.3165 18.2252 21.1835 17.7353C21.1503 17.6373 21.117 17.5393 21.0505 17.4414C20.7514 16.9841 19.9869 17.0168 19.8207 17.5393C19.8207 17.572 19.7874 17.6047 19.7874 17.6373C19.6212 18.9111 19.5215 20.2176 19.4883 21.4914C19.4883 21.5241 19.4883 21.5894 19.4883 21.6221C19.6212 22.308 20.5852 22.3733 20.8843 21.7527C20.9176 21.6874 20.9508 21.6221 20.9508 21.5567C21.117 20.8382 21.0838 20.0543 21.117 19.3031C21.1835 19.3357 21.2167 19.3357 21.2167 19.3357ZM18.7902 1.73107C18.7902 2.44963 19.8871 2.58028 20.1198 1.86172C20.1531 1.79639 20.1531 1.69841 20.1863 1.63309C20.286 1.30647 20.2528 0.881866 20.1198 0.522587C20.0201 0.293955 19.6877 0 19.455 0C19.2223 0 18.8899 0.293955 18.8235 0.555249C18.7238 0.881866 18.7902 1.30647 18.7902 1.66575C18.7902 1.66575 18.7902 1.69841 18.7902 1.73107ZM19.6877 32.3351C19.8871 32.2371 19.9536 31.9758 19.8207 31.7799L18.5243 29.5915C18.4246 29.3955 18.1587 29.3302 17.9592 29.4609C17.7598 29.5589 17.6933 29.8201 17.8263 30.0161L19.1226 32.2045C19.1891 32.3351 19.3221 32.4004 19.4883 32.4004C19.5547 32.4004 19.6212 32.4004 19.6877 32.3351ZM21.117 32.1065L22.4134 29.9181C22.5131 29.7222 22.4466 29.4935 22.2804 29.3629C22.081 29.2649 21.8483 29.3302 21.7153 29.4935L20.419 31.6819C20.3193 31.8778 20.3857 32.1065 20.5519 32.2371C20.6184 32.2698 20.6849 32.3024 20.7514 32.3024C20.8843 32.3024 21.0173 32.2371 21.117 32.1065ZM24.4742 32.923C24.4742 32.6944 24.308 32.5311 24.0754 32.5311H21.4827C21.25 32.5311 21.0838 32.6944 21.0838 32.923C21.0838 33.1516 21.25 33.315 21.4827 33.315H24.0754C24.308 33.3476 24.4742 33.1516 24.4742 32.923ZM22.4466 36.6138C22.646 36.5158 22.7125 36.2545 22.5796 36.0585L21.2832 33.8702C21.1835 33.6742 20.9176 33.6089 20.7181 33.7396C20.5187 33.8375 20.4522 34.0988 20.5852 34.2948L21.8815 36.4831C21.948 36.6138 22.081 36.6791 22.2472 36.6791C22.3136 36.6791 22.3801 36.6464 22.4466 36.6138ZM18.7238 36.5811L20.0201 34.3928C20.1198 34.1968 20.0533 33.9682 19.8871 33.8375C19.6877 33.7396 19.455 33.8049 19.3221 33.9682L18.0257 36.1565C17.926 36.3525 17.9925 36.5811 18.1587 36.7118C18.2252 36.7444 18.2916 36.7771 18.3581 36.7771C18.4911 36.7771 18.6573 36.7118 18.7238 36.5811ZM19.3221 33.1516C19.3221 32.923 19.1559 32.7597 18.9232 32.7597H16.3305C16.0978 32.7597 15.9316 32.923 15.9316 33.1516C15.9316 33.3803 16.0978 33.5436 16.3305 33.5436H18.9232C19.1559 33.5436 19.3221 33.3803 19.3221 33.1516Z" fill="black"/>
</svg>
