<svg width="84" height="84" viewBox="0 0 84 84" fill="none" xmlns="http://www.w3.org/2000/svg">
<g opacity="0.8">
<path d="M14.0675 76.4491C14.2978 74.7909 14.5281 73.2248 14.7584 71.6357C15.4263 66.7992 16.0942 61.9627 16.7621 57.1492C16.9233 56.0668 16.9924 54.9613 17.2688 53.9249C18.0749 50.7466 20.0555 48.6508 23.1647 47.6375C26.4811 46.555 29.8206 45.4956 33.1601 44.4822C33.7359 44.298 33.9892 44.0446 33.8971 43.4458C33.851 43.1925 33.8741 42.9161 33.8971 42.6628C34.0813 40.613 33.7589 38.8166 32.308 37.1354C31.4788 36.1681 30.9952 35.2929 29.4982 35.5002C28.4848 35.6384 27.5866 34.9705 26.9418 34.1413C26.7575 33.911 26.5963 33.6807 26.4351 33.4734C16.1403 38.7936 5.61514 33.6116 1.79201 25.4817C-2.21536 16.9373 1.03199 6.7576 9.30009 2.19748C17.5682 -2.36264 28.577 0.308948 33.5516 9.61343C38.9178 7.86308 44.284 6.64245 49.6733 9.72859C52.437 4.61573 56.6747 1.32231 62.4784 0.285917C66.8773 -0.497133 71.0459 0.331979 74.846 2.72719C82.7687 7.70187 85.4633 17.8815 81.1104 26.1727C76.9649 34.0953 66.601 38.5863 56.8819 33.4504C56.8128 33.4965 56.7207 33.5195 56.6747 33.5886C55.7534 35.1086 54.3946 35.7305 52.6673 35.5232C52.1376 35.4541 51.8842 35.6384 51.6079 36.122C51.0551 37.0663 50.3642 37.9184 49.7884 38.8396C49.5811 39.1621 49.4199 39.5536 49.3969 39.8991C49.3508 41.0967 49.4199 42.3173 49.3739 43.5149C49.3508 44.0907 49.5811 44.298 50.0878 44.4592C53.2891 45.4495 56.4904 46.4629 59.6687 47.4762C63.63 48.7199 65.7488 51.4145 66.2785 55.514C66.9925 61.1105 67.8216 66.707 68.6047 72.3036C68.7889 73.6624 68.9732 75.0212 69.1804 76.4491C69.5489 76.4491 69.8714 76.4491 70.1708 76.4491C73.5793 76.4491 77.0109 76.4491 80.4195 76.4491C82.285 76.4491 83.1372 77.3243 83.1372 79.1898C83.1372 79.7656 83.1602 80.3413 83.1372 80.9171C83.0911 82.1608 82.1929 83.082 80.9492 83.1281C80.7189 83.1281 80.4886 83.1281 80.2583 83.1281C54.4867 83.1281 28.6921 83.105 2.92053 83.1511C1.03199 83.1511 -0.165612 82.1377 0.0186347 80.2262C0.0646965 79.8807 0.0186347 79.5353 0.0186347 79.1898C0.0186347 77.2782 0.870778 76.4261 2.8284 76.4261C6.21395 76.4261 9.59949 76.4261 13.0081 76.4261C13.3766 76.4491 13.676 76.4491 14.0675 76.4491ZM58.3098 72.7872C58.3329 72.5569 58.3559 72.4187 58.3789 72.2805C58.7474 66.8452 59.1159 61.3869 59.4844 55.9516C59.5765 54.7079 59.185 54.2243 57.9644 54.2243C47.0938 54.2243 36.2462 54.2243 25.3757 54.2243C24.132 54.2243 23.7635 54.7079 23.8556 55.9516C24.1781 60.6039 24.4775 65.2331 24.7769 69.8853C24.8459 70.8526 24.9381 71.8199 25.0072 72.8102C36.1081 72.7872 47.1629 72.7872 58.3098 72.7872ZM31.571 10.4886C31.594 10.5347 31.571 10.4656 31.5249 10.3965C28.6 4.61573 21.6447 1.16109 15.2881 2.28961C5.63818 4.03995 -0.0965198 13.6899 3.01265 22.9023C6.07576 31.9995 16.716 36.2372 25.0763 31.7001C25.3296 31.5619 25.7442 31.3085 25.7442 31.1243C25.6981 29.7194 25.9975 28.4067 26.6424 27.14C26.7345 26.9557 26.6654 26.6793 26.6424 26.449C26.4581 24.6296 26.2969 22.7871 26.0666 20.9677C25.7211 18.1349 26.412 15.5784 28.3006 13.4596C29.2679 12.4002 30.4425 11.502 31.571 10.4886ZM65.4725 33.5656C66.2325 33.4965 67.0155 33.4504 67.7756 33.3353C76.32 32.1377 82.3771 23.8005 80.9262 15.3481C79.4062 6.43517 71.3223 1.18412 63.6991 2.24354C57.9644 3.0266 53.8649 6.08971 51.3315 11.2486C51.2163 11.4789 51.2394 11.8474 51.3315 12.1008C51.4697 12.6305 51.8151 12.8608 52.4139 12.999C54.8322 13.5517 56.0298 15.3712 56.7898 17.5591C57.5729 19.7931 57.3195 22.0962 57.0892 24.3762C56.9741 25.4126 56.905 26.4721 56.9741 27.5315C57.0432 28.5679 57.3886 29.6043 57.4807 30.6406C57.5268 31.1704 57.665 31.4467 58.1256 31.7001C60.4287 32.8746 62.87 33.5425 65.4725 33.5656ZM49.1896 46.3708C49.0514 46.6932 48.9593 46.9465 48.8442 47.1999C47.7156 49.526 45.9192 50.9309 43.2937 51.1151C42.1882 51.1842 41.0597 51.1612 39.9312 51.1151C38.1348 51.023 36.6608 50.2399 35.5323 48.8811C34.9335 48.1672 34.5189 47.315 33.9892 46.4398C33.9201 46.4629 33.7589 46.4859 33.5977 46.532C30.4885 47.5223 27.3793 48.5587 24.2471 49.4799C21.0228 50.4242 19.4337 52.6121 19.0191 55.8825C18.3052 61.5481 17.4761 67.1907 16.693 72.8563C16.5318 74.0309 16.3936 75.2054 16.2324 76.4491C17.3148 76.4491 18.2821 76.4491 19.2494 76.4491C19.2494 73.9618 19.9864 73.2018 22.8423 72.7642C22.8423 72.649 22.8423 72.5108 22.8423 72.3726C22.4738 67.0064 22.1053 61.6633 21.6907 56.2971C21.4834 53.7176 22.8423 52.1745 25.4217 52.1515C36.2462 52.1515 47.0938 52.1515 57.9183 52.1515C60.3826 52.1515 61.7875 53.6946 61.6033 56.1819C61.2117 61.5481 60.8433 66.8913 60.4517 72.2575C60.4287 72.4417 60.4748 72.649 60.4978 72.8563C61.5572 72.8333 62.4784 72.9945 63.2154 73.7775C63.9294 74.5375 64.1136 75.4588 63.9985 76.4491C65.0349 76.4491 66.0022 76.4491 67.0386 76.4491C66.9464 75.643 66.8773 74.906 66.7622 74.1921C65.91 68.0659 65.0349 61.9166 64.2288 55.7904C63.8142 52.5891 62.2021 50.4472 59.0468 49.549C57.8723 49.2036 56.6977 48.789 55.5231 48.4205C53.4273 47.6835 51.3315 47.0387 49.1896 46.3708ZM42.7179 21.221C42.5797 21.221 42.5567 21.221 42.5337 21.221C39.7239 22.8792 36.7299 23.9387 33.4134 23.8926C33.2292 23.8926 32.9298 24.0538 32.8837 24.192C32.331 25.6429 31.2716 26.9557 31.7782 28.66C31.8934 29.0285 31.9164 29.443 31.9625 29.8576C32.5152 34.0262 34.3116 37.4808 37.7202 40.0373C40.507 42.1331 42.764 42.1331 45.5507 40.0373C48.8902 37.5039 50.5254 34.0953 51.3545 30.0418C51.9073 27.2551 51.1242 24.975 49.8345 22.672C49.6272 22.7641 49.489 22.8332 49.3278 22.9253C47.5314 23.8005 45.7119 24.5375 43.7083 24.6756C42.4185 24.7678 42.027 24.2841 42.3264 23.0405C42.4646 22.4416 42.5797 21.8428 42.7179 21.221ZM54.9704 25.3205C55.0164 23.5471 55.1316 21.7507 55.1086 19.9543C55.1086 18.6415 54.6479 17.4209 53.8419 16.3615C53.2661 15.5784 52.5291 14.9336 51.4697 15.0257C50.5484 15.0948 50.0418 14.7033 49.7424 13.8511C49.0284 11.8014 47.5774 10.5577 45.4356 10.2353C40.5991 9.52131 36.062 10.3274 31.9164 12.9759C29.9588 14.2426 28.3927 15.97 28.2315 18.3191C28.0472 20.7374 28.3927 23.2247 28.4848 25.5969C29.5903 25.8733 30.097 25.5278 30.3503 24.6756C30.5346 24.0538 30.88 23.478 31.1104 22.8562C31.4098 22.0271 31.9395 21.7047 32.8146 21.7738C35.9238 21.958 38.7566 21.0598 41.3591 19.4016C42.1422 18.9179 42.8331 18.3191 43.6392 17.8585C44.0077 17.6512 44.6525 17.5361 44.9289 17.7203C45.2283 17.9046 45.2744 18.5264 45.3665 18.964C45.4125 19.1482 45.2974 19.3555 45.2513 19.5398C45.044 20.461 44.8137 21.3592 44.5834 22.3956C44.975 22.3035 45.2744 22.2574 45.5277 22.1653C46.8635 21.5895 48.1993 21.0137 49.5351 20.4149C50.5715 19.9313 51.0091 20.0695 51.4927 21.1289C51.9533 22.1422 52.3679 23.1786 52.8285 24.215C53.4043 25.4357 53.4043 25.4357 54.9704 25.3205ZM2.16051 78.6601C2.16051 79.0516 2.16051 79.3971 2.16051 79.7425C2.18354 81.2626 1.97626 81.0783 3.47327 81.0783C28.6691 81.0783 53.8649 81.0783 79.0607 81.0783C81.2026 81.0783 81.2026 81.0783 81.1335 78.9364C81.1335 78.8674 81.0874 78.7752 81.0414 78.637C54.7631 78.6601 28.5079 78.6601 2.16051 78.6601ZM41.5664 76.4491C47.8538 76.4491 54.1413 76.4491 60.4287 76.4491C60.7051 76.4491 61.0505 76.5182 61.2808 76.403C61.5342 76.2649 61.8336 75.9655 61.8796 75.7121C61.9027 75.5048 61.6263 75.1594 61.396 75.0212C61.1657 74.883 60.8433 74.9291 60.5669 74.9291C47.969 74.9291 35.348 74.9291 22.7501 74.9291C22.4738 74.9291 22.1283 74.906 21.921 75.0212C21.6907 75.1594 21.4143 75.5048 21.4604 75.7121C21.5065 75.9655 21.7828 76.2649 22.0592 76.403C22.2895 76.5182 22.6119 76.4491 22.9114 76.4491C29.1067 76.4491 35.325 76.4491 41.5664 76.4491ZM35.9468 41.2809C35.9468 42.5476 35.9008 43.584 35.9468 44.6204C36.085 47.1768 37.9966 48.9963 40.553 49.0193C41.3361 49.0193 42.0961 49.0193 42.8791 49.0193C44.998 48.9732 46.7944 47.5684 47.1399 45.4725C47.3702 44.1598 47.3011 42.824 47.3932 41.2118C43.501 44.5053 39.793 44.5053 35.9468 41.2809ZM52.7594 33.3353C53.6576 33.5656 54.2104 33.4504 54.671 32.8286C55.6383 31.4698 55.6383 29.9958 55.0625 28.4988C54.8552 27.946 54.5328 27.4394 53.8419 27.4854C53.4734 29.443 53.1279 31.3546 52.7594 33.3353ZM29.4982 27.7848C28.1624 28.0612 27.5175 29.8806 28.0472 31.7692C28.4388 33.151 29.36 33.7038 30.5346 33.3122C30.1891 31.4698 29.8437 29.6503 29.4982 27.7848Z" fill="black"/>
<path d="M16.0251 12.0086C16.0251 10.1662 16.0251 8.32368 16.0251 6.50424C16.0251 5.81331 16.3475 5.2836 17.0845 5.30663C17.7985 5.30663 18.1209 5.81331 18.144 6.52727C18.144 6.73455 18.144 6.91879 18.144 7.12607C18.144 10.1431 18.19 13.1602 18.1209 16.1772C18.0979 17.0294 18.3743 17.4439 19.1113 17.8354C20.6543 18.6646 22.1513 19.5628 23.6714 20.4379C24.5465 20.9446 24.7769 21.4743 24.4544 22.0731C24.109 22.695 23.5102 22.7641 22.658 22.2804C20.7464 21.1749 18.8349 20.0694 16.9233 18.987C16.2554 18.6185 16.0021 18.1118 16.0251 17.3748C16.0481 15.5554 16.0251 13.782 16.0251 12.0086Z" fill="black"/>
<path d="M64.4362 27.8539C62.2022 27.2551 60.6822 25.9884 60.0603 23.8005C59.9222 23.3399 59.8761 22.8332 59.8761 22.3495C59.8761 21.7507 60.2215 21.3592 60.8204 21.3132C61.4192 21.2671 61.7877 21.6126 61.9258 22.1883C62.018 22.5108 61.9719 22.8793 62.064 23.2017C62.5016 24.929 64.1368 25.9654 66.0253 25.7581C67.6836 25.5739 69.0194 24.1229 69.0654 22.4417C69.1115 20.7604 67.8678 19.2634 66.0944 18.964C65.4265 18.8488 64.7126 18.8488 64.0677 18.6646C61.6034 18.0428 59.9452 15.947 59.8531 13.4136C59.784 11.0414 61.327 8.80737 63.6762 8.04735C64.298 7.84008 64.5053 7.5637 64.4362 6.9649C64.4132 6.75762 64.3671 6.48125 64.4592 6.3661C64.7817 6.02063 65.1041 5.51395 65.5187 5.44486C66.0484 5.32971 66.5781 5.79033 66.509 6.38913C66.3708 7.54067 66.9466 7.88614 67.8908 8.30069C69.8945 9.15284 70.977 10.788 71.1152 12.999C71.1612 13.8511 70.7927 14.3348 70.1248 14.3118C69.3648 14.3118 69.1115 13.8511 69.0424 13.1372C68.8581 11.3177 67.5684 9.98195 65.8641 9.84376C64.1138 9.68255 62.5937 10.6959 62.0871 12.3311C61.4192 14.519 63.0544 16.6609 65.4496 16.753C68.0751 16.8452 70.1939 18.4113 70.9079 20.7374C71.7831 23.6162 70.1939 26.6333 67.269 27.5776C66.7163 27.7618 66.4399 27.9921 66.532 28.5909C66.5551 28.7752 66.532 28.9824 66.509 29.1897C66.4399 29.7885 66.1175 30.157 65.5187 30.1801C64.8508 30.2031 64.5053 29.8116 64.4362 29.1897C64.3901 28.7752 64.4362 28.3376 64.4362 27.8539Z" fill="black"/>
</g>
</svg>
