<svg width="30" height="30" viewBox="0 0 30 30" fill="none" xmlns="http://www.w3.org/2000/svg">
<path d="M0.92269 7.60661C0.968266 7.40152 1.00625 7.20403 1.06701 7.00654C1.54556 5.47216 2.56341 4.48469 4.13577 4.16566C5.70052 3.85423 7.01462 4.37835 8.02488 5.60889C8.1692 5.78359 8.27554 5.80638 8.46544 5.71523C8.95158 5.47976 9.4681 5.30505 9.91626 5.0164C11.1316 4.22643 11.7697 3.07944 11.838 1.62103C11.8608 1.08931 12.0507 0.899414 12.5672 0.899414C14.4966 0.899414 16.4336 0.899414 18.3629 0.899414C18.887 0.899414 19.0693 1.08931 19.0997 1.61343C19.2061 3.1554 19.8213 4.39354 21.2494 5.10755C22.2824 5.60889 23.3307 6.04945 24.3637 6.5204C25.6398 7.10528 26.878 7.75853 27.8882 8.76879C28.8605 9.74107 29.4074 10.9184 29.5061 12.2781C29.6353 13.9568 29.7264 15.6431 29.8252 17.3294C29.848 17.7168 29.6277 17.9826 29.2935 17.9978C28.9744 18.013 28.7466 17.7851 28.701 17.4054C28.6934 17.3674 28.6934 17.3294 28.6934 17.2914C28.6478 16.4862 28.6098 15.6811 28.5642 14.8759C28.5111 13.9948 28.4807 13.1137 28.3895 12.2401C28.2452 10.8653 27.5084 9.82462 26.4298 9.00426C25.2296 8.08516 23.8472 7.50787 22.4723 6.91538C21.8722 6.65712 21.2646 6.42165 20.6949 6.10262C19.1757 5.25947 18.3249 3.94538 18.0363 2.24389C18.0287 2.20591 18.0287 2.16793 18.0135 2.12995C18.0059 2.09957 17.9907 2.07678 17.9755 2.0388C16.312 2.0388 14.6485 2.0388 12.9698 2.0388C12.5976 4.56065 11.0632 6.05705 8.70851 6.80904C9.16427 8.68523 8.70091 10.2424 7.12096 11.3362C5.72331 12.3009 4.24211 12.2477 2.7761 11.4274C2.34313 12.2249 1.8266 25.9432 2.11525 28.8372C3.30781 28.8372 4.50797 28.8372 5.72331 28.8372C5.7461 28.4042 5.76889 27.9789 5.79168 27.5535C5.88283 26.1483 5.97398 24.7354 6.06513 23.3302C6.07273 23.2238 6.04994 23.1023 6.01955 22.996C5.48784 21.2413 4.94853 19.4866 4.41681 17.732C4.39403 17.6484 4.35605 17.5725 4.34085 17.4889C4.27249 17.1623 4.43201 16.8812 4.72825 16.7977C5.03208 16.7141 5.31313 16.8509 5.41948 17.1699C5.63976 17.8459 5.86004 18.522 6.05753 19.198C6.76395 21.6515 7.47797 24.105 8.14641 26.566C8.32871 27.2421 8.37429 27.9637 8.48063 28.6625C8.48823 28.7157 8.49582 28.7689 8.51102 28.8372C10.6379 28.8372 12.7419 28.8372 14.8992 28.8372C14.8992 28.7309 14.8992 28.6245 14.8992 28.5106C14.8992 24.8797 14.8992 21.2489 14.8992 17.6256C14.8992 17.5193 14.8916 17.4129 14.9068 17.3142C14.9372 17.0256 15.1726 16.8053 15.4537 16.7977C15.7499 16.7901 16.0006 17.0104 16.031 17.3142C16.0386 17.4205 16.0386 17.5193 16.0386 17.6256C16.0386 21.2489 16.0386 24.8645 16.0386 28.4878C16.0386 28.6017 16.0386 28.7081 16.0386 28.8372C18.1806 28.8372 20.2999 28.8372 22.3812 28.8372C22.5179 28.0624 22.5863 27.2952 22.7913 26.566C23.5433 23.8619 24.3333 21.1653 25.1081 18.4612C25.222 18.0738 25.3512 17.6864 25.4727 17.299C25.6094 16.8736 25.8753 16.6913 26.2171 16.7901C26.5589 16.8888 26.6881 17.2003 26.5589 17.618C26.0272 19.3727 25.4879 21.1274 24.9638 22.8896C24.903 23.0947 24.8878 23.315 24.903 23.5277C24.9942 25.1988 25.1005 26.8775 25.1993 28.5486C25.2069 28.6397 25.2144 28.7309 25.222 28.8372C26.4298 28.8372 27.6224 28.8372 28.8301 28.8372C28.8377 28.7309 28.8529 28.6321 28.8529 28.5258C28.8605 26.5736 28.8605 24.6215 28.8681 22.6693C28.8681 22.2364 29.0504 21.9857 29.3922 21.9629C29.6884 21.9477 29.9239 22.13 29.9771 22.4187C29.9923 22.5174 29.9999 22.6238 29.9999 22.7301C29.9923 24.9405 29.9771 27.1433 29.9695 29.3537C29.9695 29.6652 29.8024 29.8399 29.5669 29.9842C27.8806 29.9842 26.1943 29.9842 24.508 29.9842C24.2118 29.8399 24.0978 29.612 24.0903 29.2778C24.0751 28.5334 24.0219 27.789 23.9839 27.0446C23.9763 26.9458 23.9687 26.8471 23.9535 26.7483C23.6725 27.5687 23.5661 28.4042 23.5585 29.255C23.5585 29.5968 23.4446 29.8399 23.1332 29.9842C18.0135 29.9842 12.9015 29.9842 7.78181 29.9842C7.47038 29.8399 7.36403 29.5968 7.35644 29.255C7.34884 28.4042 7.2425 27.5687 6.99183 26.7483C6.96145 26.8319 6.94626 26.923 6.93866 27.0142C6.90068 27.7662 6.85511 28.5258 6.83232 29.2778C6.82472 29.6044 6.71078 29.8399 6.41454 29.9842C4.72825 29.9842 3.04195 29.9842 1.35566 29.9842C1.05182 29.8247 0.937882 29.574 0.945478 29.2246C0.96067 28.8524 0.915094 28.4802 0.899902 28.108C0.899902 26.247 0.899902 24.3936 0.899902 22.5326C0.915094 22.4111 0.937882 22.2895 0.937882 22.168C1.0822 19.1296 1.21134 16.0837 1.36325 13.0453C1.39364 12.4376 1.43921 11.8072 1.59873 11.2223C1.72786 10.7513 1.71267 10.4171 1.44681 9.98414C1.19614 9.57396 1.0974 9.02705 0.92269 8.51812C0.92269 8.21429 0.92269 7.91045 0.92269 7.60661ZM4.91814 5.22149C3.35338 5.2139 2.06967 6.48242 2.06208 8.03958C2.05448 9.60434 3.31541 10.8881 4.88017 10.9032C6.45252 10.9184 7.74383 9.63472 7.75142 8.06996C7.74383 6.5052 6.47531 5.22909 4.91814 5.22149Z" fill="black"/>
<path d="M10.6073 14.5266C10.349 14.6177 10.1211 14.7013 9.88564 14.7848C9.49825 14.914 9.23239 14.8076 9.08048 14.4354C8.845 13.8657 8.62472 13.296 8.40444 12.7187C8.26771 12.3541 8.38925 12.0427 8.71587 11.9212C9.0273 11.8072 9.30835 11.944 9.46027 12.301C9.62738 12.7035 9.7793 13.1061 9.95401 13.5391C10.1971 13.4555 10.425 13.372 10.6528 13.2884C11.1086 13.1289 11.3896 13.2505 11.5416 13.6986C11.7163 14.2075 11.8834 14.7165 12.0505 15.233C12.1796 15.628 12.0429 15.9318 11.7087 16.0457C11.3972 16.1521 11.1086 15.9774 10.9795 15.6052C10.8503 15.2634 10.7364 14.914 10.6073 14.5266Z" fill="black"/>
<path d="M13.2054 10.7817C13.5776 10.7437 13.927 10.7057 14.2689 10.6753C14.6714 10.645 14.9297 10.8425 14.9601 11.1767C14.9905 11.5109 14.7474 11.7692 14.3448 11.8071C13.8359 11.8603 13.327 11.9135 12.818 11.9666C12.3927 12.0122 12.142 11.8223 12.0964 11.4046C12.066 11.1463 12.0509 10.8804 12.0357 10.6374C11.5723 10.6374 11.1317 10.6374 10.6912 10.6374C10.319 10.6374 10.0683 10.4323 10.0531 10.1056C10.0379 9.80941 10.2202 9.55115 10.5241 9.52836C11.2229 9.47519 11.9217 9.4448 12.6205 9.42961C12.9168 9.42202 13.1143 9.67268 13.1447 9.99931C13.1675 10.2576 13.1826 10.5082 13.2054 10.7817Z" fill="black"/>
<path d="M29.9314 19.988C29.9314 20.2994 29.6808 20.5501 29.3769 20.5577C29.0655 20.5577 28.7921 20.2842 28.8072 19.9728C28.8148 19.6614 29.0731 19.4259 29.3845 19.4259C29.696 19.4335 29.9314 19.6766 29.9314 19.988Z" fill="black"/>
<path d="M4.88752 6.36077C5.82182 6.35318 6.59661 7.11277 6.6042 8.04707C6.6118 8.99656 5.84461 9.77134 4.90272 9.77134C3.96842 9.77134 3.20123 9.00416 3.20123 8.06986C3.19363 7.13556 3.95322 6.36837 4.88752 6.36077ZM4.91031 7.50016C4.60647 7.49257 4.34821 7.73564 4.33302 8.03947C4.31783 8.35091 4.57609 8.62436 4.88752 8.63196C5.19896 8.63955 5.46481 8.37369 5.46481 8.06226C5.46481 7.75842 5.21415 7.50016 4.91031 7.50016Z" fill="black"/>
</svg>
