<svg width="83" height="83" viewBox="0 0 83 83" fill="none" xmlns="http://www.w3.org/2000/svg">
<path d="M12.2224 11.1557C12.2224 8.01183 12.2224 4.96936 12.2224 1.9776C12.2224 0.405662 12.6281 0 14.2 0C31.7449 0 49.2898 0 66.8347 0C68.4574 0 68.863 0.405662 68.863 2.02831C68.863 14.9588 68.863 27.8893 68.863 40.8197C68.863 41.5297 69.0658 41.8339 69.725 42.0874C78.2439 45.3327 83.5176 53.6488 82.9598 62.7762C82.3513 72.5121 74.9479 80.5746 65.3135 81.9437C60.2934 82.6537 55.5776 81.6395 51.2167 79.0027C50.7603 78.7492 50.1518 78.597 49.6448 78.6477C45.8417 78.952 42.0386 79.2562 38.2355 79.6112C34.5846 79.9154 30.9336 80.2704 27.2319 80.5746C23.581 80.8789 19.9807 81.1831 16.3298 81.4874C13.8958 81.6902 11.5125 81.893 9.07856 82.0959C8.7236 82.1466 8.41936 82.1466 8.0644 82.1466C6.99954 82.1466 6.49246 81.7916 6.39105 80.7775C6.18822 79.0534 6.0868 77.38 5.93468 75.656C5.52902 71.1937 5.17406 66.6807 4.7684 62.2184C4.41344 57.8576 4.05849 53.446 3.65283 49.0851C3.29787 44.7242 2.89221 40.3634 2.53726 35.9518C2.23301 32.2501 1.92876 28.5485 1.62452 24.8975C1.32027 21.2466 1.01602 17.5956 0.66107 13.9953C0.559654 12.6769 1.01602 12.1192 2.33443 12.0177C5.63043 11.7135 8.87573 11.4092 12.2224 11.1557ZM42.3428 67.5935C40.3652 60.1394 41.6329 53.3953 46.7037 47.6653C51.7745 41.9353 58.3665 39.907 65.9727 40.9719C65.9727 28.1935 65.9727 15.5166 65.9727 2.83963C48.9856 2.83963 31.9985 2.83963 15.0114 2.83963C15.0114 24.4411 15.0114 45.9919 15.0114 67.5935C24.1388 67.5935 33.2155 67.5935 42.3428 67.5935ZM47.4643 76.0109C47.2108 75.7067 47.0587 75.5039 46.9066 75.301C45.9431 73.9319 44.8782 72.5628 44.0162 71.0923C43.6613 70.5345 43.357 70.3317 42.6978 70.3317C33.2662 70.3317 23.8345 70.3317 14.4029 70.3317C12.6281 70.3317 12.3239 69.9767 12.3239 68.2527C12.3239 50.5049 12.3239 32.7572 12.3239 15.0602C12.3239 14.7053 12.3239 14.3503 12.3239 13.9446C9.3321 14.1982 6.49246 14.4517 3.60212 14.6545C5.4276 36.2561 7.25308 57.7561 9.07856 79.3069C21.8569 78.1914 34.5846 77.1265 47.4643 76.0109ZM62.271 43.4566C52.1295 43.558 44.1683 51.6205 44.2697 61.6606C44.3712 71.4472 52.5858 79.5098 62.3724 79.4084C72.3618 79.3069 80.3737 71.1937 80.2723 61.255C80.1201 51.367 72.0576 43.3551 62.271 43.4566Z" fill="black"/>
<path d="M47.9714 13.6404C44.3712 13.6404 40.7202 13.6404 37.12 13.6404C36.765 13.6404 36.2579 13.6911 36.0551 13.4883C35.7001 13.1333 35.1931 12.5756 35.2438 12.1699C35.2945 11.7642 35.8015 11.2572 36.2072 10.9529C36.41 10.8008 36.8664 10.8515 37.2214 10.8515C44.3712 10.8515 51.521 10.8515 58.6707 10.8515C60.0399 10.8515 60.7498 11.3079 60.7498 12.2206C60.8005 13.1333 60.0399 13.6404 58.6707 13.6404C55.1212 13.6404 51.521 13.6404 47.9714 13.6404Z" fill="black"/>
<path d="M47.9207 26.9258C44.3712 26.9258 40.8724 26.9258 37.3228 26.9258C37.0186 26.9258 36.765 26.9258 36.4608 26.9258C35.7002 26.8751 35.2945 26.4187 35.1931 25.6581C35.0917 24.9989 35.6495 24.3397 36.3594 24.1876C36.5622 24.1369 36.765 24.1876 36.9679 24.1876C44.3205 24.1876 51.6731 24.1876 59.0257 24.1876C60.3441 24.1876 61.1048 25.1003 60.6484 26.1145C60.3441 26.7737 59.7864 26.9765 59.1272 26.9765C55.3748 26.9258 51.6224 26.9258 47.9207 26.9258Z" fill="black"/>
<path d="M26.0658 19.6745C25.1024 19.6745 24.1896 19.6745 23.2262 19.6745C22.212 19.6745 21.7049 19.1675 21.6542 18.1533C21.6035 16.2264 21.6035 14.3502 21.6542 12.4233C21.6542 11.4092 22.1613 10.8514 23.1755 10.8514C25.1024 10.8007 27.0293 10.8007 28.9562 10.8514C30.021 10.8514 30.4774 11.4092 30.4774 12.474C30.4774 14.3502 30.4774 16.2264 30.4774 18.1026C30.4774 19.1675 29.9703 19.6238 28.9055 19.6745C27.9927 19.7252 27.0293 19.6745 26.0658 19.6745ZM24.5446 13.691C24.5446 14.8066 24.5446 15.8715 24.5446 16.8856C25.6602 16.8856 26.6743 16.8856 27.7392 16.8856C27.7392 15.8207 27.7392 14.7559 27.7392 13.691C26.6743 13.691 25.6094 13.691 24.5446 13.691Z" fill="black"/>
<path d="M30.5281 28.3962C30.5281 29.3597 30.5281 30.3231 30.5281 31.2866C30.5281 32.25 30.021 32.8078 29.0576 32.8078C27.08 32.8585 25.1531 32.8585 23.1755 32.8078C22.2627 32.8078 21.7049 32.25 21.6542 31.2866C21.6035 29.3597 21.6035 27.4328 21.6542 25.4552C21.6542 24.441 22.212 23.934 23.2262 23.934C25.1531 23.934 27.0293 23.934 28.9562 23.934C30.021 23.934 30.5281 24.441 30.5281 25.5059C30.5281 26.5201 30.5281 27.4328 30.5281 28.3962ZM24.4939 30.0189C25.6094 30.0189 26.6743 30.0189 27.6885 30.0189C27.6885 28.9033 27.6885 27.8385 27.6885 26.8243C26.5729 26.8243 25.5587 26.8243 24.4939 26.8243C24.4939 27.8892 24.4939 28.9033 24.4939 30.0189Z" fill="black"/>
<path d="M45.6893 18.6604C42.6975 18.6604 39.7057 18.6604 36.714 18.6604C36.1055 18.6604 35.497 18.4576 35.3449 17.8491C35.2435 17.3927 35.2942 16.8349 35.5477 16.4293C35.6998 16.125 36.2576 15.9222 36.6126 15.9222C42.6975 15.8715 48.7824 15.8715 54.8167 15.9222C55.6787 15.9222 56.2365 16.5307 56.2365 17.2913C56.2365 18.0519 55.6787 18.6604 54.8167 18.6604C51.7742 18.6604 48.7317 18.6604 45.6893 18.6604Z" fill="black"/>
<path d="M45.74 29.2584C48.6811 29.2584 51.6728 29.2584 54.6139 29.2584C55.5266 29.2584 56.0844 29.6133 56.1858 30.3739C56.3379 31.2867 55.7294 31.9966 54.766 31.9966C53.904 32.0473 53.0419 31.9966 52.1799 31.9966C47.2105 31.9966 42.2412 31.9966 37.3225 31.9966C37.1197 31.9966 36.8662 31.9966 36.6633 31.9966C35.7506 31.9459 35.1421 31.3881 35.1421 30.6275C35.1421 29.8162 35.7506 29.2584 36.6633 29.2584C39.7058 29.2077 42.7483 29.2584 45.74 29.2584Z" fill="black"/>
<path d="M44.2695 38.3857C46.7035 38.3857 49.0867 38.3857 51.5207 38.3857C51.8757 38.3857 52.3827 38.3857 52.5856 38.5886C52.9405 38.9435 53.2448 39.4506 53.2955 39.907C53.3462 40.5155 52.9405 40.9718 52.2813 41.124C51.9264 41.1747 51.6221 41.1747 51.2672 41.1747C46.5513 41.1747 41.8862 41.1747 37.1704 41.1747C35.8013 41.1747 35.1421 40.7183 35.1421 39.8056C35.1421 38.8928 35.852 38.3857 37.1704 38.3857C39.5537 38.3857 41.9369 38.3857 44.2695 38.3857Z" fill="black"/>
<path d="M24.8993 56.1335C26.2177 54.4095 27.4854 52.7361 28.7531 51.1135C29.463 50.2007 30.5278 50.15 31.0856 51.012C31.4406 51.5698 31.4406 52.0769 31.0349 52.584C29.4123 54.7137 27.7896 56.8434 26.167 58.9732C25.6599 59.6324 24.8486 59.6831 24.1894 59.176C23.0231 58.2633 21.9075 57.2998 20.7919 56.3364C20.1327 55.7279 20.082 54.9673 20.6398 54.3588C21.1469 53.801 21.9075 53.7503 22.5667 54.2066C23.3273 54.7644 24.088 55.4236 24.8993 56.1335Z" fill="black"/>
<path d="M24.8991 42.7973C26.1161 41.2254 27.2317 39.7549 28.3979 38.2336C28.5501 38.0308 28.6515 37.8787 28.8036 37.6758C29.3614 37.0166 30.1727 36.9152 30.7812 37.3716C31.3897 37.828 31.4911 38.5886 31.0347 39.3492C30.6798 39.8563 30.3248 40.3126 29.9699 40.769C28.8036 42.2903 27.6373 43.8622 26.4203 45.3834C25.6597 46.3976 24.9498 46.4483 23.9864 45.637C22.9722 44.7749 21.9073 43.9129 20.8932 43.0509C20.1833 42.4424 20.0819 41.6311 20.6397 41.0226C21.1467 40.4141 21.9073 40.3634 22.6173 40.9211C23.3779 41.5296 24.1385 42.1381 24.8991 42.7973Z" fill="black"/>
<path d="M40.8724 46.1948C39.5033 46.1948 38.1342 46.1948 36.7651 46.1948C35.8017 46.1948 35.1425 45.5863 35.1932 44.7749C35.1932 43.9636 35.8017 43.4565 36.7651 43.4565C39.5033 43.4565 42.2415 43.4565 44.9798 43.4565C45.9432 43.4565 46.501 43.9636 46.501 44.8257C46.501 45.6877 45.9432 46.1948 44.9291 46.1948C43.5092 46.1948 42.1908 46.1948 40.8724 46.1948Z" fill="black"/>
<path d="M38.286 51.6713C38.8438 51.6713 39.4016 51.6713 40.0101 51.6713C40.8214 51.722 41.3285 52.2798 41.3285 53.0404C41.3285 53.801 40.7707 54.3588 40.0101 54.4095C38.8438 54.4602 37.6776 54.4602 36.5113 54.4095C35.7507 54.4095 35.1929 53.7503 35.1929 52.9897C35.1929 52.2798 35.7507 51.722 36.5113 51.6713C37.0691 51.6713 37.6776 51.6713 38.286 51.6713Z" fill="black"/>
<path d="M37.3228 59.5309C36.9171 59.4802 36.4608 59.5816 36.1565 59.3788C35.7509 59.0746 35.2945 58.6182 35.1931 58.1618C35.0409 57.5533 35.4466 56.9448 36.1058 56.8434C36.8664 56.742 37.627 56.6913 38.3877 56.7927C39.1483 56.8434 39.6046 57.4519 39.5539 58.2125C39.5032 58.9731 39.0469 59.3788 38.337 59.5309C37.982 59.5816 37.6777 59.5309 37.3228 59.5309Z" fill="black"/>
<path d="M78.2947 61.4071C78.2947 70.281 71.0435 77.5322 62.2711 77.4815C53.2958 77.4308 46.146 70.2303 46.146 61.3057C46.146 52.4319 53.4479 45.3328 62.5246 45.3328C71.1956 45.3835 78.2947 52.6347 78.2947 61.4071ZM63.6909 74.5911C71.0942 73.8812 75.4044 67.1878 75.303 62.8776C73.2746 62.6748 72.6662 62.3706 72.7169 61.4578C72.8183 59.6831 74.2888 60.1394 75.3537 59.9873C75.0494 53.5981 68.8631 48.3245 63.6402 48.3752C63.5388 49.4401 63.8937 50.9613 62.2204 50.9613C60.5977 50.9613 60.902 49.4401 60.8005 48.3752C55.5269 48.5274 49.5941 53.3953 49.0363 60.038C50.0505 60.2408 51.6731 59.6324 51.6731 61.4578C51.6731 63.2833 50.0505 62.7255 49.0363 62.8776C49.6955 69.5204 55.3241 74.2362 60.8005 74.5911C60.902 73.5263 60.4963 71.9543 62.2711 71.9543C63.9951 71.9543 63.4881 73.5263 63.6909 74.5911Z" fill="black"/>
<path d="M63.6402 56.2855C63.6402 56.4884 63.6402 56.7419 63.6402 56.9447C63.5895 57.7561 63.6909 58.3646 64.4515 58.8716C65.4657 59.5815 65.8207 60.7478 65.5671 62.0155C65.4657 62.5226 65.6178 62.7761 65.9221 63.1311C66.8348 64.0438 67.7476 64.9059 68.6603 65.8693C69.3702 66.5792 69.4209 67.3905 68.8631 67.999C68.2546 68.6075 67.4433 68.5568 66.6827 67.7962C65.7699 66.8835 64.9079 65.9707 63.9445 65.1087C63.6909 64.9059 63.2346 64.703 62.9303 64.7537C61.1555 64.9566 59.7357 64.1959 59.1272 62.6747C58.5187 61.1535 59.0258 59.6322 60.4456 58.5674C60.6485 58.4153 60.8513 58.111 60.8513 57.8575C60.902 56.894 60.8513 55.9306 60.8513 54.9671C60.8513 54.0037 61.4091 53.3445 62.2204 53.3445C63.0317 53.3445 63.5895 53.953 63.6402 54.9164C63.6402 55.3221 63.6402 55.7785 63.6402 56.2855ZM61.7133 61.5591C61.9162 61.9648 62.5246 62.0155 62.7275 61.6098C62.7782 61.5591 62.7782 61.5084 62.7782 61.407C62.7782 61.2042 62.4232 61.0014 62.2204 60.7478C62.0176 60.9507 61.7133 61.1028 61.6626 61.3563C61.6626 61.407 61.7133 61.5084 61.7133 61.5591Z" fill="black"/>
</svg>
