<svg width="81" height="17" viewBox="0 0 81 17" fill="none" xmlns="http://www.w3.org/2000/svg">
<path d="M14.2065 6.9056L10.1077 6.27856L8.27045 2.35939C8.13323 2.06673 7.65378 2.06673 7.51656 2.35939L5.6799 6.27856L1.58102 6.9056C1.24436 6.95734 1.10991 7.3674 1.34602 7.60943L4.32379 10.6662L3.61991 14.9876C3.56379 15.3309 3.9299 15.5885 4.23268 15.4199L7.89378 13.3936L11.5549 15.4205C11.8549 15.5874 12.2243 15.3348 12.1677 14.9882L11.4638 10.6668L14.4415 7.60998C14.6777 7.3674 14.5427 6.95734 14.2065 6.9056Z" fill="#FAA200"/>
<path d="M30.2065 6.9056L26.1077 6.27856L24.2704 2.35939C24.1332 2.06673 23.6538 2.06673 23.5166 2.35939L21.6799 6.27856L17.581 6.9056C17.2444 6.95734 17.1099 7.3674 17.346 7.60943L20.3238 10.6662L19.6199 14.9876C19.5638 15.3309 19.9299 15.5885 20.2327 15.4199L23.8938 13.3936L27.5549 15.4205C27.8549 15.5874 28.2243 15.3348 28.1677 14.9882L27.4638 10.6668L30.4415 7.60998C30.6777 7.3674 30.5427 6.95734 30.2065 6.9056Z" fill="#FAA200"/>
<path d="M46.2065 6.9056L42.1077 6.27856L40.2704 2.35939C40.1332 2.06673 39.6538 2.06673 39.5166 2.35939L37.6799 6.27856L33.581 6.9056C33.2444 6.95734 33.1099 7.3674 33.346 7.60943L36.3238 10.6662L35.6199 14.9876C35.5638 15.3309 35.9299 15.5885 36.2327 15.4199L39.8938 13.3936L43.5549 15.4205C43.8549 15.5874 44.2243 15.3348 44.1677 14.9882L43.4638 10.6668L46.4415 7.60998C46.6777 7.3674 46.5427 6.95734 46.2065 6.9056Z" fill="#FAA200"/>
<path d="M62.2065 6.9056L58.1077 6.27856L56.2704 2.35939C56.1332 2.06673 55.6538 2.06673 55.5166 2.35939L53.6799 6.27856L49.581 6.9056C49.2444 6.95734 49.1099 7.3674 49.346 7.60943L52.3238 10.6662L51.6199 14.9876C51.5638 15.3309 51.9299 15.5885 52.2327 15.4199L55.8938 13.3936L59.5549 15.4205C59.8549 15.5874 60.2243 15.3348 60.1677 14.9882L59.4638 10.6668L62.4415 7.60998C62.6777 7.3674 62.5427 6.95734 62.2065 6.9056Z" fill="#FAA200"/>
<path d="M78.2065 6.9056L74.1077 6.27856L72.2704 2.35939C72.1332 2.06673 71.6538 2.06673 71.5166 2.35939L69.6799 6.27856L65.581 6.9056C65.2444 6.95734 65.1099 7.3674 65.346 7.60943L68.3238 10.6662L67.6199 14.9876C67.5638 15.3309 67.9299 15.5885 68.2327 15.4199L71.8938 13.3936L75.5549 15.4205C75.8549 15.5874 76.2243 15.3348 76.1677 14.9882L75.4638 10.6668L78.4415 7.60998C78.6777 7.3674 78.5427 6.95734 78.2065 6.9056Z" fill="#FAA200"/>
</svg>
